<svg width="16" height="16" viewBox="0 0 16 16" fill="none" xmlns="http://www.w3.org/2000/svg">
<mask id="mask0_0_6" style="mask-type:luminance" maskUnits="userSpaceOnUse" x="0" y="0" width="16" height="16">
<path d="M8 15.5C12.1421 15.5 15.5 12.1421 15.5 8C15.5 3.85786 12.1421 0.5 8 0.5C3.85786 0.5 0.5 3.85786 0.5 8C0.5 12.1421 3.85786 15.5 8 15.5Z" fill="white"/>
</mask>
<g mask="url(#mask0_0_6)">
<path d="M0.5 0.5L0.734375 1.14453L0.5 1.81836V2.49219L1.4375 4.07422L0.5 5.65625V6.59375L1.4375 8L0.5 9.40625V10.3438L1.4375 11.9258L0.5 13.5078V15.5L1.14453 15.2656L1.81836 15.5H2.49219L4.07422 14.5625L5.65625 15.5H6.59375L8 14.5625L9.40625 15.5H10.3438L11.9258 14.5625L13.5078 15.5H15.5L15.2656 14.8555L15.5 14.1816V13.5078L14.5625 11.9258L15.5 10.3438V9.40625L14.5625 8L15.5 6.59375V5.65625L14.5625 4.07422L15.5 2.49219V0.5L14.8555 0.734375L14.1816 0.5H13.5078L11.9258 1.4375L10.3438 0.5H9.40625L8 1.4375L6.59375 0.5H5.65625L4.07422 1.4375L2.49219 0.5H0.5Z" fill="#EEEEEE"/>
<path d="M10.3438 0.5V3.66406L13.5078 0.5H10.3438ZM15.5 2.49219L12.3359 5.65625H15.5V2.49219ZM0.5 5.65625H3.66406L0.5 2.49219V5.65625ZM2.49219 0.5L5.65625 3.66406V0.5H2.49219ZM5.65625 15.5V12.3359L2.49219 15.5H5.65625ZM0.5 13.5078L3.66406 10.3438H0.5V13.5078ZM15.5 10.3438H12.3359L15.5 13.5078V10.3438ZM13.5078 15.5L10.3438 12.3359V15.5H13.5078Z" fill="#0052B4"/>
<path d="M0.5 0.5V1.81836L4.33789 5.65625H5.65625L0.5 0.5ZM6.59375 0.5V6.59375H0.5V9.40625H6.59375V15.5H9.40625V9.40625H15.5V6.59375H9.40625V0.5H6.59375ZM14.1816 0.5L10.3438 4.33789V5.65625L15.5 0.5H14.1816ZM5.65625 10.3438L0.5 15.5H1.81836L5.65625 11.6621V10.3438ZM10.3438 10.3438L15.5 15.5V14.1816L11.6621 10.3438H10.3438Z" fill="#D80027"/>
</g>
</svg>
