<svg width="100" height="100" viewBox="0 0 100 100" fill="none" xmlns="http://www.w3.org/2000/svg">
<g filter="url(#filter0_b_549_4616)">
<rect width="100" height="100" rx="50" fill="white" fill-opacity="0.05"/>
<rect x="0.5" y="0.5" width="99" height="99" rx="49.5" stroke="url(#paint0_linear_549_4616)"/>
<mask id="mask0_549_4616" style="mask-type:alpha" maskUnits="userSpaceOnUse" x="25" y="25" width="50" height="50">
<path fill-rule="evenodd" clip-rule="evenodd" d="M60.4559 74.6581C60.8538 74.8132 61.2793 74.8847 61.706 74.8683C62.1328 74.8519 62.5515 74.7479 62.9364 74.5628L73.2305 69.6093C73.7606 69.3541 74.2079 68.9544 74.521 68.4562C74.834 67.958 75 67.3816 75 66.7933V33.2062C75.0001 32.6178 74.8341 32.0413 74.5211 31.5431C74.208 31.0448 73.7607 30.6451 73.2305 30.3898L62.9364 25.4371C62.3547 25.1572 61.7004 25.0651 61.064 25.1734C60.4277 25.2818 59.8407 25.5852 59.3844 26.0418L39.6774 44.0207L31.0939 37.5047C30.7066 37.2108 30.2287 37.0617 29.7431 37.0833C29.2574 37.1048 28.7946 37.2956 28.4349 37.6226L25.6818 40.1269C25.4672 40.3221 25.2958 40.5598 25.1784 40.825C25.061 41.0902 25.0002 41.377 25 41.667C24.9998 41.9571 25.0601 42.2439 25.1771 42.5093C25.2941 42.7747 25.4652 43.0127 25.6794 43.2082L33.1236 49.9996L25.6798 56.7913C25.4657 56.9868 25.2947 57.2248 25.1778 57.4902C25.0609 57.7555 25.0006 58.0423 25.0008 58.3323C25.001 58.6222 25.0617 58.9089 25.1791 59.1741C25.2964 59.4393 25.4677 59.677 25.6822 59.8722L28.4353 62.3765C28.795 62.7035 29.2577 62.8944 29.7434 62.916C30.229 62.9376 30.707 62.7886 31.0943 62.4948L39.6778 55.9792L59.3848 73.9577C59.6898 74.2626 60.0542 74.5011 60.4559 74.6581ZM62.5075 38.6492L47.5548 49.9996L62.5078 61.3503L62.5075 38.6492Z" fill="white"/>
</mask>
<g mask="url(#mask0_549_4616)">
<path d="M73.2309 30.3981L62.9285 25.4371C62.3467 25.1569 61.6921 25.0646 61.0554 25.1729C60.4187 25.2812 59.8315 25.5849 59.375 26.0418L25.6494 56.7914C25.4351 56.9868 25.2639 57.2247 25.1469 57.4901C25.0299 57.7554 24.9695 58.0423 24.9698 58.3323C24.97 58.6223 25.0307 58.9091 25.1482 59.1742C25.2656 59.4394 25.4371 59.6771 25.6517 59.8722L28.4064 62.3765C28.7662 62.7039 29.2292 62.8951 29.7153 62.9167C30.2013 62.9383 30.6795 62.7891 31.0669 62.4949L71.6805 31.6844C73.043 30.6508 75 31.6227 75 33.3328V33.2133C75 32.625 74.834 32.0487 74.521 31.5506C74.2081 31.0525 73.7609 30.6533 73.2309 30.3981Z" fill="#0065A9"/>
<g filter="url(#filter1_d_549_4616)">
<path d="M73.2308 69.6015L62.9285 74.5617C62.3467 74.842 61.6922 74.9345 61.0555 74.8263C60.4188 74.7181 59.8315 74.4145 59.375 73.9577L25.6493 43.2078C25.435 43.0124 25.2639 42.7745 25.1469 42.5091C25.0298 42.2438 24.9695 41.9569 24.9697 41.6669C24.9699 41.3769 25.0307 41.0901 25.1481 40.825C25.2656 40.5598 25.4371 40.3221 25.6517 40.127L28.4063 37.6227C28.7661 37.2952 29.2292 37.1041 29.7152 37.0825C30.2012 37.0609 30.6795 37.2101 31.0669 37.5043L71.6804 68.3144C73.0429 69.3484 75 68.3765 75 66.6664V66.7859C75 67.3741 74.834 67.9505 74.521 68.4486C74.208 68.9466 73.7608 69.3463 73.2308 69.6015Z" fill="#007ACC"/>
</g>
<g filter="url(#filter2_d_549_4616)">
<path d="M62.9289 74.5628C62.3468 74.8425 61.6922 74.9345 61.0556 74.8261C60.4189 74.7177 59.8317 74.4142 59.375 73.9577C60.5281 75.1108 62.5 74.294 62.5 72.6631V27.3355C62.5 25.7047 60.5281 24.8879 59.375 26.0414C59.8317 25.5848 60.4189 25.2814 61.0556 25.173C61.6922 25.0646 62.3468 25.1566 62.9289 25.4363L73.2292 30.3902C73.7596 30.6453 74.2072 31.045 74.5205 31.5432C74.8338 32.0415 74.9999 32.6181 74.9999 33.2066V66.7932C74.9999 67.3818 74.8338 67.9584 74.5205 68.4567C74.2072 68.9549 73.7596 69.3546 73.2292 69.6096L62.9289 74.5628Z" fill="#1F9CF0"/>
</g>
<path opacity="0.25" fill-rule="evenodd" clip-rule="evenodd" d="M60.4258 74.658C60.8236 74.813 61.2491 74.8845 61.6757 74.8681C62.1024 74.8517 62.5211 74.7477 62.9058 74.5626L73.1999 69.6091C73.7301 69.3539 74.1775 68.9542 74.4905 68.4559C74.8036 67.9577 74.9696 67.3812 74.9695 66.7927V33.2061C74.9696 32.6177 74.8036 32.0412 74.4905 31.5429C74.1775 31.0447 73.7301 30.645 73.1999 30.3897L62.9058 25.437C62.3242 25.1571 61.6699 25.065 61.0335 25.1733C60.3971 25.2816 59.8102 25.5851 59.3539 26.0417L39.6469 44.0205L31.0633 37.5049C30.6761 37.2111 30.1982 37.062 29.7125 37.0836C29.2269 37.1051 28.7641 37.2959 28.4044 37.6229L25.6513 40.1272C25.4368 40.3224 25.2653 40.5602 25.148 40.8253C25.0306 41.0905 24.9699 41.3773 24.9697 41.6673C24.9694 41.9573 25.0297 42.2442 25.1467 42.5095C25.2637 42.7749 25.4347 43.0129 25.6489 43.2084L33.093 49.9994L25.6493 56.7908C25.435 56.9863 25.264 57.2243 25.147 57.4897C25.03 57.7551 24.9696 58.0419 24.9699 58.332C24.9701 58.622 25.0308 58.9088 25.1482 59.174C25.2656 59.4392 25.4371 59.6769 25.6516 59.8721L28.4048 62.3764C28.7644 62.7034 29.2272 62.8943 29.7129 62.9159C30.1985 62.9375 30.6764 62.7885 31.0637 62.4947L39.6477 55.9787L59.3547 73.9576C59.6596 74.2624 60.0242 74.5009 60.4258 74.658ZM62.4773 38.6487L47.5242 49.9994L62.4773 61.3498V38.6487Z" fill="url(#paint1_linear_549_4616)"/>
</g>
</g>
<defs>
<filter id="filter0_b_549_4616" x="-40" y="-40" width="180" height="180" filterUnits="userSpaceOnUse" color-interpolation-filters="sRGB">
<feFlood flood-opacity="0" result="BackgroundImageFix"/>
<feGaussianBlur in="BackgroundImageFix" stdDeviation="20"/>
<feComposite in2="SourceAlpha" operator="in" result="effect1_backgroundBlur_549_4616"/>
<feBlend mode="normal" in="SourceGraphic" in2="effect1_backgroundBlur_549_4616" result="shape"/>
</filter>
<filter id="filter1_d_549_4616" x="16.6357" y="28.7464" width="66.6982" height="54.4578" filterUnits="userSpaceOnUse" color-interpolation-filters="sRGB">
<feFlood flood-opacity="0" result="BackgroundImageFix"/>
<feColorMatrix in="SourceAlpha" type="matrix" values="0 0 0 0 0 0 0 0 0 0 0 0 0 0 0 0 0 0 127 0" result="hardAlpha"/>
<feOffset/>
<feGaussianBlur stdDeviation="4.167"/>
<feColorMatrix type="matrix" values="0 0 0 0 0 0 0 0 0 0 0 0 0 0 0 0 0 0 0.25 0"/>
<feBlend mode="overlay" in2="BackgroundImageFix" result="effect1_dropShadow_549_4616"/>
<feBlend mode="normal" in="SourceGraphic" in2="effect1_dropShadow_549_4616" result="shape"/>
</filter>
<filter id="filter2_d_549_4616" x="51.041" y="16.7948" width="32.293" height="66.4095" filterUnits="userSpaceOnUse" color-interpolation-filters="sRGB">
<feFlood flood-opacity="0" result="BackgroundImageFix"/>
<feColorMatrix in="SourceAlpha" type="matrix" values="0 0 0 0 0 0 0 0 0 0 0 0 0 0 0 0 0 0 127 0" result="hardAlpha"/>
<feOffset/>
<feGaussianBlur stdDeviation="4.167"/>
<feColorMatrix type="matrix" values="0 0 0 0 0 0 0 0 0 0 0 0 0 0 0 0 0 0 0.25 0"/>
<feBlend mode="overlay" in2="BackgroundImageFix" result="effect1_dropShadow_549_4616"/>
<feBlend mode="normal" in="SourceGraphic" in2="effect1_dropShadow_549_4616" result="shape"/>
</filter>
<linearGradient id="paint0_linear_549_4616" x1="-3.38983" y1="-6.908e-08" x2="100" y2="100" gradientUnits="userSpaceOnUse">
<stop stop-color="#FF8B44"/>
<stop offset="0.305" stop-color="#E21363"/>
<stop offset="1" stop-color="#39126A"/>
</linearGradient>
<linearGradient id="paint1_linear_549_4616" x1="49.9695" y1="25.1284" x2="49.9695" y2="74.8705" gradientUnits="userSpaceOnUse">
<stop stop-color="white"/>
<stop offset="1" stop-color="white" stop-opacity="0"/>
</linearGradient>
</defs>
</svg>
