<svg width="1744" height="1105" viewBox="0 0 1744 1105" fill="none" xmlns="http://www.w3.org/2000/svg">
<g filter="url(#filter0_f_392_2776)">
<path d="M300 300C300 366.318 314.795 431.986 343.541 493.255C372.287 554.525 414.42 610.195 467.535 657.089C520.65 703.983 583.707 741.181 653.105 766.559C722.503 791.938 796.884 805 872 805C947.116 805 1021.5 791.938 1090.9 766.559C1160.29 741.18 1223.35 703.982 1276.47 657.089C1329.58 610.195 1371.71 554.525 1400.46 493.255C1429.2 431.986 1444 366.318 1444 300L300 300Z" fill="url(#paint0_linear_392_2776)" fill-opacity="0.5"/>
</g>
<defs>
<filter id="filter0_f_392_2776" x="0" y="0" width="1744" height="1105" filterUnits="userSpaceOnUse" color-interpolation-filters="sRGB">
<feFlood flood-opacity="0" result="BackgroundImageFix"/>
<feBlend mode="normal" in="SourceGraphic" in2="BackgroundImageFix" result="shape"/>
<feGaussianBlur stdDeviation="150" result="effect1_foregroundBlur_392_2776"/>
</filter>
<linearGradient id="paint0_linear_392_2776" x1="872" y1="300" x2="872" y2="805" gradientUnits="userSpaceOnUse">
<stop stop-color="#D0A8ED" stop-opacity="0"/>
<stop offset="1" stop-color="#9747FF"/>
</linearGradient>
</defs>
</svg>
