<svg width="16" height="16" viewBox="0 0 16 16" fill="none" xmlns="http://www.w3.org/2000/svg">
<path d="M8 15.5C12.1421 15.5 15.5 12.1421 15.5 8C15.5 3.85786 12.1421 0.5 8 0.5C3.85786 0.5 0.5 3.85786 0.5 8C0.5 12.1421 3.85786 15.5 8 15.5Z" fill="#75A843"/>
<path d="M8 15.5C12.1421 15.5 15.5 12.1421 15.5 8C15.5 3.85786 12.1421 0.5 8 0.5C3.85786 0.5 0.5 3.85786 0.5 8C0.5 12.1421 3.85786 15.5 8 15.5Z" fill="#0B5F09"/>
<path d="M6.49998 11.525C8.44678 11.525 10.025 9.94681 10.025 8.00001C10.025 6.0532 8.44678 4.47501 6.49998 4.47501C4.55317 4.47501 2.97498 6.0532 2.97498 8.00001C2.97498 9.94681 4.55317 11.525 6.49998 11.525Z" fill="#ED4C5C"/>
</svg>
