<svg width="60" height="60" viewBox="0 0 60 60" fill="none" xmlns="http://www.w3.org/2000/svg">
<path d="M40.0969 13.4531L30.7219 2.20314C30.3656 1.77189 29.6344 1.77189 29.2781 2.20314L19.9031 13.4531C19.6688 13.7344 19.6219 14.1188 19.7719 14.4469C19.9219 14.775 20.2594 14.9906 20.625 14.9906H24.375V57.1875C24.375 57.7031 24.7969 58.125 25.3125 58.125H34.6875C35.2031 58.125 35.625 57.7031 35.625 57.1875V14.9906H39.375C39.7406 14.9906 40.0688 14.7844 40.2281 14.4469C40.3875 14.1188 40.3313 13.725 40.0969 13.4531Z" fill="#593BBF"/>
<path d="M57.7875 25.5188L46.5375 16.1438C46.2562 15.9094 45.8719 15.8625 45.5438 16.0125C45.2156 16.1625 45 16.5 45 16.8656V20.6438C33.5437 21.1406 24.375 30.6094 24.375 42.1875V57.1875C24.375 57.7031 24.7969 58.125 25.3125 58.125H34.6875C35.2031 58.125 35.625 57.7031 35.625 57.1875V42.1875C35.625 36.8156 39.75 32.4 45 31.9219V35.625C45 35.9906 45.2063 36.3188 45.5438 36.4781C45.6656 36.5344 45.8062 36.5625 45.9375 36.5625C46.1531 36.5625 46.3687 36.4875 46.5375 36.3469L57.7875 26.9719C58.0031 26.7938 58.125 26.5313 58.125 26.25C58.125 25.9688 58.0031 25.7063 57.7875 25.5281V25.5188Z" fill="#846DD9"/>
<path d="M15 31.8938V28.1156C15 27.75 14.7937 27.4219 14.4563 27.2625C14.1281 27.1125 13.7437 27.1594 13.4625 27.3938L2.2125 36.7688C1.99687 36.9469 1.875 37.2094 1.875 37.4906C1.875 37.7719 1.99687 38.0344 2.2125 38.2125L13.4625 47.5875C13.6312 47.7281 13.8469 47.8031 14.0625 47.8031C14.1938 47.8031 14.3344 47.775 14.4563 47.7188C14.7844 47.5688 15 47.2313 15 46.8656V43.1625C20.25 43.6406 24.375 48.0563 24.375 53.4281V57.1781C24.375 57.6938 24.7969 58.1156 25.3125 58.1156H34.6875C35.2031 58.1156 35.625 57.6938 35.625 57.1781V53.4281C35.625 41.85 26.4563 32.3719 15 31.8844V31.8938Z" fill="#CAA9D8"/>
</svg>
