<svg width="142" height="142" viewBox="0 0 142 142" fill="none" xmlns="http://www.w3.org/2000/svg">
<g filter="url(#filter0_b_379_2885)">
<path d="M62.9572 8.30921C67.3561 3.76461 74.6439 3.76461 79.0428 8.30921C82.125 11.4935 86.7956 12.5595 90.9542 11.0279C96.8893 8.84197 103.455 12.004 105.447 18.0072C106.842 22.2134 110.588 25.2004 114.999 25.6248C121.295 26.2305 125.839 31.9283 125.028 38.2011C124.46 42.5962 126.539 46.9125 130.329 49.2088C135.739 52.4862 137.361 59.5913 133.909 64.8912C131.49 68.6046 131.49 73.3954 133.909 77.1088C137.361 82.4087 135.739 89.5138 130.329 92.7912C126.539 95.0875 124.46 99.4038 125.028 103.799C125.839 110.072 121.295 115.77 114.999 116.375C110.588 116.8 106.842 119.787 105.447 123.993C103.455 129.996 96.8893 133.158 90.9542 130.972C86.7956 129.44 82.125 130.507 79.0428 133.691C74.6439 138.235 67.3561 138.235 62.9572 133.691C59.875 130.507 55.2044 129.44 51.0458 130.972C45.1107 133.158 38.5446 129.996 36.5532 123.993C35.1578 119.787 31.4123 116.8 27.001 116.375C20.7052 115.77 16.1613 110.072 16.9718 103.799C17.5396 99.4038 15.461 95.0875 11.6707 92.7912C6.26119 89.5138 4.6395 82.4087 8.09131 77.1088C10.5099 73.3954 10.5099 68.6046 8.09131 64.8912C4.6395 59.5913 6.26119 52.4862 11.6707 49.2088C15.461 46.9125 17.5396 42.5962 16.9718 38.2011C16.1613 31.9283 20.7052 26.2305 27.001 25.6248C31.4123 25.2004 35.1578 22.2134 36.5532 18.0072C38.5446 12.004 45.1107 8.84197 51.0458 11.0279C55.2044 12.5595 59.875 11.4935 62.9572 8.30921Z" fill="#D0A8ED"/>
<path d="M63.6757 9.00471C67.6816 4.86611 74.3184 4.86611 78.3243 9.00471C81.6818 12.4735 86.7697 13.6347 91.2998 11.9663C96.7047 9.97564 102.684 12.8552 104.498 18.3221C106.018 22.9041 110.098 26.1579 114.903 26.6202C120.637 27.1718 124.775 32.3606 124.036 38.0729C123.418 42.8607 125.682 47.5626 129.811 50.0641C134.737 53.0486 136.214 59.519 133.071 64.3454C130.436 68.3906 130.436 73.6094 133.071 77.6546C136.214 82.481 134.737 88.9514 129.811 91.9359C125.682 94.4374 123.418 99.1393 124.036 103.927C124.775 109.639 120.637 114.828 114.903 115.38C110.098 115.842 106.018 119.096 104.498 123.678C102.684 129.145 96.7047 132.024 91.2998 130.034C86.7697 128.365 81.6818 129.527 78.3243 132.995C74.3184 137.134 67.6816 137.134 63.6757 132.995C60.3182 129.527 55.2303 128.365 50.7002 130.034C45.2953 132.024 39.3158 129.145 37.5023 123.678C35.9823 119.096 31.9021 115.842 27.0967 115.38C21.3634 114.828 17.2255 109.639 17.9635 103.927C18.5821 99.1393 16.3178 94.4374 12.1889 91.9359C7.26263 88.9514 5.78582 82.481 8.92925 77.6546C11.5639 73.6094 11.5639 68.3906 8.92925 64.3454C5.78582 59.519 7.26263 53.0486 12.1889 50.0641C16.3178 47.5626 18.5821 42.8607 17.9635 38.0729C17.2255 32.3606 21.3634 27.1718 27.0967 26.6202C31.9021 26.1579 35.9823 22.9041 37.5023 18.3221C39.3158 12.8552 45.2953 9.97564 50.7002 11.9663C55.2303 13.6347 60.3182 12.4735 63.6757 9.00471Z" stroke="#FDFDFD" stroke-width="2"/>
</g>
<g clip-path="url(#clip0_379_2885)">
<path fill-rule="evenodd" clip-rule="evenodd" d="M72 99.182C72.4894 98.2041 73.0291 97.2532 73.5709 96.3668L73.5709 96.3668C75.9688 92.4443 79.1043 89.0336 82.685 86.1868C84.0616 85.0885 85.5932 83.9777 87.0743 83.1366C88.5197 82.3157 90.0606 81.6667 91.4166 81.6667L91.4166 83.6667C90.6085 83.6667 89.4515 84.0866 88.0619 84.8757C86.7081 85.6445 85.2678 86.6846 83.932 87.7504L83.9306 87.7515C80.5118 90.4695 77.54 93.7086 75.2773 97.4099C74.4209 98.8112 73.5939 100.341 72.9836 101.846C72.3687 103.362 72 104.789 72 106L70 106C70 104.789 69.6312 103.361 69.0163 101.845C68.406 100.34 67.5791 98.8098 66.7229 97.4104C64.4571 93.7086 61.485 90.4692 58.0716 87.751L58.0713 87.7508C56.7341 86.685 55.2915 85.6448 53.9365 84.8759C52.5452 84.0864 51.3884 83.6667 50.5833 83.6667L50.5833 81.6667C51.9365 81.6667 53.4776 82.3159 54.9235 83.1364C56.4057 83.9775 57.9396 85.0883 59.3178 86.1867C62.8926 89.0335 66.0279 92.444 68.4287 96.3663L68.4288 96.3664C68.9707 97.2521 69.5105 98.2027 70 99.1807L70 36L72 36L72 99.182Z" fill="black"/>
</g>
<defs>
<filter id="filter0_b_379_2885" x="-13.7242" y="-15.0992" width="169.448" height="172.198" filterUnits="userSpaceOnUse" color-interpolation-filters="sRGB">
<feFlood flood-opacity="0" result="BackgroundImageFix"/>
<feGaussianBlur in="BackgroundImageFix" stdDeviation="10"/>
<feComposite in2="SourceAlpha" operator="in" result="effect1_backgroundBlur_379_2885"/>
<feBlend mode="normal" in="SourceGraphic" in2="effect1_backgroundBlur_379_2885" result="shape"/>
</filter>
<clipPath id="clip0_379_2885">
<rect width="70" height="70" fill="white" transform="translate(106 106) rotate(-180)"/>
</clipPath>
</defs>
</svg>
