<svg width="50" height="50" viewBox="0 0 50 50" fill="none" xmlns="http://www.w3.org/2000/svg">
<g clip-path="url(#clip0_549_4669)">
<path d="M0 20C0 8.9543 8.95431 0 20 0H30C41.0457 0 50 8.95431 50 20V30C50 41.0457 41.0457 50 30 50H20C8.9543 50 0 41.0457 0 30V20Z" fill="url(#paint0_linear_549_4669)"/>
<path d="M16.875 33.125H32.5V17.5H16.875V33.125ZM33.75 17.5H36.25V18.75H33.75V21.25H36.25V22.5H33.75V24.375H36.25V25.625H33.75V28.125H36.25V29.375H33.75V31.875H36.25V33.125H33.75V33.21C33.7497 33.5189 33.6269 33.8151 33.4085 34.0335C33.1901 34.2519 32.8939 34.3747 32.585 34.375H32.5V36.875H31.25V34.375H28.75V36.875H27.5V34.375H25.625V36.875H24.375V34.375H21.875V36.875H20.625V34.375H18.125V36.875H16.875V34.375H16.79C16.4811 34.3747 16.1849 34.2519 15.9665 34.0335C15.7481 33.8151 15.6253 33.5189 15.625 33.21V33.125H13.75V31.875H15.625V29.375H13.75V28.125H15.625V25.625H13.75V24.375H15.625V22.5H13.75V21.25H15.625V18.75H13.75V17.5H15.625V17.415C15.6253 17.1061 15.7481 16.8099 15.9665 16.5915C16.1849 16.3731 16.4811 16.2503 16.79 16.25H16.875V13.75H18.125V16.25H20.625V13.75H21.875V16.25H24.375V13.75H25.625V16.25H27.5V13.75H28.75V16.25H31.25V13.75H32.5V16.25H32.585C32.8939 16.2503 33.1901 16.3731 33.4085 16.5915C33.6269 16.8099 33.7497 17.1061 33.75 17.415V17.5ZM25.625 41.1725C25.6248 41.193 25.6166 41.2126 25.6021 41.2271C25.5876 41.2416 25.568 41.2498 25.5475 41.25H8.82754C8.80702 41.2498 8.78739 41.2416 8.77288 41.2271C8.75837 41.2126 8.75015 41.193 8.75 41.1725V24.4525C8.75015 24.432 8.75837 24.4124 8.77288 24.3979C8.78739 24.3834 8.80702 24.3752 8.82754 24.375H12.5V23.125H8.82754C8.47558 23.1254 8.13816 23.2654 7.88928 23.5143C7.64041 23.7632 7.50041 24.1006 7.5 24.4525V41.1725C7.50041 41.5244 7.64041 41.8618 7.88928 42.1107C8.13816 42.3596 8.47558 42.4996 8.82754 42.5H25.5475C25.8994 42.4996 26.2368 42.3596 26.4857 42.1107C26.7346 41.8618 26.8746 41.5244 26.875 41.1725V38.125H25.625V41.1725ZM42.5 8.82754V25.5475C42.4996 25.8994 42.3596 26.2368 42.1107 26.4857C41.8618 26.7346 41.5244 26.8746 41.1725 26.875H37.5V25.625H41.1725C41.193 25.6248 41.2126 25.6166 41.2271 25.6021C41.2416 25.5876 41.2498 25.568 41.25 25.5475V8.82754C41.2498 8.80702 41.2416 8.78739 41.2271 8.77288C41.2126 8.75837 41.193 8.75015 41.1725 8.75H24.4525C24.432 8.75015 24.4124 8.75837 24.3979 8.77288C24.3834 8.78739 24.3752 8.80702 24.375 8.82754V12.5H23.125V8.82754C23.1254 8.47558 23.2654 8.13816 23.5143 7.88928C23.7632 7.64041 24.1006 7.50041 24.4525 7.5H41.1725C41.5244 7.50041 41.8618 7.64041 42.1107 7.88928C42.3596 8.13816 42.4996 8.47558 42.5 8.82754Z" fill="white"/>
</g>
<defs>
<linearGradient id="paint0_linear_549_4669" x1="0" y1="5000" x2="5000" y2="0" gradientUnits="userSpaceOnUse">
<stop stop-color="#C8511B"/>
<stop offset="1" stop-color="#FF9900"/>
</linearGradient>
<clipPath id="clip0_549_4669">
<rect width="50" height="50" fill="white"/>
</clipPath>
</defs>
</svg>
