<svg width="100" height="100" viewBox="0 0 100 100" fill="none" xmlns="http://www.w3.org/2000/svg">
<g filter="url(#filter0_b_549_4568)">
<rect width="100" height="100" rx="50" fill="white" fill-opacity="0.05"/>
<rect x="0.5" y="0.5" width="99" height="99" rx="49.5" stroke="url(#paint0_linear_549_4568)"/>
<path d="M39.091 46.0184C39.091 46.6338 39.1576 47.1326 39.274 47.4985C39.4217 47.9101 39.5995 48.3103 39.806 48.6958C39.8892 48.8288 39.9223 48.9618 39.9223 49.0783C39.9223 49.2445 39.8227 49.4108 39.6065 49.5772L38.5589 50.2756C38.4092 50.3754 38.2596 50.4253 38.1264 50.4253C37.9602 50.4253 37.7938 50.3421 37.6275 50.1924C37.4032 49.9518 37.2028 49.6901 37.0289 49.4108C36.8626 49.1283 36.6962 48.8121 36.5134 48.4298C35.2161 49.9595 33.5864 50.7245 31.6243 50.7246C30.2275 50.7246 29.1132 50.3254 28.2983 49.5274C27.4836 48.7289 27.0679 47.6647 27.0679 46.3344C27.0679 44.921 27.5668 43.7735 28.5812 42.9088C29.5954 42.044 30.9426 41.6117 32.6554 41.6117C33.2208 41.6117 33.8028 41.6615 34.418 41.7447C35.0334 41.8278 35.6653 41.9609 36.3306 42.1105V40.8966C36.3306 39.6326 36.0643 38.7514 35.5488 38.2359C35.0168 37.7203 34.1187 37.4708 32.8382 37.4708C32.2562 37.4708 31.6576 37.5375 31.0422 37.6872C30.4268 37.8368 29.8283 38.0197 29.2462 38.2525C28.9802 38.3689 28.7807 38.4354 28.6642 38.4687C28.5477 38.5021 28.4647 38.5185 28.3982 38.5185C28.1653 38.5185 28.049 38.3522 28.049 38.003V37.1881C28.049 36.9221 28.0823 36.7226 28.1653 36.6062C28.2485 36.4897 28.3982 36.3734 28.631 36.257C29.213 35.9575 29.9114 35.7081 30.7262 35.5086C31.5413 35.2924 32.4061 35.1928 33.3206 35.1928C35.2997 35.1928 36.7464 35.6416 37.6777 36.5397C38.5923 37.4376 39.058 38.8012 39.058 40.6306V46.0184H39.091ZM32.3394 48.5461C32.8883 48.5461 33.4536 48.4464 34.0522 48.2467C34.6509 48.0472 35.1831 47.6814 35.632 47.1825C35.8982 46.8666 36.0977 46.5174 36.1974 46.1182C36.2972 45.7192 36.3637 45.2368 36.3637 44.6714V43.973C35.8594 43.8504 35.3486 43.756 34.8337 43.6903C34.3153 43.6246 33.7932 43.5912 33.2706 43.5905C32.1563 43.5905 31.3416 43.8067 30.7929 44.2557C30.2442 44.7048 29.978 45.3367 29.978 46.168C29.978 46.9496 30.1775 47.5317 30.5932 47.9309C30.9924 48.3466 31.5745 48.5461 32.3394 48.5461ZM45.6929 50.3421C45.3935 50.3421 45.194 50.2923 45.061 50.1757C44.928 50.0761 44.8114 49.8432 44.7118 49.5274L40.804 36.6727C40.7039 36.34 40.6541 36.1238 40.6541 36.0075C40.6541 35.7415 40.7871 35.5916 41.0533 35.5916H42.6829C42.9988 35.5916 43.2152 35.6416 43.3315 35.758C43.4645 35.8578 43.5644 36.0907 43.664 36.4065L46.4578 47.4153L49.052 36.4065C49.1352 36.074 49.235 35.8578 49.3678 35.758C49.501 35.6583 49.7339 35.5918 50.0333 35.5918H51.3635C51.6794 35.5918 51.8958 35.6416 52.0286 35.758C52.1618 35.8578 52.2781 36.0907 52.3446 36.4065L54.9722 47.5483L57.8489 36.4065C57.9486 36.074 58.0651 35.8578 58.1814 35.758C58.3145 35.6583 58.5306 35.5918 58.83 35.5918H60.3765C60.6427 35.5918 60.7924 35.7248 60.7924 36.0075C60.7924 36.0907 60.7757 36.1739 60.759 36.2735C60.7423 36.3732 60.7092 36.5064 60.6427 36.6894L56.6348 49.5438C56.5351 49.8766 56.4187 50.0927 56.2856 50.1924C56.1526 50.2923 55.9364 50.3588 55.6539 50.3588H54.2238C53.9077 50.3588 53.6916 50.3089 53.5584 50.1924C53.4254 50.0761 53.309 49.8599 53.2425 49.5274L50.6648 38.8012L48.1039 49.5105C48.0209 49.8432 47.921 50.0594 47.788 50.1757C47.655 50.2923 47.4222 50.3421 47.123 50.3421H45.6929ZM67.0617 50.7911C66.197 50.7911 65.3323 50.6913 64.5009 50.4918C63.6693 50.2923 63.0209 50.0759 62.5885 49.8267C62.3223 49.6769 62.1393 49.5107 62.073 49.361C62.0083 49.2142 61.9743 49.0557 61.9731 48.8953V48.0472C61.9731 47.698 62.1061 47.5317 62.3557 47.5317C62.4575 47.532 62.5586 47.5489 62.655 47.5817C62.7547 47.615 62.9044 47.6813 63.0707 47.7479C63.658 48.0064 64.2712 48.2015 64.8999 48.3299C65.5513 48.462 66.2142 48.5288 66.8789 48.5294C67.9265 48.5294 68.7414 48.3466 69.3068 47.9807C69.8722 47.6148 70.1715 47.0828 70.1715 46.4009C70.1715 45.9354 70.0219 45.5528 69.7225 45.2368C69.4231 44.9208 68.8577 44.6383 68.043 44.3721L65.6316 43.6238C64.4177 43.2413 63.5198 42.6759 62.9709 41.9275C62.4222 41.1958 62.1395 40.381 62.1395 39.5163C62.1395 38.8179 62.2892 38.2026 62.5885 37.6703C62.8877 37.1383 63.2869 36.6727 63.7858 36.3069C64.2847 35.9243 64.8501 35.6416 65.5153 35.4421C66.1803 35.2426 66.8787 35.1594 67.6105 35.1594C67.9763 35.1594 68.3589 35.1761 68.7247 35.2259C69.1073 35.2758 69.4565 35.3423 69.8057 35.4088C70.1382 35.4919 70.4542 35.5751 70.7536 35.675C71.0528 35.7746 71.2856 35.8744 71.452 35.9741C71.6848 36.1073 71.851 36.2404 71.9509 36.39C72.0506 36.523 72.1005 36.7059 72.1005 36.9387V37.7203C72.1005 38.0695 71.9675 38.2525 71.718 38.2525C71.585 38.2525 71.3688 38.1858 71.0863 38.0528C70.1381 37.6205 69.0738 37.4043 67.8933 37.4043C66.9454 37.4043 66.197 37.554 65.6815 37.87C65.1661 38.1858 64.8999 38.6682 64.8999 39.3499C64.8999 39.8157 65.0662 40.2147 65.3988 40.5307C65.7313 40.8468 66.3467 41.1626 67.2281 41.4453L69.5895 42.1937C70.7867 42.5763 71.6515 43.1083 72.167 43.79C72.6826 44.4717 72.9321 45.2535 72.9321 46.1182C72.9321 46.8333 72.7822 47.4818 72.4996 48.0472C72.2004 48.6126 71.8012 49.1115 71.2856 49.5107C70.7701 49.9264 70.1549 50.2258 69.4398 50.4419C68.6914 50.6748 67.9098 50.7911 67.0617 50.7911Z" fill="white"/>
<path d="M70.2042 58.6543C64.7332 62.6953 56.7841 64.8405 49.9496 64.8405C40.3709 64.8405 31.7403 61.2984 25.2216 55.4115C24.706 54.946 25.1715 54.3141 25.7867 54.6798C32.8377 58.7708 41.535 61.2485 50.5316 61.2485C56.6013 61.2485 63.2697 59.9848 69.4061 57.3905C70.3207 56.9746 71.1023 57.9893 70.2042 58.6543ZM72.4826 56.0601C71.7842 55.1622 67.8595 55.6277 66.0801 55.8439C65.5479 55.9106 65.4647 55.4449 65.9471 55.0957C69.0734 52.9005 74.212 53.5325 74.8106 54.2641C75.4093 55.0125 74.6442 60.1509 71.7175 62.6122C71.2686 62.9947 70.8362 62.7952 71.0358 62.2963C71.7008 60.6498 73.1809 56.9415 72.4826 56.0601Z" fill="#FF9900"/>
</g>
<defs>
<filter id="filter0_b_549_4568" x="-40" y="-40" width="180" height="180" filterUnits="userSpaceOnUse" color-interpolation-filters="sRGB">
<feFlood flood-opacity="0" result="BackgroundImageFix"/>
<feGaussianBlur in="BackgroundImageFix" stdDeviation="20"/>
<feComposite in2="SourceAlpha" operator="in" result="effect1_backgroundBlur_549_4568"/>
<feBlend mode="normal" in="SourceGraphic" in2="effect1_backgroundBlur_549_4568" result="shape"/>
</filter>
<linearGradient id="paint0_linear_549_4568" x1="-3.38983" y1="-6.908e-08" x2="100" y2="100" gradientUnits="userSpaceOnUse">
<stop stop-color="#FF8B44"/>
<stop offset="0.305" stop-color="#E21363"/>
<stop offset="1" stop-color="#39126A"/>
</linearGradient>
</defs>
</svg>
