<svg width="30" height="30" viewBox="0 0 30 30" fill="none" xmlns="http://www.w3.org/2000/svg">
<path fill-rule="evenodd" clip-rule="evenodd" d="M3.33333 0C2.44928 0 1.60143 0.351189 0.976311 0.976311C0.351189 1.60143 0 2.44928 0 3.33333V26.6667C0 27.5507 0.351189 28.3986 0.976311 29.0237C1.60143 29.6488 2.44928 30 3.33333 30H26.6667C27.5507 30 28.3986 29.6488 29.0237 29.0237C29.6488 28.3986 30 27.5507 30 26.6667V3.33333C30 2.44928 29.6488 1.60143 29.0237 0.976311C28.3986 0.351189 27.5507 0 26.6667 0H3.33333ZM23.25 11.3267C23.5627 11.0142 23.7385 10.5902 23.7387 10.1481C23.7388 9.70597 23.5633 9.2819 23.2508 8.96917C22.9383 8.65643 22.5144 8.48065 22.0723 8.4805C21.6301 8.48034 21.2061 8.65582 20.8933 8.96833L12.6433 17.2183L9.10833 13.6833C8.95359 13.5285 8.76987 13.4056 8.56765 13.3218C8.36543 13.2379 8.14867 13.1947 7.92976 13.1947C7.48764 13.1945 7.06357 13.37 6.75083 13.6825C6.4381 13.995 6.26232 14.419 6.26216 14.8611C6.26201 15.3032 6.43749 15.7273 6.75 16.04L11.3467 20.6367C11.5169 20.807 11.7191 20.9421 11.9415 21.0343C12.164 21.1265 12.4025 21.1739 12.6433 21.1739C12.8842 21.1739 13.1226 21.1265 13.3451 21.0343C13.5676 20.9421 13.7697 20.807 13.94 20.6367L23.25 11.3267Z" fill="#28C76F"/>
</svg>
