<svg width="100" height="100" viewBox="0 0 100 100" fill="none" xmlns="http://www.w3.org/2000/svg">
<g clip-path="url(#clip0_549_4730)">
<path d="M50 100C77.6142 100 100 77.6142 100 50C100 22.3858 77.6142 0 50 0C22.3858 0 0 22.3858 0 50C0 77.6142 22.3858 100 50 100Z" fill="url(#paint0_linear_549_4730)"/>
<path d="M50 100C77.6142 100 100 77.6142 100 50C100 22.3858 77.6142 0 50 0C22.3858 0 0 22.3858 0 50C0 77.6142 22.3858 100 50 100Z" fill="url(#paint1_radial_549_4730)"/>
<path d="M73.4375 17.3939C57.8125 16.8257 42.1875 16.8257 26.5625 17.3939C21.7221 17.5806 17.5807 21.722 17.3939 26.5625C16.8258 42.1875 16.8258 57.8125 17.3939 73.4375C17.5807 78.2779 21.7221 82.4193 26.5625 82.606C42.1875 83.1742 57.8125 83.1742 73.4375 82.606C78.2779 82.4193 82.4193 78.2779 82.6061 73.4375C83.1742 57.8125 83.1742 42.1875 82.6061 26.5625C82.4193 21.722 78.2779 17.5804 73.4375 17.3939Z" fill="url(#paint2_linear_549_4730)"/>
<path d="M26.4607 79.6418C23.2213 79.5307 20.4691 76.7785 20.358 73.5391C19.8414 57.8463 19.8414 42.1535 20.358 26.4608C20.4691 23.2213 23.2213 20.4692 26.4607 20.358C42.1535 19.8414 57.8463 19.8414 73.5391 20.358C76.7785 20.469 79.5307 23.2213 79.6418 26.4608C80.1584 42.1535 80.1584 57.8463 79.6418 73.5391C79.5309 76.7785 76.7785 79.5307 73.5391 79.6418C57.8465 80.1584 42.1535 80.1584 26.4607 79.6418Z" fill="url(#paint3_linear_549_4730)"/>
<path d="M23.3223 26.3688C23.1334 32.769 23.0213 39.169 22.9859 45.5692C22.9768 47.1987 24.3203 48.5196 25.9777 48.518C32.4838 48.5074 38.9898 48.5012 45.4957 48.4992C37.9912 40.9977 30.5148 33.5356 23.3223 26.3688Z" fill="url(#paint4_linear_549_4730)"/>
<path d="M48.518 25.9778C48.5074 32.4838 48.5012 38.9899 48.4992 45.4957C48.4988 47.1535 47.1533 48.4987 45.4959 48.499C40.2645 46.5975 35.5844 43.5965 31.7793 39.8123C27.974 36.0258 25.0486 31.4592 23.3225 26.3686C23.3717 24.7393 24.7396 23.3711 26.3689 23.3221C32.7691 23.1332 39.1691 23.0211 45.5693 22.9858C47.1986 22.9768 48.5195 24.3203 48.518 25.9778Z" fill="url(#paint5_linear_549_4730)"/>
<path d="M51.482 25.9778C51.4926 32.4838 51.4988 38.9899 51.5008 45.4958C51.5012 47.1534 52.8467 48.4987 54.5041 48.4991C61.0102 48.501 67.5162 48.5073 74.0221 48.5178C66.5031 41.0954 58.9047 33.4969 51.482 25.9778Z" fill="url(#paint6_linear_549_4730)"/>
<path d="M76.6777 26.3687C76.8666 32.7689 76.9787 39.1689 77.0141 45.5691C77.0232 47.1984 75.6797 48.5195 74.0223 48.5179C68.7869 46.6312 64.0953 43.6156 60.2398 39.7601C56.3844 35.9048 53.3689 31.213 51.482 25.9777C51.4805 24.3203 52.8014 22.9765 54.4309 22.9859C60.8311 23.0212 67.2311 23.1333 73.6313 23.3222C75.2605 23.3712 76.6285 24.7394 76.6777 26.3687Z" fill="url(#paint7_linear_549_4730)"/>
<path d="M51.5008 54.5042C51.4988 61.0102 51.4926 67.5163 51.482 74.0221C51.4805 75.6795 52.8014 77.0233 54.4309 77.0139C60.8311 76.9786 67.2311 76.8665 73.6313 76.6776C66.4645 69.4852 59.0023 62.0088 51.5008 54.5042Z" fill="url(#paint8_linear_549_4730)"/>
<path d="M77.0141 54.4308C76.9787 60.831 76.8666 67.231 76.6777 73.6312C76.6287 75.2605 75.2605 76.6285 73.6313 76.6777C68.5406 74.9511 63.974 72.0261 60.1875 68.2208C56.4033 64.4158 53.4025 59.7357 51.5008 54.5043C51.5012 52.8468 52.8467 51.5011 54.5041 51.5009C61.0102 51.499 67.5162 51.4927 74.0221 51.4822C75.6797 51.4804 77.0232 52.8013 77.0141 54.4308Z" fill="url(#paint9_linear_549_4730)"/>
<path d="M22.9859 54.4309C23.0213 60.8311 23.1334 67.2311 23.3223 73.6313C23.3713 75.2606 24.7395 76.6288 26.3688 76.6778C32.7689 76.8666 39.1689 76.9788 45.5691 77.0141C38.1436 69.4694 30.5307 61.8565 22.9859 54.4309Z" fill="url(#paint10_linear_549_4730)"/>
<path d="M48.4992 54.5042C48.5012 61.0102 48.5074 67.5163 48.518 74.0221C48.5195 75.6795 47.1986 77.0233 45.5691 77.0139C40.4131 75.0825 35.7486 72.0014 31.8723 68.1274C27.9982 64.251 24.9174 59.5868 22.9857 54.4305C22.9766 52.8012 24.3201 51.4801 25.9775 51.4817C32.4836 51.4922 38.9896 51.4985 45.4955 51.5004C47.1533 51.5012 48.4988 52.8467 48.4992 54.5042Z" fill="url(#paint11_linear_549_4730)"/>
</g>
<defs>
<linearGradient id="paint0_linear_549_4730" x1="14.6453" y1="85.3561" x2="85.3561" y2="14.6453" gradientUnits="userSpaceOnUse">
<stop stop-color="#230BE0"/>
<stop offset="1" stop-color="#DDA2FC"/>
</linearGradient>
<radialGradient id="paint1_radial_549_4730" cx="0" cy="0" r="1" gradientUnits="userSpaceOnUse" gradientTransform="translate(50.0008 50.0006) scale(50.5078)">
<stop offset="0.0056" stop-color="#560DFF"/>
<stop offset="0.1345" stop-color="#6018FF" stop-opacity="0.87"/>
<stop offset="0.3583" stop-color="#7934FE" stop-opacity="0.645"/>
<stop offset="0.6502" stop-color="#A362FD" stop-opacity="0.352"/>
<stop offset="0.9957" stop-color="#DCA1FC" stop-opacity="0.01"/>
<stop offset="1" stop-color="#DDA2FC" stop-opacity="0"/>
</radialGradient>
<linearGradient id="paint2_linear_549_4730" x1="-19.665" y1="119.665" x2="135.241" y2="-35.2409" gradientUnits="userSpaceOnUse">
<stop offset="0.0056" stop-color="#DDA2FC"/>
<stop offset="0.0409" stop-color="#DFA7FC"/>
<stop offset="0.3266" stop-color="#EDCDFD"/>
<stop offset="0.591" stop-color="#F7E9FE"/>
<stop offset="0.8237" stop-color="#FDF9FF"/>
<stop offset="1" stop-color="white"/>
</linearGradient>
<linearGradient id="paint3_linear_549_4730" x1="-43.6053" y1="143.605" x2="100.875" y2="-0.875367" gradientUnits="userSpaceOnUse">
<stop offset="0.0056" stop-color="#DDA2FC"/>
<stop offset="0.0409" stop-color="#DFA7FC"/>
<stop offset="0.3266" stop-color="#EDCDFD"/>
<stop offset="0.591" stop-color="#F7E9FE"/>
<stop offset="0.8237" stop-color="#FDF9FF"/>
<stop offset="1" stop-color="white"/>
</linearGradient>
<linearGradient id="paint4_linear_549_4730" x1="18.952" y1="52.891" x2="59.924" y2="11.919" gradientUnits="userSpaceOnUse">
<stop stop-color="#5471FF"/>
<stop offset="0.1315" stop-color="#6179FF"/>
<stop offset="0.3743" stop-color="#838FFF"/>
<stop offset="0.6986" stop-color="#B9B1FF"/>
<stop offset="1" stop-color="#F2D5FF"/>
</linearGradient>
<linearGradient id="paint5_linear_549_4730" x1="7.15254" y1="64.7196" x2="69.1209" y2="2.751" gradientUnits="userSpaceOnUse">
<stop stop-color="#5471FF"/>
<stop offset="0.1315" stop-color="#6179FF"/>
<stop offset="0.3743" stop-color="#838FFF"/>
<stop offset="0.6986" stop-color="#B9B1FF"/>
<stop offset="1" stop-color="#F2D5FF"/>
</linearGradient>
<linearGradient id="paint6_linear_549_4730" x1="42.1588" y1="57.8413" x2="83.0268" y2="16.9733" gradientUnits="userSpaceOnUse">
<stop stop-color="#5471FF"/>
<stop offset="0.1315" stop-color="#6179FF"/>
<stop offset="0.3743" stop-color="#838FFF"/>
<stop offset="0.6986" stop-color="#B9B1FF"/>
<stop offset="1" stop-color="#F2D5FF"/>
</linearGradient>
<linearGradient id="paint7_linear_549_4730" x1="30.417" y1="69.583" x2="90.7939" y2="9.20601" gradientUnits="userSpaceOnUse">
<stop stop-color="#5471FF"/>
<stop offset="0.1315" stop-color="#6179FF"/>
<stop offset="0.3743" stop-color="#838FFF"/>
<stop offset="0.6986" stop-color="#B9B1FF"/>
<stop offset="1" stop-color="#F2D5FF"/>
</linearGradient>
<linearGradient id="paint8_linear_549_4730" x1="42.4266" y1="85.7303" x2="83.3988" y2="44.7583" gradientUnits="userSpaceOnUse">
<stop stop-color="#5471FF"/>
<stop offset="0.1315" stop-color="#6179FF"/>
<stop offset="0.3743" stop-color="#838FFF"/>
<stop offset="0.6986" stop-color="#B9B1FF"/>
<stop offset="1" stop-color="#F2D5FF"/>
</linearGradient>
<linearGradient id="paint9_linear_549_4730" x1="28.1156" y1="100.012" x2="90.084" y2="38.0439" gradientUnits="userSpaceOnUse">
<stop stop-color="#5471FF"/>
<stop offset="0.1315" stop-color="#6179FF"/>
<stop offset="0.3743" stop-color="#838FFF"/>
<stop offset="0.6986" stop-color="#B9B1FF"/>
<stop offset="1" stop-color="#F2D5FF"/>
</linearGradient>
<linearGradient id="paint10_linear_549_4730" x1="19.3428" y1="80.6573" x2="59.0213" y2="40.9788" gradientUnits="userSpaceOnUse">
<stop stop-color="#5471FF"/>
<stop offset="0.1315" stop-color="#6179FF"/>
<stop offset="0.3743" stop-color="#838FFF"/>
<stop offset="0.6986" stop-color="#B9B1FF"/>
<stop offset="1" stop-color="#F2D5FF"/>
</linearGradient>
<linearGradient id="paint11_linear_549_4730" x1="7.36914" y1="92.6309" x2="68.6781" y2="31.3219" gradientUnits="userSpaceOnUse">
<stop stop-color="#5471FF"/>
<stop offset="0.1315" stop-color="#6179FF"/>
<stop offset="0.3743" stop-color="#838FFF"/>
<stop offset="0.6986" stop-color="#B9B1FF"/>
<stop offset="1" stop-color="#F2D5FF"/>
</linearGradient>
<clipPath id="clip0_549_4730">
<rect width="100" height="100" fill="white"/>
</clipPath>
</defs>
</svg>
