<svg width="12" height="12" viewBox="0 0 12 12" fill="none" xmlns="http://www.w3.org/2000/svg">
<mask id="path-1-inside-1_0_16" fill="white">
<path d="M6.00001 8.40001C5.65001 8.40001 5.30001 8.26501 5.03501 8.00001L1.77501 4.74001C1.63001 4.59501 1.63001 4.35501 1.77501 4.21001C1.92001 4.06501 2.16001 4.06501 2.30501 4.21001L5.56501 7.47001C5.80501 7.71001 6.19501 7.71001 6.43501 7.47001L9.69501 4.21001C9.84001 4.06501 10.08 4.06501 10.225 4.21001C10.37 4.35501 10.37 4.59501 10.225 4.74001L6.96501 8.00001C6.70001 8.26501 6.35001 8.40001 6.00001 8.40001Z"/>
</mask>
<path d="M6.00001 8.40001C5.65001 8.40001 5.30001 8.26501 5.03501 8.00001L1.77501 4.74001C1.63001 4.59501 1.63001 4.35501 1.77501 4.21001C1.92001 4.06501 2.16001 4.06501 2.30501 4.21001L5.56501 7.47001C5.80501 7.71001 6.19501 7.71001 6.43501 7.47001L9.69501 4.21001C9.84001 4.06501 10.08 4.06501 10.225 4.21001C10.37 4.35501 10.37 4.59501 10.225 4.74001L6.96501 8.00001C6.70001 8.26501 6.35001 8.40001 6.00001 8.40001Z" fill="#212121"/>
<path d="M5.03501 8.00001L4.3279 8.70711L5.03501 8.00001ZM1.77501 4.74001L2.48212 4.0329L2.48212 4.0329L1.77501 4.74001ZM2.30501 4.21001L1.5979 4.91711L2.30501 4.21001ZM5.56501 7.47001L6.27212 6.7629L5.56501 7.47001ZM6.43501 7.47001L7.14212 8.17711H7.14212L6.43501 7.47001ZM9.69501 4.21001L8.9879 3.5029L8.9879 3.5029L9.69501 4.21001ZM10.225 4.74001L9.5179 4.0329L9.5179 4.0329L10.225 4.74001ZM6.96501 8.00001L7.67212 8.70711H7.67212L6.96501 8.00001ZM6.00001 7.40001C5.90605 7.40001 5.81319 7.36398 5.74212 7.2929L4.3279 8.70711C4.78683 9.16604 5.39397 9.40001 6.00001 9.40001V7.40001ZM5.74212 7.2929L2.48212 4.0329L1.0679 5.44711L4.3279 8.70711L5.74212 7.2929ZM2.48212 4.0329C2.72764 4.27842 2.72764 4.67159 2.48212 4.91711L1.0679 3.5029C0.532379 4.03842 0.532379 4.91159 1.0679 5.44711L2.48212 4.0329ZM2.48212 4.91711C2.23659 5.16264 1.84343 5.16264 1.5979 4.91711L3.01212 3.5029C2.47659 2.96738 1.60343 2.96738 1.0679 3.5029L2.48212 4.91711ZM1.5979 4.91711L4.8579 8.17711L6.27212 6.7629L3.01212 3.5029L1.5979 4.91711ZM4.8579 8.17711C5.48843 8.80764 6.51159 8.80764 7.14212 8.17711L5.7279 6.7629C5.87843 6.61238 6.12159 6.61238 6.27212 6.7629L4.8579 8.17711ZM7.14212 8.17711L10.4021 4.91711L8.9879 3.5029L5.7279 6.7629L7.14212 8.17711ZM10.4021 4.91711C10.1566 5.16264 9.76343 5.16264 9.5179 4.91711L10.9321 3.5029C10.3966 2.96738 9.52343 2.96738 8.9879 3.5029L10.4021 4.91711ZM9.5179 4.91711C9.27238 4.67159 9.27238 4.27842 9.5179 4.0329L10.9321 5.44711C11.4676 4.91159 11.4676 4.03842 10.9321 3.5029L9.5179 4.91711ZM9.5179 4.0329L6.2579 7.2929L7.67212 8.70711L10.9321 5.44711L9.5179 4.0329ZM6.2579 7.2929C6.18683 7.36398 6.09397 7.40001 6.00001 7.40001V9.40001C6.60605 9.40001 7.21319 9.16604 7.67212 8.70711L6.2579 7.2929Z" fill="#FDFDFD" mask="url(#path-1-inside-1_0_16)"/>
</svg>
