<svg width="60" height="60" viewBox="0 0 60 60" fill="none" xmlns="http://www.w3.org/2000/svg">
<g clip-path="url(#clip0_562_3943)">
<path d="M44.77 52.1845H41.2066L41.0895 52.6098V59.4011L41.2066 60.0001H44.77C46.9282 60.0001 48.6777 58.2505 48.6777 56.0924C48.6777 53.934 46.9281 52.1845 44.77 52.1845Z" fill="#5DE1C4"/>
<path d="M33.8527 52.6071L33.7356 52.1845H26.2644L26.1473 52.6071V59.3256L26.2644 60H33.7356L33.8527 59.3256V52.6071Z" fill="#FEDF30"/>
<path d="M26.2644 56.5594H33.7355V60H26.2644V56.5594Z" fill="#FED402"/>
<path d="M42.3457 39.0157V40.0022L50.5028 44.9198C50.6658 44.6884 50.8494 44.467 51.0563 44.2602C51.2861 44.0304 51.5345 43.8262 51.7978 43.648L42.2281 37.8786C42.3048 38.2457 42.3457 38.626 42.3457 39.0157Z" fill="#CBC4CC"/>
<path d="M23.141 27.0731V27.0117L9.96376 21.1752C9.72282 21.709 9.3845 22.209 8.94704 22.6474L23.437 29.0654C23.2452 28.4345 23.141 27.7658 23.141 27.0731Z" fill="#CBC4CC"/>
<path d="M50.0363 21.1752L36.859 27.0117V27.0731C36.859 27.7658 36.7548 28.4345 36.563 29.0654L51.053 22.6474C50.6155 22.2091 50.2771 21.709 50.0363 21.1752Z" fill="#CBC4CC"/>
<path d="M5.40411 24.1171C5.10622 24.1171 4.81266 24.0897 4.5252 24.0391V42.872C4.81266 42.8214 5.10622 42.794 5.40411 42.794C5.702 42.794 5.99555 42.8214 6.28301 42.872V24.0391C5.99567 24.0897 5.702 24.1171 5.40411 24.1171Z" fill="#CBC4CC"/>
<path d="M25.2928 6.82581L9.34864 16.0311C9.72048 16.5067 9.99423 17.0341 10.17 17.5867L26.1745 8.34643C25.7971 7.89936 25.4961 7.38596 25.2928 6.82581Z" fill="#CBC4CC"/>
<path d="M50.6514 16.0311L34.7072 6.82581C34.5039 7.38596 34.2029 7.89936 33.8256 8.34655L49.8301 17.5868C50.0058 17.0341 50.2795 16.5068 50.6514 16.0311Z" fill="#CBC4CC"/>
<path d="M54.5959 24.1171C54.298 24.1171 54.0045 24.0897 53.717 24.0391V42.872C54.0043 42.8214 54.2979 42.794 54.5959 42.794C54.8938 42.794 55.1875 42.8214 55.4748 42.872V24.0391C55.1873 24.0897 54.8938 24.1171 54.5959 24.1171Z" fill="#CBC4CC"/>
<path d="M54.5959 52.9228C57.4252 52.9228 59.7189 50.6292 59.7189 47.7998C59.7189 44.9705 57.4252 42.6769 54.5959 42.6769C51.7666 42.6769 49.4729 44.9705 49.4729 47.7998C49.4729 50.6292 51.7666 52.9228 54.5959 52.9228Z" fill="#86E8D0"/>
<path d="M5.4041 24.2342C8.23344 24.2342 10.5271 21.9406 10.5271 19.1112C10.5271 16.2819 8.23344 13.9883 5.4041 13.9883C2.57477 13.9883 0.281136 16.2819 0.281136 19.1112C0.281136 21.9406 2.57477 24.2342 5.4041 24.2342Z" fill="#A79BA7"/>
<path d="M54.5959 24.2342C57.4252 24.2342 59.7189 21.9406 59.7189 19.1112C59.7189 16.2819 57.4252 13.9883 54.5959 13.9883C51.7666 13.9883 49.4729 16.2819 49.4729 19.1112C49.4729 21.9406 51.7666 24.2342 54.5959 24.2342Z" fill="#D9B1EE"/>
<path d="M29.6195 17.6304H30.3805C30.5483 17.6304 30.7143 17.6388 30.8789 17.6515V10.0499C30.5933 10.1007 30.3 10.1287 30 10.1287C29.7 10.1287 29.4067 10.1007 29.1211 10.0499V17.6515C29.2857 17.6388 29.4516 17.6304 29.6195 17.6304Z" fill="#CBC4CC"/>
<path d="M17.6543 39.0157C17.6543 38.6466 17.6913 38.2862 17.7605 37.9371L8.20067 43.6469C8.46457 43.8254 8.71348 44.03 8.94375 44.2602C9.15071 44.4671 9.33422 44.6884 9.49735 44.9199L17.6544 40.048V39.0157H17.6543Z" fill="#CBC4CC"/>
<path d="M40.652 47.3869H19.348C18.3479 47.3869 17.5371 46.5762 17.5371 45.576V39.0156C17.5371 35.889 20.0716 33.3545 23.1982 33.3545H36.8018C39.9284 33.3545 42.4629 35.889 42.4629 39.0156V45.576C42.4629 46.5761 41.6522 47.3869 40.652 47.3869Z" fill="#B3DAFE"/>
<path d="M38.4809 33.6078V42.163C38.4809 42.8298 37.9404 43.3703 37.2736 43.3703H17.5371V45.5761C17.5371 46.5762 18.3478 47.387 19.348 47.387H40.6521C41.6522 47.387 42.463 46.5763 42.463 45.5761V39.0157C42.4629 36.4738 40.7876 34.3233 38.4809 33.6078Z" fill="#8AC9FE"/>
<path d="M28.7835 38.1081H31.1971L31.3799 37.9464L32.6637 33.3546H27.3363L28.6143 37.9464L28.7835 38.1081Z" fill="#D9B1EE"/>
<path d="M33.0793 47.3869L31.3799 37.9464H28.6143L26.9207 47.3869H33.0793Z" fill="#CB97E7"/>
<path d="M27.6413 43.3702L26.9207 47.3869H33.0793L32.3563 43.3702H27.6413Z" fill="#BD80E1"/>
<path d="M15.23 52.1845C13.0718 52.1845 11.3223 53.934 11.3223 56.0922C11.3223 58.2505 13.0718 60 15.23 60H26.2644V52.1845H15.23Z" fill="#FDB97E"/>
<path d="M11.3511 56.5593C11.5821 58.4971 13.2301 59.9999 15.2302 59.9999H26.2645V56.5593H11.3511Z" fill="#FEA95C"/>
<path d="M33.7356 52.1845H41.2066V60H33.7356V52.1845Z" fill="#86E8D0"/>
<path d="M30 10.2459C32.8293 10.2459 35.123 7.95231 35.123 5.12297C35.123 2.29363 32.8293 0 30 0C27.1707 0 24.877 2.29363 24.877 5.12297C24.877 7.95231 27.1707 10.2459 30 10.2459Z" fill="#FEDF30"/>
<path d="M33.7356 56.5594H41.2066V60H33.7356V56.5594Z" fill="#5DE1C4"/>
<path d="M45.2377 52.2134C45.2537 52.3573 45.2627 52.5034 45.2627 52.6517C45.2627 54.8099 43.5131 56.5594 41.355 56.5594H41.2065V60H44.7698C46.9281 60 48.6776 58.2504 48.6776 56.0923C48.6777 54.0925 47.1752 52.4447 45.2377 52.2134Z" fill="#00C285"/>
<path d="M58.2184 44.1773C57.3493 43.3083 56.2458 42.8174 55.1115 42.7032C56.8115 44.7161 56.7143 47.7294 54.8175 49.6262C53.6858 50.7579 52.1567 51.2488 50.6795 51.1003C50.7726 51.2105 50.8697 51.3184 50.9735 51.4222C52.9742 53.4229 56.2178 53.4229 58.2185 51.4222C60.219 49.4217 60.219 46.178 58.2184 44.1773Z" fill="#5DE1C4"/>
<path d="M9.02661 15.4888C8.15755 14.6197 7.05399 14.1287 5.91973 14.0147C7.61965 16.0275 7.52251 19.0409 5.62571 20.9377C4.49403 22.0694 2.96485 22.5604 1.4877 22.4118C1.58075 22.5219 1.6779 22.6299 1.78172 22.7337C3.78235 24.7343 7.0261 24.7343 9.02672 22.7337C11.0273 20.7331 11.0272 17.4894 9.02661 15.4888Z" fill="#918291"/>
<path d="M58.2184 15.4888C57.3493 14.6197 56.2458 14.1287 55.1115 14.0147C56.8115 16.0275 56.7143 19.0409 54.8175 20.9377C53.6858 22.0694 52.1567 22.5604 50.6795 22.4118C50.7726 22.5219 50.8697 22.6299 50.9735 22.7337C52.9742 24.7343 56.2178 24.7343 58.2185 22.7337C60.219 20.7331 60.219 17.4894 58.2184 15.4888Z" fill="#CB97E7"/>
<path d="M30.5154 0.0257568C31.2677 0.917437 31.722 2.0688 31.722 3.32681C31.722 6.15619 29.4284 8.44978 26.599 8.44978C26.425 8.44978 26.253 8.44088 26.0836 8.424C27.0233 9.53775 28.4286 10.2458 30 10.2458C32.8294 10.2458 35.123 7.9522 35.123 5.12283C35.123 2.46759 33.1027 0.284272 30.5154 0.0257568Z" fill="#FED402"/>
<path d="M5.4041 52.9228C8.23344 52.9228 10.5271 50.6292 10.5271 47.7998C10.5271 44.9705 8.23344 42.6769 5.4041 42.6769C2.57477 42.6769 0.281136 44.9705 0.281136 47.7998C0.281136 50.6292 2.57477 52.9228 5.4041 52.9228Z" fill="#FDB97E"/>
<path d="M9.02661 44.1773C8.15755 43.3083 7.05399 42.8174 5.91973 42.7032C7.61965 44.7161 7.52251 47.7294 5.62571 49.6262C4.49403 50.7579 2.96485 51.2488 1.4877 51.1003C1.58075 51.2105 1.6779 51.3184 1.78172 51.4222C3.78235 53.4229 7.0261 53.4229 9.02672 51.4222C11.0272 49.4217 11.0272 46.178 9.02661 44.1773Z" fill="#FEA95C"/>
<path d="M35.6075 24.8699C34.4115 24.8699 33.2861 24.2849 32.5969 23.3051C32.5021 23.1702 32.3473 23.0897 32.1829 23.0897C32.0184 23.0897 31.8636 23.1702 31.7688 23.3051C31.0796 24.2849 29.9542 24.8699 28.7582 24.8699H23.2059L23.0237 24.9967V27.0731C23.0237 30.926 26.1471 34.0493 29.9999 34.0493C33.8528 34.0493 36.9761 30.9259 36.9761 27.0731V24.9967L36.8412 24.8699H35.6075Z" fill="#FFDFCF"/>
<path d="M36.8413 24.8699H35.6074C34.6308 24.8699 33.7014 24.4796 33.018 23.8029V25.771C33.018 29.6239 29.8946 32.7471 26.0419 32.7471C26.0078 32.7471 25.9741 32.745 25.94 32.7446C27.0839 33.5649 28.485 34.0493 30 34.0493C33.8529 34.0493 36.9762 30.9259 36.9762 27.0732V24.9967L36.8413 24.8699Z" fill="#FFCEBF"/>
<path d="M36.9762 24.9967H35.6074C34.3197 24.9967 33.1815 24.3569 32.4931 23.3779C32.3416 23.1627 32.0238 23.1627 31.8724 23.3779C31.184 24.3569 30.0458 24.9967 28.7581 24.9967H23.0238V24.1087C23.0238 20.4661 25.9768 17.5131 29.6195 17.5131H30.3805C34.0232 17.5131 36.9762 20.4661 36.9762 24.1087V24.9967Z" fill="#685E68"/>
<path d="M31.3584 17.5858C32.3904 18.7498 33.0181 20.2805 33.0181 21.9585V23.9774C33.6973 24.6092 34.6066 24.9967 35.6074 24.9967H36.9762V24.1088C36.9762 20.7986 34.5373 18.0584 31.3584 17.5858Z" fill="#554E56"/>
</g>
<defs>
<clipPath id="clip0_562_3943">
<rect width="60" height="60" fill="white"/>
</clipPath>
</defs>
</svg>
