<svg width="100" height="100" viewBox="0 0 100 100" fill="none" xmlns="http://www.w3.org/2000/svg">
<g clip-path="url(#clip0_549_4488)">
<path d="M75 0H25C11.1929 0 0 11.1929 0 25V75C0 88.8071 11.1929 100 25 100H75C88.8071 100 100 88.8071 100 75V25C100 11.1929 88.8071 0 75 0Z" fill="url(#paint0_linear_549_4488)"/>
<g opacity="0.9">
<path d="M37.5 61.4583C37.0895 61.4585 36.6831 61.3778 36.3038 61.2209C35.9245 61.064 35.5799 60.8339 35.2896 60.5437L26.9562 52.2104C26.6659 51.9202 26.4355 51.5756 26.2783 51.1963C26.1211 50.8171 26.0402 50.4105 26.0402 50C26.0402 49.5894 26.1211 49.1829 26.2783 48.8036C26.4355 48.4244 26.6659 48.0798 26.9562 47.7896L35.2896 39.4562C35.8758 38.87 36.6709 38.5406 37.5 38.5406C38.3291 38.5406 39.1242 38.87 39.7104 39.4562C40.2967 40.0425 40.626 40.8376 40.626 41.6667C40.626 42.4957 40.2967 43.2908 39.7104 43.8771L33.5854 50L39.7104 56.1229C40.1477 56.5599 40.4456 57.1169 40.5663 57.7233C40.687 58.3296 40.6251 58.9582 40.3885 59.5294C40.1518 60.1006 39.7511 60.5888 39.2369 60.9321C38.7227 61.2755 38.1183 61.4586 37.5 61.4583Z" fill="white"/>
</g>
<g opacity="0.9">
<path d="M62.5 61.4583C61.8817 61.4586 61.2773 61.2755 60.7631 60.9321C60.2489 60.5888 59.8482 60.1006 59.6115 59.5294C59.3749 58.9582 59.313 58.3296 59.4337 57.7233C59.5544 57.1169 59.8523 56.5599 60.2896 56.1229L66.4146 50L60.2896 43.8771C59.9993 43.5868 59.769 43.2422 59.6119 42.8629C59.4549 42.4837 59.374 42.0772 59.374 41.6667C59.374 41.2561 59.4549 40.8496 59.6119 40.4704C59.769 40.0911 59.9993 39.7465 60.2896 39.4562C60.8758 38.87 61.6709 38.5406 62.5 38.5406C62.9105 38.5406 63.317 38.6215 63.6963 38.7786C64.0755 38.9357 64.4201 39.166 64.7104 39.4562L73.0437 47.7896C73.3341 48.0798 73.5645 48.4244 73.7217 48.8036C73.8788 49.1829 73.9597 49.5894 73.9597 50C73.9597 50.4105 73.8788 50.8171 73.7217 51.1963C73.5645 51.5756 73.3341 51.9202 73.0437 52.2104L64.7104 60.5437C64.4201 60.8339 64.0754 61.064 63.6962 61.2209C63.3169 61.3778 62.9104 61.4585 62.5 61.4583Z" fill="white"/>
</g>
<g opacity="0.5">
<path d="M45.8333 67.7083C45.5423 67.7079 45.2528 67.6673 44.9729 67.5875C44.1763 67.3597 43.5027 66.8249 43.1003 66.1005C42.6979 65.3762 42.5996 64.5218 42.8271 63.725L51.1604 34.5583C51.2666 34.1565 51.4519 33.7799 51.7054 33.4506C51.959 33.1212 52.2756 32.8458 52.6369 32.6403C52.9982 32.4349 53.3968 32.3036 53.8095 32.2541C54.2222 32.2046 54.6406 32.2379 55.0402 32.3521C55.4398 32.4663 55.8126 32.659 56.1369 32.919C56.4611 33.1791 56.7302 33.5012 56.9284 33.8665C57.1266 34.2318 57.25 34.633 57.2912 35.0465C57.3325 35.4601 57.2909 35.8777 57.1687 36.275L48.8354 65.4417C48.649 66.0942 48.2552 66.6684 47.7136 67.0773C47.172 67.4862 46.512 67.7077 45.8333 67.7083Z" fill="white"/>
</g>
</g>
<defs>
<linearGradient id="paint0_linear_549_4488" x1="11.5225" y1="11.5225" x2="91.5475" y2="91.5475" gradientUnits="userSpaceOnUse">
<stop stop-color="#9B8DFF"/>
<stop offset="0.252" stop-color="#7D79FD"/>
<stop offset="0.555" stop-color="#5F65FB"/>
<stop offset="0.815" stop-color="#4D58F9"/>
<stop offset="1" stop-color="#4654F9"/>
</linearGradient>
<clipPath id="clip0_549_4488">
<rect width="100" height="100" fill="white"/>
</clipPath>
</defs>
</svg>
