<svg width="60" height="60" viewBox="0 0 60 60" fill="none" xmlns="http://www.w3.org/2000/svg">
<g clip-path="url(#clip0_562_3902)">
<path fill-rule="evenodd" clip-rule="evenodd" d="M3.10345 4.13794H30V55.8621H3.10345C1.38946 55.8621 0 54.4726 0 52.7586V7.24139C0 5.5274 1.38946 4.13794 3.10345 4.13794Z" fill="#464F5D"/>
<path d="M32.069 57.931V2.06897C32.069 0.926307 31.1427 0 30 0C28.8573 0 27.931 0.926307 27.931 2.06897V57.931C27.931 59.0737 28.8573 60 30 60C31.1427 60 32.069 59.0737 32.069 57.931Z" fill="#BDC3C7"/>
<path fill-rule="evenodd" clip-rule="evenodd" d="M4.13794 15.5173C3.69267 15.5173 3.29735 15.2323 3.15655 14.8099C3.01574 14.3875 3.16104 13.9224 3.51725 13.6552L6.55139 11.3793L3.51725 9.10346C3.06019 8.76067 2.96756 8.11225 3.31036 7.65519C3.65315 7.19812 4.30157 7.10549 4.75863 7.44829L8.89656 10.5517C9.15705 10.7471 9.31036 11.0537 9.31036 11.3793C9.31036 11.7049 9.15705 12.0115 8.89656 12.2069L4.75863 15.3104C4.57957 15.4447 4.36177 15.5173 4.13794 15.5173Z" fill="#65DDB9"/>
<path fill-rule="evenodd" clip-rule="evenodd" d="M16.5517 15.5173H12.4138C11.8425 15.5173 11.3793 15.0541 11.3793 14.4828C11.3793 13.9115 11.8425 13.4483 12.4138 13.4483H16.5517C17.1231 13.4483 17.5862 13.9115 17.5862 14.4828C17.5862 15.0541 17.1231 15.5173 16.5517 15.5173Z" fill="#65DDB9"/>
<path fill-rule="evenodd" clip-rule="evenodd" d="M7.24139 21.7242H4.13794C3.56661 21.7242 3.10345 21.261 3.10345 20.6897C3.10345 20.1184 3.56661 19.6552 4.13794 19.6552H7.24139C7.81271 19.6552 8.27587 20.1184 8.27587 20.6897C8.27587 21.261 7.81271 21.7242 7.24139 21.7242Z" fill="#65DDB9"/>
<path fill-rule="evenodd" clip-rule="evenodd" d="M7.24139 25.8621H4.13794C3.56661 25.8621 3.10345 25.3989 3.10345 24.8276C3.10345 24.2562 3.56661 23.7931 4.13794 23.7931H7.24139C7.81271 23.7931 8.27587 24.2562 8.27587 24.8276C8.27587 25.3989 7.81271 25.8621 7.24139 25.8621Z" fill="#65DDB9"/>
<path fill-rule="evenodd" clip-rule="evenodd" d="M7.24139 30H4.13794C3.56661 30 3.10345 29.5368 3.10345 28.9655C3.10345 28.3942 3.56661 27.931 4.13794 27.931H7.24139C7.81271 27.931 8.27587 28.3942 8.27587 28.9655C8.27587 29.5368 7.81271 30 7.24139 30Z" fill="#65DDB9"/>
<path fill-rule="evenodd" clip-rule="evenodd" d="M7.24139 34.1379H4.13794C3.56661 34.1379 3.10345 33.6748 3.10345 33.1035C3.10345 32.5321 3.56661 32.069 4.13794 32.069H7.24139C7.81271 32.069 8.27587 32.5321 8.27587 33.1035C8.27587 33.6748 7.81271 34.1379 7.24139 34.1379Z" fill="#65DDB9"/>
<path fill-rule="evenodd" clip-rule="evenodd" d="M7.24139 38.2759H4.13794C3.56661 38.2759 3.10345 37.8127 3.10345 37.2414C3.10345 36.6701 3.56661 36.2069 4.13794 36.2069H7.24139C7.81271 36.2069 8.27587 36.6701 8.27587 37.2414C8.27587 37.8127 7.81271 38.2759 7.24139 38.2759Z" fill="#65DDB9"/>
<path fill-rule="evenodd" clip-rule="evenodd" d="M7.24139 42.4138H4.13794C3.56661 42.4138 3.10345 41.9507 3.10345 41.3793C3.10345 40.808 3.56661 40.3448 4.13794 40.3448H7.24139C7.81271 40.3448 8.27587 40.808 8.27587 41.3793C8.27587 41.9507 7.81271 42.4138 7.24139 42.4138Z" fill="#65DDB9"/>
<path fill-rule="evenodd" clip-rule="evenodd" d="M7.24139 46.5518H4.13794C3.56661 46.5518 3.10345 46.0886 3.10345 45.5173C3.10345 44.9459 3.56661 44.4828 4.13794 44.4828H7.24139C7.81271 44.4828 8.27587 44.9459 8.27587 45.5173C8.27587 46.0886 7.81271 46.5518 7.24139 46.5518Z" fill="#65DDB9"/>
<path fill-rule="evenodd" clip-rule="evenodd" d="M7.24139 50.6897H4.13794C3.56661 50.6897 3.10345 50.2265 3.10345 49.6552C3.10345 49.0839 3.56661 48.6207 4.13794 48.6207H7.24139C7.81271 48.6207 8.27587 49.0839 8.27587 49.6552C8.27587 50.2265 7.81271 50.6897 7.24139 50.6897Z" fill="#65DDB9"/>
<path fill-rule="evenodd" clip-rule="evenodd" d="M23.7931 21.7242H11.3793C10.808 21.7242 10.3448 21.261 10.3448 20.6897C10.3448 20.1184 10.808 19.6552 11.3793 19.6552H23.7931C24.3645 19.6552 24.8276 20.1184 24.8276 20.6897C24.8276 21.261 24.3645 21.7242 23.7931 21.7242Z" fill="#65DDB9"/>
<path fill-rule="evenodd" clip-rule="evenodd" d="M21.7242 25.8621H13.4483C12.877 25.8621 12.4138 25.3989 12.4138 24.8276C12.4138 24.2562 12.877 23.7931 13.4483 23.7931H21.7242C22.2955 23.7931 22.7586 24.2562 22.7586 24.8276C22.7586 25.3989 22.2955 25.8621 21.7242 25.8621Z" fill="#65DDB9"/>
<path fill-rule="evenodd" clip-rule="evenodd" d="M23.7931 30H11.3793C10.808 30 10.3448 29.5368 10.3448 28.9655C10.3448 28.3942 10.808 27.931 11.3793 27.931H23.7931C24.3645 27.931 24.8276 28.3942 24.8276 28.9655C24.8276 29.5368 24.3645 30 23.7931 30Z" fill="#65DDB9"/>
<path fill-rule="evenodd" clip-rule="evenodd" d="M21.7242 34.1379H13.4483C12.877 34.1379 12.4138 33.6748 12.4138 33.1035C12.4138 32.5321 12.877 32.069 13.4483 32.069H21.7242C22.2955 32.069 22.7586 32.5321 22.7586 33.1035C22.7586 33.6748 22.2955 34.1379 21.7242 34.1379Z" fill="#65DDB9"/>
<path fill-rule="evenodd" clip-rule="evenodd" d="M23.7931 38.2759H11.3793C10.808 38.2759 10.3448 37.8127 10.3448 37.2414C10.3448 36.6701 10.808 36.2069 11.3793 36.2069H23.7931C24.3645 36.2069 24.8276 36.6701 24.8276 37.2414C24.8276 37.8127 24.3645 38.2759 23.7931 38.2759Z" fill="#65DDB9"/>
<path fill-rule="evenodd" clip-rule="evenodd" d="M21.7242 42.4138H13.4483C12.877 42.4138 12.4138 41.9507 12.4138 41.3793C12.4138 40.808 12.877 40.3448 13.4483 40.3448H21.7242C22.2955 40.3448 22.7586 40.808 22.7586 41.3793C22.7586 41.9507 22.2955 42.4138 21.7242 42.4138Z" fill="#65DDB9"/>
<path fill-rule="evenodd" clip-rule="evenodd" d="M23.7931 46.5518H11.3793C10.808 46.5518 10.3448 46.0886 10.3448 45.5173C10.3448 44.9459 10.808 44.4828 11.3793 44.4828H23.7931C24.3645 44.4828 24.8276 44.9459 24.8276 45.5173C24.8276 46.0886 24.3645 46.5518 23.7931 46.5518Z" fill="#65DDB9"/>
<path fill-rule="evenodd" clip-rule="evenodd" d="M21.7242 50.6897H13.4483C12.877 50.6897 12.4138 50.2265 12.4138 49.6552C12.4138 49.0839 12.877 48.6207 13.4483 48.6207H21.7242C22.2955 48.6207 22.7586 49.0839 22.7586 49.6552C22.7586 50.2265 22.2955 50.6897 21.7242 50.6897Z" fill="#65DDB9"/>
<path fill-rule="evenodd" clip-rule="evenodd" d="M50.6896 9.31035H41.8965C41.3252 9.31035 40.8621 8.84719 40.8621 8.27586C40.8621 7.70454 41.3252 7.24138 41.8965 7.24138H50.6896C51.261 7.24138 51.7241 6.77823 51.7241 6.2069V2.06897C51.7241 1.49764 52.1873 1.03448 52.7586 1.03448C53.3299 1.03448 53.7931 1.49764 53.7931 2.06897V6.2069C53.7931 7.92089 52.4036 9.31035 50.6896 9.31035Z" fill="#3B97D3"/>
<path fill-rule="evenodd" clip-rule="evenodd" d="M52.7586 59.4827C52.1873 59.4827 51.7241 59.0196 51.7241 58.4483V53.7931C51.7241 53.2218 51.261 52.7586 50.6897 52.7586H44.4828C43.9114 52.7586 43.4483 52.2954 43.4483 51.7241C43.4483 51.1528 43.9114 50.6896 44.4828 50.6896H50.6897C52.4036 50.6896 53.7931 52.0791 53.7931 53.7931V58.4483C53.7931 58.7226 53.6841 58.9857 53.4901 59.1797C53.2961 59.3738 53.033 59.4827 52.7586 59.4827Z" fill="#3B97D3"/>
<path fill-rule="evenodd" clip-rule="evenodd" d="M57.931 53.7931C57.3597 53.7931 56.8966 53.33 56.8966 52.7587V49.6552C56.8966 49.0839 56.4334 48.6207 55.8621 48.6207H48.6207C48.0494 48.6207 47.5862 48.1576 47.5862 47.5862C47.5862 47.0149 48.0494 46.5518 48.6207 46.5518H55.8621C57.5761 46.5518 58.9655 47.9412 58.9655 49.6552V52.7587C58.9655 53.33 58.5024 53.7931 57.931 53.7931Z" fill="#3B97D3"/>
<path fill-rule="evenodd" clip-rule="evenodd" d="M55.8621 13.4483H45.2069C44.6356 13.4483 44.1724 12.9851 44.1724 12.4138C44.1724 11.8425 44.6356 11.3793 45.2069 11.3793H55.8621C56.4334 11.3793 56.8966 10.9162 56.8966 10.3448V6.67242C56.8966 6.10109 57.3597 5.63794 57.931 5.63794C58.5024 5.63794 58.9655 6.10109 58.9655 6.67242V10.3448C58.9655 12.0588 57.5761 13.4483 55.8621 13.4483Z" fill="#3B97D3"/>
<path fill-rule="evenodd" clip-rule="evenodd" d="M55.169 35.8862C55.6255 36.6865 55.8644 37.5924 55.8621 38.5138C55.8607 41.3381 53.682 43.6836 50.8655 43.8931C51.3104 44.7345 51.5413 45.6724 51.5379 46.6241C51.5396 48.2022 50.9134 49.7162 49.7975 50.832C48.6817 51.9479 47.1677 52.5741 45.5897 52.5724C44.2941 55.6589 41.0029 57.405 37.7208 56.747C34.4387 56.0891 32.0748 53.2095 32.069 49.8621V8.22415C32.069 8.22415 32.069 0.341389 42.3414 6.67242C43.1793 7.18966 44.0897 7.80001 45.0724 8.52415L45.0828 8.53449C45.1259 8.54728 45.1675 8.56462 45.2069 8.58622C47.0683 9.30754 48.2936 11.1003 48.2897 13.0966C48.2896 13.2832 48.2793 13.4697 48.2586 13.6552C48.1689 14.4113 47.907 15.1368 47.4931 15.7759C47.4828 15.7862 47.4828 15.7966 47.4724 15.8069C50.953 15.9463 53.7022 18.8097 53.7 22.2931C53.7007 22.8806 53.6206 23.4654 53.4621 24.031C54.9234 25.3114 55.7901 27.1391 55.8567 29.0808C55.9233 31.0225 55.1839 32.9053 53.8138 34.2828L53.8345 34.3035C54.3862 34.7307 54.8411 35.2702 55.169 35.8862Z" fill="#FF5364"/>
<path fill-rule="evenodd" clip-rule="evenodd" d="M48.2586 13.6552C48.1689 14.4113 47.907 15.1367 47.4931 15.7758C44.2138 16.1974 41.7565 18.9868 41.7517 22.2931C41.7517 22.8644 41.2886 23.3276 40.7173 23.3276C40.1459 23.3276 39.6828 22.8644 39.6828 22.2931C39.6877 17.5487 43.5144 13.6943 48.2586 13.6552Z" fill="#DF4D60"/>
<path fill-rule="evenodd" clip-rule="evenodd" d="M55.169 35.8862C53.359 37.3017 51.1253 38.0669 48.8276 38.0586C48.2562 38.0586 47.7931 37.5955 47.7931 37.0242C47.7931 36.4528 48.2562 35.9897 48.8276 35.9897C50.637 35.9965 52.3978 35.4035 53.8345 34.3035C54.3862 34.7308 54.8411 35.2702 55.169 35.8862Z" fill="#DF4D60"/>
<path fill-rule="evenodd" clip-rule="evenodd" d="M45.2069 8.58622C44.8811 8.5115 44.548 8.47333 44.2138 8.47242C41.6611 8.47527 39.5925 10.5439 39.5897 13.0966C39.5897 13.6679 39.1265 14.131 38.5552 14.131C37.9838 14.131 37.5207 13.6679 37.5207 13.0966C37.5225 10.1222 39.4861 7.5055 42.3414 6.67242C43.1793 7.18967 44.0897 7.80001 45.0724 8.52415L45.0828 8.53449C45.1259 8.54728 45.1675 8.56462 45.2069 8.58622Z" fill="#DF4D60"/>
<path fill-rule="evenodd" clip-rule="evenodd" d="M47.101 34.1027C47.1388 34.1069 47.1768 34.109 47.2148 34.109C47.7637 34.1077 48.216 33.678 48.2454 33.1299C48.2748 32.5818 47.8711 32.1062 47.3255 32.0462C45.8989 31.8816 44.683 30.9357 44.1724 29.5934C47.818 28.7405 50.3979 25.4919 50.4031 21.7479C50.4031 21.1766 49.94 20.7134 49.3686 20.7134C48.7973 20.7134 48.3341 21.1766 48.3341 21.7479C48.3306 24.1712 46.8698 26.3545 44.6311 27.2821C42.3924 28.2098 39.8155 27.6998 38.099 25.9893C37.6931 25.5973 37.0479 25.6029 36.6488 26.0019C36.2498 26.4009 36.2442 27.0462 36.6362 27.4521C38.0774 28.8971 40.016 29.7371 42.0559 29.8003C42.705 32.1278 44.7003 33.8294 47.101 34.1027Z" fill="#DF4D60"/>
<path fill-rule="evenodd" clip-rule="evenodd" d="M47.2097 43.9655C46.8285 43.9683 46.4481 44.0001 46.0717 44.0607C46.0717 44.0131 46.08 43.9665 46.08 43.9189C46.076 39.7657 42.7105 36.3997 38.5572 36.3951C37.9859 36.3951 37.5228 36.8583 37.5228 37.4296C37.5228 38.001 37.9859 38.4641 38.5572 38.4641C41.5683 38.4675 44.0082 40.9079 44.011 43.9189C44.0088 44.1878 43.9863 44.4562 43.9438 44.7217C41.3444 45.9747 39.6904 48.6037 39.6859 51.4893C39.6859 52.0606 40.149 52.5238 40.7204 52.5238C41.2917 52.5238 41.7548 52.0606 41.7548 51.4893C41.7577 48.4778 44.1982 46.0373 47.2097 46.0345C47.781 46.0345 48.2441 45.5713 48.2441 45C48.2441 44.4286 47.781 43.9655 47.2097 43.9655Z" fill="#DF4D60"/>
<path fill-rule="evenodd" clip-rule="evenodd" d="M35.3172 21.2069C35.3172 21.7783 34.8541 22.2414 34.2828 22.2414C33.0606 22.2425 32.0701 23.233 32.069 24.4552V20.8035C32.7328 20.3889 33.5001 20.1702 34.2828 20.1724C34.8541 20.1724 35.3172 20.6356 35.3172 21.2069Z" fill="#DF4D60"/>
<path fill-rule="evenodd" clip-rule="evenodd" d="M39.1035 42.838C39.1035 43.4093 38.6403 43.8724 38.069 43.8724C34.7593 43.8724 32.0747 46.5524 32.069 49.8621V44.4931C33.5915 42.7787 35.7761 41.7995 38.069 41.8035C38.6403 41.8035 39.1035 42.2666 39.1035 42.838Z" fill="#DF4D60"/>
<path d="M52.7586 4.13793C53.9013 4.13793 54.8276 3.21162 54.8276 2.06897C54.8276 0.926307 53.9013 0 52.7586 0C51.6159 0 50.6896 0.926307 50.6896 2.06897C50.6896 3.21162 51.6159 4.13793 52.7586 4.13793Z" fill="#F0C419"/>
<path d="M57.931 9.31036C59.0737 9.31036 60 8.38405 60 7.24139C60 6.09873 59.0737 5.17242 57.931 5.17242C56.7884 5.17242 55.8621 6.09873 55.8621 7.24139C55.8621 8.38405 56.7884 9.31036 57.931 9.31036Z" fill="#F0C419"/>
<path d="M52.7586 60C53.9013 60 54.8276 59.0737 54.8276 57.931C54.8276 56.7884 53.9013 55.8621 52.7586 55.8621C51.6159 55.8621 50.6896 56.7884 50.6896 57.931C50.6896 59.0737 51.6159 60 52.7586 60Z" fill="#F0C419"/>
<path d="M57.931 54.8276C59.0737 54.8276 60 53.9013 60 52.7586C60 51.6159 59.0737 50.6896 57.931 50.6896C56.7884 50.6896 55.8621 51.6159 55.8621 52.7586C55.8621 53.9013 56.7884 54.8276 57.931 54.8276Z" fill="#F0C419"/>
</g>
<defs>
<clipPath id="clip0_562_3902">
<rect width="60" height="60" fill="white"/>
</clipPath>
</defs>
</svg>
