<svg width="60" height="60" viewBox="0 0 60 60" fill="none" xmlns="http://www.w3.org/2000/svg">
<g clip-path="url(#clip0_562_3993)">
<path fill-rule="evenodd" clip-rule="evenodd" d="M21.4836 28.2492C26.154 28.3644 30.1464 30.1584 31.8756 33.6852C34.2396 38.508 36.4572 43.518 38.7228 48.3996C40.566 52.3716 34.5612 55.158 32.718 51.186C30.5412 46.494 28.362 41.8044 26.1744 37.1172V51.8472V54.024C26.1744 55.6464 24.8508 56.9712 23.2272 56.9712H9.58561C7.96321 56.9712 6.63841 55.6476 6.63841 54.024V51.8472H2.31361C1.04281 51.8472 0.00601212 50.814 0.00241212 49.5432C-0.00838788 45.8796 0.0180121 40.2828 0.0180121 37.9032C0.0180121 31.5864 5.05081 28.4136 11.304 28.2504L11.2992 28.2432L13.026 22.3128L20.22 22.068L21.4884 28.2432L21.4836 28.2492Z" fill="#07A0B6"/>
<path fill-rule="evenodd" clip-rule="evenodd" d="M21.4836 28.2492C26.154 28.3644 30.1464 30.1584 31.8756 33.6852C34.2396 38.508 36.4572 43.518 38.7228 48.3996C39.18 49.386 39.1536 50.2992 38.8272 51.054C37.3056 51.8712 35.2092 51.6396 34.2468 49.566C32.07 44.874 29.8908 40.1844 27.7032 35.4972V40.3992C27.1932 39.3048 26.6832 38.2116 26.1732 37.1172V51.8472V54.024C26.1732 54.3984 26.1024 54.756 25.974 55.086C25.602 55.2552 25.1904 55.35 24.756 55.35H11.1156C9.49321 55.35 8.16841 54.0264 8.16841 52.4028V52.0932V50.226V37.1904C8.16841 36.726 7.79281 36.3504 7.32841 36.3504C6.86401 36.3504 6.48841 36.726 6.48841 37.1904V50.226H3.84361C2.57281 50.226 1.53601 49.1928 1.53241 47.922C1.52161 44.2584 1.54801 38.6616 1.54801 36.282C1.54801 34.1136 2.14081 32.3172 3.17281 30.8844C5.15161 29.2644 7.90441 28.3944 10.9716 28.2612C11.4384 28.2408 11.8992 28.2468 12.3828 28.2336L12.378 28.2264L14.094 22.2756L20.22 22.0668L21.4884 28.242L21.4836 28.2492Z" fill="#00B2CA"/>
<path fill-rule="evenodd" clip-rule="evenodd" d="M16.38 3.30359C19.026 3.30359 19.2384 4.78679 24.5256 3.14759C26.1336 2.64959 27.3768 5.18159 26.634 8.81159C26.0856 11.4912 26.4756 14.5104 26.4756 15.8508C26.4756 21.426 21.7956 25.818 17.2524 25.8828C12.7092 25.9476 7.2516 23.88 6.2844 15.8508C5.316 7.82279 10.8036 3.30359 16.38 3.30359Z" fill="#E2BC92"/>
<path fill-rule="evenodd" clip-rule="evenodd" d="M16.38 3.30359C19.026 3.30359 19.2384 4.78679 24.5256 3.14759C26.1336 2.64959 27.3768 5.18159 26.634 8.81159C26.0856 11.4912 26.4756 14.5104 26.4756 15.8508C26.4756 19.3728 24.6084 22.422 22.0872 24.2064C21.0924 24.636 20.046 24.8772 19.008 24.8916C14.4648 24.9564 9.0072 22.8888 8.04 14.8596C7.4352 9.84839 9.3468 6.20519 12.2244 4.17359C13.5324 3.59999 14.9532 3.30359 16.38 3.30359Z" fill="#FAD1A3"/>
<path fill-rule="evenodd" clip-rule="evenodd" d="M10.6644 28.788C10.3668 28.4352 10.4124 27.9072 10.7664 27.6096C11.1192 27.312 11.6472 27.3576 11.9448 27.7116L15.5376 31.9836C15.8352 32.3364 15.7896 32.8644 15.4356 33.162C15.0828 33.4596 14.5548 33.414 14.2572 33.06L10.6644 28.788Z" fill="#C1D6DF"/>
<path fill-rule="evenodd" clip-rule="evenodd" d="M20.9928 27.5148C21.2904 27.162 21.8172 27.1164 22.1712 27.4128C22.524 27.7104 22.5696 28.2372 22.2732 28.5912L18.6804 32.8632C18.3828 33.216 17.856 33.2616 17.502 32.9652C17.1492 32.6676 17.1036 32.1408 17.4 31.7868L20.9928 27.5148Z" fill="#C1D6DF"/>
<path fill-rule="evenodd" clip-rule="evenodd" d="M15.0276 32.3256L12.8484 35.58L14.6796 36.7296L13.0128 46.6656L16.4052 51.2928L20.0532 46.6548L18.3888 36.7296L20.22 35.58L18.0408 32.3256H15.0276Z" fill="#E5A624"/>
<path fill-rule="evenodd" clip-rule="evenodd" d="M17.3868 50.046L20.0532 46.656L18.3888 36.7296C18.9996 36.3468 19.6092 35.964 20.22 35.5812L18.0408 32.3268H15.5352L14.0184 34.5912L15.8496 35.7396L14.184 45.6756L17.3868 50.046Z" fill="#FDB714"/>
<path fill-rule="evenodd" clip-rule="evenodd" d="M16.3704 3.2472C10.8984 3.2472 5.5092 7.6032 6.234 15.3588C10.116 14.856 12.7092 12.462 13.1328 9.5352C16.1136 10.7052 22.4808 12.1872 26.4204 10.0788C26.466 9.6336 26.5296 9.18961 26.6196 8.75281C27.3624 5.12401 26.1192 2.5944 24.5124 3.0912C19.2276 4.7292 19.0152 3.2472 16.3704 3.2472Z" fill="#7889A4"/>
<path fill-rule="evenodd" clip-rule="evenodd" d="M36.5088 50.484H23.5308V31.2888H39.2088C40.1244 31.2888 40.992 31.5 41.766 31.8768C42.5388 31.5 43.4064 31.2888 44.3232 31.2888H60V50.484H47.022C45.9456 50.484 46.1448 52.4376 45.0684 52.4376H38.4624C37.386 52.4376 37.5852 50.484 36.5088 50.484Z" fill="#D1C4A0"/>
<path fill-rule="evenodd" clip-rule="evenodd" d="M37.2648 50.1168C36.9768 49.5492 36.7956 48.8184 36.138 48.8184H23.5308V31.2888H39.2088C40.1244 31.2888 40.992 31.5 41.766 31.8768C42.5388 31.5 43.4064 31.2888 44.3232 31.2888H58.5156V48.8196H45.5376C44.4612 48.8196 44.6604 50.7732 43.584 50.7732H38.6796C38.2104 50.7732 37.494 50.5692 37.2648 50.1168Z" fill="#E8DAB2"/>
<path fill-rule="evenodd" clip-rule="evenodd" d="M39.2088 29.1816H26.8344V47.1816H39.2088C40.1928 47.1816 41.3436 47.8332 41.766 49.0476C42.1884 47.8332 43.338 47.1816 44.3232 47.1816H56.6976V29.1816H44.322C42.9156 29.1816 41.7648 30.3324 41.7648 31.7388C41.766 30.3324 40.6152 29.1816 39.2088 29.1816Z" fill="#CFD0D0"/>
<path fill-rule="evenodd" clip-rule="evenodd" d="M39.2088 29.1816H26.8344V45.606H37.5888C38.5392 45.606 39.6444 45.6516 40.0992 46.7856C40.1256 46.7952 40.1532 46.806 40.1796 46.8168C40.626 45.6612 41.7432 45.6048 42.702 45.6048H55.0764V29.1816H44.322C42.9156 29.1816 41.7648 30.3324 41.7648 31.7388C41.7648 30.7068 41.1444 29.8128 40.2588 29.4096C40.1844 29.6484 40.1448 29.9016 40.1448 30.1644C40.1448 29.8644 40.092 29.5764 39.996 29.3076C39.7488 29.2248 39.4836 29.1816 39.2088 29.1816Z" fill="#E6E6E5"/>
<path fill-rule="evenodd" clip-rule="evenodd" d="M41.9592 14.8044C46.1124 14.8044 49.4796 18.1716 49.4796 22.3236C49.4796 25.1736 47.532 27.6252 45.9792 29.8656H37.9692C36.408 27.6132 34.44 25.194 34.44 22.3236C34.44 18.1716 37.8072 14.8044 41.9592 14.8044Z" fill="#E3A037"/>
<path fill-rule="evenodd" clip-rule="evenodd" d="M44.3592 29.8668H37.9692C36.408 27.6132 34.44 25.194 34.44 22.3236C34.44 18.444 37.3776 15.2508 41.1492 14.8476C44.9208 15.252 47.8596 18.444 47.8596 22.3236C47.8596 25.1736 45.912 27.6252 44.3592 29.8668Z" fill="#FCB13C"/>
<path fill-rule="evenodd" clip-rule="evenodd" d="M40.9284 7.92118C40.9284 7.45918 41.3028 7.08478 41.7648 7.08478C42.2268 7.08478 42.6012 7.45918 42.6012 7.92118V10.8612C42.6012 11.3232 42.2268 11.6976 41.7648 11.6976C41.3028 11.6976 40.9284 11.3232 40.9284 10.8612V7.92118ZM28.0548 22.4688C27.5928 22.4688 27.2184 22.0944 27.2184 21.6324C27.2184 21.1704 27.5928 20.796 28.0548 20.796H30.9948C31.4568 20.796 31.8312 21.1704 31.8312 21.6324C31.8312 22.0944 31.4568 22.4688 30.9948 22.4688H28.0548ZM31.476 12.5316C31.1484 12.204 31.1484 11.6712 31.476 11.3436C31.8036 11.016 32.3364 11.016 32.664 11.3436L34.7424 13.422C35.07 13.7496 35.07 14.2824 34.7424 14.61C34.4148 14.9376 33.882 14.9376 33.5544 14.61L31.476 12.5316ZM55.476 20.7924C55.9404 20.7924 56.316 21.168 56.316 21.6324C56.316 22.0968 55.9404 22.4724 55.476 22.4724H52.536C52.0716 22.4724 51.696 22.0968 51.696 21.6324C51.696 21.168 52.0716 20.7924 52.536 20.7924H55.476ZM50.8668 11.3436C51.1944 11.016 51.7272 11.016 52.0548 11.3436C52.3824 11.6712 52.3824 12.204 52.0548 12.5316L49.9764 14.61C49.6488 14.9376 49.116 14.9376 48.7884 14.61C48.4608 14.2824 48.4608 13.7496 48.7884 13.422L50.8668 11.3436Z" fill="#FDB714"/>
<path fill-rule="evenodd" clip-rule="evenodd" d="M37.584 29.8668H46.3368C47.9208 29.8668 47.9208 33.8532 46.3368 33.8532H45.6528L44.8104 36.1416C44.4648 37.08 43.9332 37.5972 43.3152 37.5972H40.6068C39.9888 37.5972 39.456 37.08 39.1116 36.1416L38.2692 33.8532H37.5852C36 33.852 36 29.8668 37.584 29.8668Z" fill="#686969"/>
<path fill-rule="evenodd" clip-rule="evenodd" d="M37.584 29.8668H46.3368C46.4484 29.8668 46.5516 29.8872 46.6476 29.9244C47.004 31.1052 46.6536 32.886 45.5952 32.886H44.9112L44.0688 35.1744C43.7232 36.1128 43.1916 36.63 42.5736 36.63H39.8652C39.6396 36.63 39.4272 36.5616 39.2292 36.4296C39.1884 36.3384 39.1488 36.2436 39.1116 36.1428L37.9128 32.8872C37.5564 32.8872 37.2 32.8872 36.8424 32.8872C36.7308 32.8872 36.6276 32.8668 36.5316 32.8296C36.174 31.6464 36.5256 29.8668 37.584 29.8668Z" fill="#818181"/>
<path fill-rule="evenodd" clip-rule="evenodd" d="M30.4116 43.4255C29.9472 43.4255 29.5716 43.0499 29.5716 42.5855C29.5716 42.1211 29.9472 41.7455 30.4116 41.7455H34.4688C34.9332 41.7455 35.3088 42.1211 35.3088 42.5855C35.3088 43.0499 34.9332 43.4255 34.4688 43.4255H30.4116Z" fill="#818181"/>
<path fill-rule="evenodd" clip-rule="evenodd" d="M30.4116 39.6168C29.9472 39.6168 29.5716 39.2412 29.5716 38.7768C29.5716 38.3124 29.9472 37.9368 30.4116 37.9368H33.6684C34.1328 37.9368 34.5084 38.3124 34.5084 38.7768C34.5084 39.2412 34.1328 39.6168 33.6684 39.6168H30.4116Z" fill="#818181"/>
<path fill-rule="evenodd" clip-rule="evenodd" d="M52.9776 41.7455C53.442 41.7455 53.8176 42.1211 53.8176 42.5855C53.8176 43.0499 53.442 43.4255 52.9776 43.4255H48.9204C48.456 43.4255 48.0804 43.0499 48.0804 42.5855C48.0804 42.1211 48.456 41.7455 48.9204 41.7455H52.9776Z" fill="#818181"/>
<path fill-rule="evenodd" clip-rule="evenodd" d="M52.9776 37.9368C53.442 37.9368 53.8176 38.3124 53.8176 38.7768C53.8176 39.2412 53.442 39.6168 52.9776 39.6168H49.7208C49.2564 39.6168 48.8808 39.2412 48.8808 38.7768C48.8808 38.3124 49.2564 37.9368 49.7208 37.9368H52.9776Z" fill="#818181"/>
</g>
<defs>
<clipPath id="clip0_562_3993">
<rect width="60" height="60" fill="white"/>
</clipPath>
</defs>
</svg>
