<svg width="60" height="60" viewBox="0 0 60 60" fill="none" xmlns="http://www.w3.org/2000/svg">
<g id="fi_10473357" clip-path="url(#clip0_549_4470)">
<g id="Group">
<g id="Group_2">
<path id="Vector" d="M52.9627 29.3848C52.9459 29.4212 52.9289 29.4575 52.9118 29.4939C52.244 30.9148 50.1079 30.3506 50.2395 28.7862C50.48 25.9269 50.1263 22.9715 49.0961 20.0936C45.7521 10.7521 34.5245 0.115553 24.5821 0.000123206C23.5204 -0.0121815 22.9108 1.20329 23.5374 2.0604C24.3728 3.20298 25.0512 4.49098 25.5316 5.9038C27.1082 10.5415 26.1377 15.4791 23.3615 19.1475C22.2042 20.6768 19.7468 19.9215 19.7063 18.0041C19.706 17.9903 19.7057 17.9763 19.7055 17.9624C19.6892 16.9459 19.856 15.97 20.1759 15.0661C20.317 14.6675 19.9475 14.2753 19.5427 14.3973C13.9064 16.0962 9.62046 24.3902 9.62046 30.3062C9.62046 30.7383 9.64449 31.1647 9.68913 31.585C9.69464 32.3707 9.82742 33.1699 10.105 33.9559C10.115 33.9841 10.1251 34.0123 10.1352 34.0405C10.2216 34.282 10.3135 34.5202 10.408 34.7564C9.07308 33.1246 7.93753 31.3232 7.03941 29.3891C6.6221 28.4905 5.30128 28.6689 5.1391 29.6463C4.85011 31.387 4.69882 33.0849 4.69882 34.6989C4.69882 48.6723 16.0265 60 30 60C43.9734 60 55.3011 48.6723 55.3011 34.6989C55.3011 33.0847 55.1498 31.3868 54.8607 29.6459C54.6989 28.6707 53.3789 28.4881 52.9627 29.3848Z" fill="url(#paint0_linear_549_4470)"/>
<path id="Vector_2" d="M9.62062 30.3062C9.62062 30.7383 9.64464 31.1647 9.68929 31.585C9.69479 32.3707 9.82757 33.1698 10.1052 33.9559C10.1151 33.9842 10.1252 34.0123 10.1353 34.0404C10.2218 34.2819 10.3137 34.5201 10.4081 34.7563C9.07323 33.1245 7.93769 31.3231 7.03956 29.389C6.62226 28.4904 5.30144 28.6688 5.13925 29.6462C4.85026 31.3869 4.69897 33.0847 4.69897 34.6988C4.69886 48.6723 16.0266 60 30 60C43.9734 60 55.3011 48.6723 55.3011 34.6989C55.3011 33.0847 55.1498 31.3868 54.8607 29.6459C54.6988 28.6708 53.3788 28.4881 52.9626 29.3848C52.9458 29.4212 52.9288 29.4576 52.9117 29.4939C52.2439 30.9148 50.1078 30.3506 50.2394 28.7862C50.2951 28.1243 50.3174 27.4572 50.3083 26.7872H10.0532C9.7712 28.0044 9.62062 29.197 9.62062 30.3062Z" fill="url(#paint1_linear_549_4470)"/>
<path id="Vector_3" d="M9.62062 30.3062C9.62062 30.7383 9.64464 31.1647 9.68929 31.585C9.69479 32.3707 9.82757 33.1698 10.1052 33.9559C10.1151 33.9842 10.1252 34.0123 10.1353 34.0404C10.2218 34.2819 10.3137 34.5201 10.4081 34.7563C9.07323 33.1245 7.93769 31.3231 7.03956 29.389C6.62226 28.4904 5.30144 28.6688 5.13925 29.6462C4.85026 31.3869 4.69897 33.0847 4.69897 34.6988C4.69886 48.6723 16.0266 60 30 60C43.9734 60 55.3011 48.6723 55.3011 34.6989C55.3011 33.0847 55.1498 31.3868 54.8607 29.6459C54.6988 28.6708 53.3788 28.4881 52.9626 29.3848C52.9458 29.4212 52.9288 29.4576 52.9117 29.4939C52.2439 30.9148 50.1078 30.3506 50.2394 28.7862C50.2951 28.1243 50.3174 27.4572 50.3083 26.7872H10.0532C9.7712 28.0044 9.62062 29.197 9.62062 30.3062Z" fill="url(#paint2_linear_549_4470)"/>
<path id="Vector_4" d="M55.3011 34.6989C55.3011 33.0847 55.1498 31.3868 54.8607 29.6459C54.6988 28.6707 53.3788 28.4881 52.9626 29.3848C52.9458 29.4212 52.9288 29.4575 52.9117 29.4939C52.2439 30.9148 50.1078 30.3506 50.2394 28.7862C50.4799 25.9269 50.1262 22.9715 49.096 20.0936C45.7521 10.7521 34.5245 0.115553 24.5822 0.000123206C23.5205 -0.0121815 22.9108 1.20329 23.5374 2.06051C24.3729 3.20309 25.0513 4.4911 25.5316 5.90391C27.1083 10.5416 26.1377 15.4792 23.3616 19.1476C22.7852 19.9091 21.8866 20.1039 21.1246 19.871V58.3978C23.8864 59.4327 26.8768 60 30 60C43.9734 60 55.3011 48.6723 55.3011 34.6989Z" fill="url(#paint3_linear_549_4470)"/>
</g>
<path id="Vector_5" d="M53.373 44.3999L36.9253 27.9521L20.1376 52.0874L27.969 59.9188C28.6391 59.972 29.3162 60 30 60C40.5364 60 49.5673 53.5588 53.373 44.3999Z" fill="url(#paint4_linear_549_4470)"/>
<g id="Group_3">
<path id="Vector_6" d="M42.818 39.013C42.8085 39.0334 42.7991 39.0537 42.7895 39.074C42.4168 39.8671 41.2244 39.5522 41.2978 38.6789C41.432 37.0828 41.2346 35.4332 40.6595 33.8266C38.7928 28.6122 32.5255 22.6747 26.9756 22.6103C26.3829 22.6034 26.0427 23.2819 26.3925 23.7604C26.8588 24.3982 27.2375 25.1172 27.5057 25.9058C28.3857 28.4946 27.844 31.2509 26.2943 33.2986C25.6482 34.1523 24.2766 33.7307 24.2539 32.6603C24.2538 32.6525 24.2536 32.6448 24.2535 32.637C24.2443 32.0695 24.3375 31.5247 24.5161 31.0202C24.5948 30.7978 24.3886 30.5788 24.1627 30.6469C21.0164 31.5953 18.624 36.225 18.624 39.5274C18.624 39.7685 18.6375 40.0065 18.6623 40.2411C18.6654 40.6798 18.7396 41.1258 18.8945 41.5645C18.9001 41.5802 18.9056 41.5961 18.9112 41.6118C18.9595 41.7467 19.0109 41.8794 19.0635 42.0114C18.3183 41.1005 17.6845 40.0949 17.1831 39.0154C16.9501 38.5137 16.2129 38.6134 16.1223 39.1589C15.9609 40.1306 15.8766 41.0783 15.8766 41.9793C15.8766 49.7794 22.1998 56.1026 29.9999 56.1026C37.8 56.1026 44.1232 49.7794 44.1232 41.9793C44.1232 41.0782 44.0387 40.1304 43.8773 39.1587C43.7871 38.6145 43.0502 38.5125 42.818 39.013Z" fill="url(#paint5_linear_549_4470)"/>
<path id="Vector_7" d="M44.1233 41.9794C44.1233 41.0783 44.0388 40.1305 43.8775 39.1588C43.7871 38.6145 43.0502 38.5125 42.818 39.013C42.8085 39.0334 42.7991 39.0537 42.7895 39.074C42.4168 39.8671 41.2244 39.5522 41.2978 38.6789C41.432 37.0828 41.2346 35.4332 40.6595 33.8266C38.7928 28.6122 32.5255 22.6747 26.9756 22.6103C26.3829 22.6034 26.0427 23.2819 26.3925 23.7604C26.8588 24.3982 27.2375 25.1172 27.5057 25.9058C28.3857 28.4946 27.844 31.2509 26.2943 33.2986C25.9726 33.7236 25.471 33.8324 25.0457 33.7024V55.2083C26.5874 55.7859 28.2566 56.1027 30 56.1027C37.8001 56.1027 44.1233 49.7794 44.1233 41.9794Z" fill="url(#paint6_linear_549_4470)"/>
<path id="Vector_8" d="M18.624 39.5274C18.624 39.7685 18.6375 40.0065 18.6623 40.2411C18.6654 40.6798 18.7396 41.1258 18.8945 41.5645C18.9001 41.5802 18.9056 41.5961 18.9112 41.6118C18.9595 41.7467 19.0109 41.8794 19.0635 42.0114C18.3183 41.1005 17.6845 40.0949 17.1831 39.0154C16.9501 38.5137 16.2129 38.6134 16.1223 39.1589C15.9609 40.1306 15.8766 41.0783 15.8766 41.9793C15.8766 49.7794 22.1998 56.1026 29.9999 56.1026C37.8 56.1026 44.1232 49.7794 44.1232 41.9793C44.1232 41.0782 44.0387 40.1304 43.8773 39.1587C43.787 38.6143 43.0501 38.5124 42.8178 39.0129C42.8084 39.0333 42.799 39.0536 42.7894 39.0738C42.4167 39.867 41.2243 39.5521 41.2977 38.6788C41.3287 38.3093 41.3412 37.937 41.3361 37.5629H18.8655C18.7082 38.2425 18.624 38.9083 18.624 39.5274Z" fill="url(#paint7_linear_549_4470)"/>
<path id="Vector_9" d="M18.624 39.5274C18.624 39.7685 18.6375 40.0065 18.6623 40.2411C18.6654 40.6798 18.7396 41.1258 18.8945 41.5645C18.9001 41.5802 18.9056 41.5961 18.9112 41.6118C18.9595 41.7467 19.0109 41.8794 19.0635 42.0114C18.3183 41.1005 17.6845 40.0949 17.1831 39.0154C16.9501 38.5137 16.2129 38.6134 16.1223 39.1589C15.9609 40.1306 15.8766 41.0783 15.8766 41.9793C15.8766 49.7794 22.1998 56.1026 29.9999 56.1026C37.8 56.1026 44.1232 49.7794 44.1232 41.9793C44.1232 41.0782 44.0387 40.1304 43.8773 39.1587C43.787 38.6143 43.0501 38.5124 42.8178 39.0129C42.8084 39.0333 42.799 39.0536 42.7894 39.0738C42.4167 39.867 41.2243 39.5521 41.2977 38.6788C41.3287 38.3093 41.3412 37.937 41.3361 37.5629H18.8655C18.7082 38.2425 18.624 38.9083 18.624 39.5274Z" fill="url(#paint8_linear_549_4470)"/>
</g>
<g id="Group_4">
<path id="Vector_10" d="M7.40366 21.0145C9.25488 21.3942 10.73 19.4904 9.99105 17.7511C9.43874 16.4513 9.52546 14.9084 10.3585 13.639C10.36 13.6369 10.3614 13.6348 10.3626 13.6327C10.5732 13.313 10.4051 12.8827 10.0316 12.7985C8.30589 12.4098 6.44402 13.0984 5.41605 14.6646C4.09136 16.683 4.65374 19.3932 6.67218 20.718C6.89823 20.8662 7.14491 20.9614 7.40366 21.0145Z" fill="url(#paint9_linear_549_4470)"/>
<path id="Vector_11" d="M7.40366 21.0145C9.25488 21.3942 10.73 19.4904 9.99105 17.7511C9.43874 16.4513 9.52546 14.9084 10.3585 13.639C10.36 13.6369 10.3614 13.6348 10.3626 13.6327C10.5732 13.313 10.4051 12.8827 10.0316 12.7985C8.30589 12.4098 6.44402 13.0984 5.41605 14.6646C4.09136 16.683 4.65374 19.3932 6.67218 20.718C6.89823 20.8662 7.14491 20.9614 7.40366 21.0145Z" fill="url(#paint10_linear_549_4470)"/>
<path id="Vector_12" d="M7.40366 21.0145C9.25488 21.3942 10.73 19.4904 9.99105 17.7511C9.43874 16.4513 9.52546 14.9084 10.3585 13.639C10.36 13.6369 10.3614 13.6348 10.3626 13.6327C10.5732 13.313 10.4051 12.8827 10.0316 12.7985C8.30589 12.4098 6.44402 13.0984 5.41605 14.6646C4.09136 16.683 4.65374 19.3932 6.67218 20.718C6.89823 20.8662 7.14491 20.9614 7.40366 21.0145Z" fill="url(#paint11_linear_549_4470)"/>
</g>
</g>
</g>
<defs>
<linearGradient id="paint0_linear_549_4470" x1="16.8909" y1="20.6926" x2="41.6381" y2="45.4398" gradientUnits="userSpaceOnUse">
<stop stop-color="#FFA1AE"/>
<stop offset="1" stop-color="#FF4565"/>
</linearGradient>
<linearGradient id="paint1_linear_549_4470" x1="35.6375" y1="43.6992" x2="44.4092" y2="54.3088" gradientUnits="userSpaceOnUse">
<stop stop-color="#FE0364" stop-opacity="0"/>
<stop offset="0.2343" stop-color="#F90362" stop-opacity="0.234"/>
<stop offset="0.5173" stop-color="#EA035B" stop-opacity="0.517"/>
<stop offset="0.8243" stop-color="#D20250" stop-opacity="0.824"/>
<stop offset="1" stop-color="#C00148"/>
</linearGradient>
<linearGradient id="paint2_linear_549_4470" x1="29.2051" y1="43.2729" x2="27.6179" y2="60.482" gradientUnits="userSpaceOnUse">
<stop stop-color="#FE0364" stop-opacity="0"/>
<stop offset="0.2343" stop-color="#F90362" stop-opacity="0.234"/>
<stop offset="0.5173" stop-color="#EA035B" stop-opacity="0.517"/>
<stop offset="0.8243" stop-color="#D20250" stop-opacity="0.824"/>
<stop offset="1" stop-color="#C00148"/>
</linearGradient>
<linearGradient id="paint3_linear_549_4470" x1="36.2095" y1="27.116" x2="51.915" y2="19.9316" gradientUnits="userSpaceOnUse">
<stop stop-color="#FE0364" stop-opacity="0"/>
<stop offset="0.2343" stop-color="#F90362" stop-opacity="0.234"/>
<stop offset="0.5173" stop-color="#EA035B" stop-opacity="0.517"/>
<stop offset="0.8243" stop-color="#D20250" stop-opacity="0.824"/>
<stop offset="1" stop-color="#C00148"/>
</linearGradient>
<linearGradient id="paint4_linear_549_4470" x1="49.0168" y1="56.1826" x2="29.8028" y2="41.9809" gradientUnits="userSpaceOnUse">
<stop stop-color="#FE0364" stop-opacity="0"/>
<stop offset="0.2343" stop-color="#F90362" stop-opacity="0.234"/>
<stop offset="0.5173" stop-color="#EA035B" stop-opacity="0.517"/>
<stop offset="0.8243" stop-color="#D20250" stop-opacity="0.824"/>
<stop offset="1" stop-color="#C00148"/>
</linearGradient>
<linearGradient id="paint5_linear_549_4470" x1="24.1997" y1="35.0177" x2="35.561" y2="48.2169" gradientUnits="userSpaceOnUse">
<stop stop-color="#FEF0AE"/>
<stop offset="1" stop-color="#FAC600"/>
</linearGradient>
<linearGradient id="paint6_linear_549_4470" x1="36.4346" y1="36.9864" x2="40.2775" y2="35.6497" gradientUnits="userSpaceOnUse">
<stop stop-color="#FE9738" stop-opacity="0"/>
<stop offset="1" stop-color="#FE9738"/>
</linearGradient>
<linearGradient id="paint7_linear_549_4470" x1="26.0783" y1="49.1076" x2="23.238" y2="53.7301" gradientUnits="userSpaceOnUse">
<stop stop-color="#FE9738" stop-opacity="0"/>
<stop offset="1" stop-color="#FE9738"/>
</linearGradient>
<linearGradient id="paint8_linear_549_4470" x1="33.3827" y1="49.5742" x2="35.6105" y2="54.3081" gradientUnits="userSpaceOnUse">
<stop stop-color="#FE9738" stop-opacity="0"/>
<stop offset="1" stop-color="#FE9738"/>
</linearGradient>
<linearGradient id="paint9_linear_549_4470" x1="5.953" y1="14.7261" x2="11.1325" y2="19.0703" gradientUnits="userSpaceOnUse">
<stop stop-color="#FFA1AE"/>
<stop offset="1" stop-color="#FF4565"/>
</linearGradient>
<linearGradient id="paint10_linear_549_4470" x1="7.33277" y1="17.9779" x2="6.16312" y2="21.0271" gradientUnits="userSpaceOnUse">
<stop stop-color="#FE0364" stop-opacity="0"/>
<stop offset="0.2343" stop-color="#F90362" stop-opacity="0.234"/>
<stop offset="0.5173" stop-color="#EA035B" stop-opacity="0.517"/>
<stop offset="0.8243" stop-color="#D20250" stop-opacity="0.824"/>
<stop offset="1" stop-color="#C00148"/>
</linearGradient>
<linearGradient id="paint11_linear_549_4470" x1="7.30277" y1="16.4905" x2="11.1037" y2="17.6183" gradientUnits="userSpaceOnUse">
<stop stop-color="#FE0364" stop-opacity="0"/>
<stop offset="0.2343" stop-color="#F90362" stop-opacity="0.234"/>
<stop offset="0.5173" stop-color="#EA035B" stop-opacity="0.517"/>
<stop offset="0.8243" stop-color="#D20250" stop-opacity="0.824"/>
<stop offset="1" stop-color="#C00148"/>
</linearGradient>
<clipPath id="clip0_549_4470">
<rect width="60" height="60" fill="white"/>
</clipPath>
</defs>
</svg>
