<svg width="52" height="50" viewBox="0 0 52 50" fill="none" xmlns="http://www.w3.org/2000/svg">
<g clip-path="url(#clip0_549_4573)">
<path d="M16.4829 49.1835C15.2889 49.1835 14.1614 48.653 13.3986 47.6911L1.79115 33.2644C1.0283 32.3026 0.729908 31.0757 1.0283 29.8815L5.17388 11.8731C5.43915 10.6791 6.23513 9.71723 7.32971 9.18671L24.111 1.16061C24.6418 0.895548 25.2387 0.762817 25.8357 0.762817C26.4327 0.762817 27.0295 0.895348 27.5602 1.16081L44.3418 9.15358C45.4361 9.6841 46.2321 10.6459 46.4974 11.8399L50.643 29.8484C50.9084 31.0423 50.643 32.2694 49.8803 33.2313L38.2725 47.658C37.5096 48.5865 36.3821 49.1504 35.1881 49.1504L16.4829 49.1835Z" fill="#326DE6"/>
<path d="M25.8022 1.59192C26.2667 1.59192 26.7309 1.69131 27.162 1.89031L43.9436 9.88308C44.8058 10.3142 45.4691 11.1102 45.6681 12.0389L49.8137 30.0473C50.0458 31.0092 49.8137 32.0042 49.1835 32.7668L37.5759 47.1937C36.9789 47.9564 36.0502 48.3875 35.0886 48.3875H16.4829C15.5211 48.3875 14.5926 47.9564 13.9956 47.1937L2.38795 32.7668C1.79096 32.0042 1.55863 31.0092 1.75782 30.0473L5.90341 12.0389C6.13554 11.0771 6.76566 10.2811 7.62791 9.88308L24.4096 1.85738C24.8408 1.69151 25.3381 1.59212 25.8024 1.59212M25.8024 0.0332819C25.106 0.0332819 24.4096 0.199145 23.7462 0.497539L6.96485 8.52364C5.63815 9.15376 4.70963 10.3144 4.3779 11.7405L0.232122 29.7489C-0.0994046 31.175 0.232122 32.6343 1.16084 33.7951L12.7685 48.2218C13.6641 49.3493 15.0237 49.9795 16.4498 49.9795H35.0552C36.4813 49.9795 37.8412 49.3493 38.7365 48.2218L50.3444 33.7949C51.2729 32.6674 51.6046 31.175 51.2729 29.7487L47.1273 11.7403C46.7958 10.3142 45.8671 9.15356 44.5406 8.52344L27.8253 0.497137C27.1952 0.198945 26.4988 0.0330811 25.8022 0.0330811" fill="white"/>
<path d="M42.6169 28.6212C42.5837 28.6212 42.5837 28.6212 42.6169 28.6212H42.5838C42.5506 28.6212 42.5175 28.6212 42.5175 28.5881C42.4512 28.5881 42.385 28.555 42.3185 28.555C42.0864 28.5218 41.8874 28.4887 41.6884 28.4887C41.5888 28.4887 41.4894 28.4887 41.3566 28.4554H41.3235C40.6271 28.3891 40.0633 28.3228 39.5325 28.157C39.3004 28.0574 39.2341 27.9249 39.1677 27.7921C39.1677 27.759 39.1346 27.759 39.1346 27.7259L38.7034 27.5933C38.9073 26.0332 38.8286 24.4491 38.4713 22.9168C38.1094 21.3717 37.4809 19.9015 36.6141 18.5722L36.9458 18.2739V18.2076C36.9458 18.0417 36.9789 17.8759 37.1115 17.71C37.5095 17.3451 38.007 17.0467 38.604 16.6819C38.7034 16.6156 38.8028 16.5825 38.9024 16.516C39.1014 16.4166 39.2673 16.3172 39.4663 16.1845C39.4994 16.1514 39.5657 16.1182 39.6321 16.052C39.6653 16.0186 39.6984 16.0186 39.6984 15.9855C40.1627 15.5875 40.2623 14.9243 39.9305 14.4929C39.7647 14.2608 39.4663 14.1283 39.1677 14.1283C38.9026 14.1283 38.6703 14.2277 38.4382 14.3935L38.3719 14.4598C38.3056 14.4929 38.2723 14.5594 38.206 14.5925C38.0402 14.7584 37.9074 14.8909 37.7749 15.0568C37.7087 15.1231 37.6424 15.2226 37.5428 15.2889C37.0783 15.7865 36.6472 16.1845 36.2161 16.4829C36.1167 16.5492 36.0173 16.5824 35.9177 16.5825C35.8514 16.5825 35.785 16.5825 35.7187 16.5492H35.6524L35.2542 16.8146C34.8231 16.3504 34.3589 15.9524 33.8946 15.5544C31.8955 13.9918 29.4896 13.0363 26.9631 12.8016L26.9299 12.3704L26.8637 12.3042C26.7641 12.2046 26.6315 12.1052 26.5982 11.8731C26.5651 11.3423 26.6315 10.7453 26.6978 10.0821V10.049C26.6978 9.94936 26.7309 9.81683 26.7641 9.71723C26.7972 9.51843 26.8303 9.31924 26.8637 9.08711V8.78871C26.8637 8.19173 26.3992 7.69434 25.8356 7.69434C25.5701 7.69434 25.3048 7.82687 25.1058 8.02586C24.907 8.22486 24.8074 8.49012 24.8074 8.78871V9.05397C24.8074 9.2861 24.8406 9.4851 24.9068 9.6841C24.94 9.78369 24.94 9.88309 24.9731 10.0158V10.049C25.0394 10.7122 25.139 11.3092 25.0727 11.8399C25.0396 12.072 24.9068 12.1714 24.8074 12.271L24.7412 12.3373L24.7078 12.7684C24.1109 12.8347 23.5139 12.901 22.9169 13.0337C20.3633 13.5975 18.108 14.8911 16.3504 16.7481L16.0187 16.516H15.9524C15.8862 16.516 15.8197 16.5492 15.7534 16.5492C15.654 16.5492 15.5544 16.516 15.4548 16.4498C15.0237 16.1514 14.5926 15.72 14.1283 15.2226C14.0621 15.1564 13.9958 15.0568 13.8962 14.9905C13.7635 14.8247 13.6307 14.6919 13.4649 14.5263C13.4317 14.4929 13.3655 14.46 13.2992 14.3935C13.2661 14.3604 13.2329 14.3604 13.2329 14.3273C13.0275 14.1575 12.7698 14.0637 12.5032 14.0618C12.2046 14.0618 11.9062 14.1945 11.7404 14.4267C11.4086 14.8578 11.5082 15.521 11.9725 15.919C12.0056 15.919 12.0056 15.9524 12.0388 15.9524C12.105 15.9855 12.1384 16.0518 12.2046 16.0849C12.4036 16.2174 12.5695 16.317 12.7685 16.4166C12.8681 16.4498 12.9675 16.516 13.0671 16.5825C13.6639 16.9471 14.1615 17.2457 14.5595 17.6106C14.7253 17.7763 14.7253 17.9421 14.7253 18.108V18.1743L15.0568 18.4728C14.9906 18.5722 14.9243 18.6387 14.891 18.7381C13.2327 21.3582 12.6026 24.4425 13.0337 27.4937L12.6026 27.6263C12.6026 27.6596 12.5695 27.6596 12.5695 27.6925C12.5032 27.8253 12.4036 27.958 12.2046 28.0574C11.7072 28.2232 11.1103 28.2897 10.4139 28.356H10.3805C10.2811 28.356 10.1484 28.356 10.049 28.3891C9.85001 28.3891 9.65102 28.4222 9.41889 28.4554C9.35262 28.4554 9.28636 28.4887 9.21989 28.4887C9.18676 28.4887 9.15363 28.4887 9.1203 28.5218C8.52331 28.6544 8.15845 29.2182 8.25805 29.7488C8.35765 30.2132 8.78877 30.5118 9.31929 30.5118C9.41889 30.5118 9.48515 30.5118 9.58475 30.4785C9.61789 30.4785 9.65102 30.4785 9.65102 30.4453C9.71728 30.4453 9.78355 30.4122 9.84981 30.4122C10.0821 30.3459 10.248 30.2797 10.447 30.1801C10.5464 30.1469 10.6458 30.0805 10.7454 30.0475H10.7785C11.4086 29.8152 11.9725 29.6162 12.5032 29.55H12.5695C12.7685 29.55 12.9012 29.6494 13.0006 29.7158C13.0337 29.7158 13.0337 29.749 13.0669 29.749L13.5313 29.6827C14.3273 32.1367 15.8528 34.3257 17.8759 35.9176C18.3402 36.2823 18.8044 36.5809 19.302 36.8795L19.103 37.3104C19.103 37.3437 19.1362 37.3437 19.1362 37.3767C19.2024 37.5094 19.2687 37.6753 19.2024 37.9074C19.0036 38.405 18.705 38.9024 18.3402 39.4662V39.4994C18.2739 39.599 18.2076 39.6652 18.1414 39.7646C18.0086 39.9305 17.9091 40.0963 17.7763 40.2953C17.7432 40.3285 17.7101 40.3947 17.6769 40.4612C17.6769 40.4943 17.6438 40.5275 17.6438 40.5275C17.3785 41.0913 17.5775 41.7214 18.0749 41.9536C18.2074 42.02 18.3401 42.0532 18.4729 42.0532C18.8709 42.0532 19.2689 41.7877 19.4679 41.4228C19.4679 41.3897 19.501 41.3566 19.501 41.3566C19.5342 41.2903 19.5673 41.2241 19.6004 41.1907C19.7 40.9586 19.7331 40.7927 19.7994 40.5937L19.899 40.2953C20.1311 39.6321 20.297 39.1014 20.5954 38.6371C20.7279 38.4381 20.894 38.405 21.0265 38.3385C21.0597 38.3385 21.0597 38.3385 21.0928 38.3054L21.3251 37.8743C22.7844 38.4381 24.3763 38.7365 25.9681 38.7365C26.9299 38.7365 27.9249 38.6371 28.8536 38.405C29.4381 38.2745 30.014 38.1083 30.5781 37.9074L30.7769 38.2722C30.8103 38.2722 30.8103 38.2722 30.8434 38.3054C31.0093 38.3385 31.1418 38.405 31.2745 38.604C31.5398 39.0682 31.7388 39.6321 31.9709 40.2622V40.2953L32.0705 40.5937C32.1368 40.7927 32.1699 40.9917 32.2693 41.1907C32.3026 41.257 32.3358 41.2903 32.3689 41.3566C32.3689 41.3897 32.4022 41.4228 32.4022 41.4228C32.601 41.8208 32.999 42.0532 33.397 42.0532C33.5298 42.0532 33.6625 42.02 33.795 41.9536C34.0271 41.821 34.2261 41.6218 34.2926 41.3566C34.3588 41.0913 34.3589 40.7927 34.2263 40.5275C34.2263 40.4943 34.193 40.4943 34.193 40.4612C34.1599 40.3949 34.1267 40.3287 34.0936 40.2953C33.994 40.0963 33.8615 39.9305 33.7287 39.7646C33.6625 39.6652 33.5962 39.5989 33.5299 39.4996V39.4662C33.1649 38.9024 32.8331 38.405 32.6675 37.9074C32.6012 37.6753 32.6675 37.5427 32.7006 37.3769C32.7006 37.3437 32.7338 37.3437 32.7338 37.3106L32.5679 36.9126C34.3257 35.8845 35.8181 34.4251 36.9458 32.6343C37.5428 31.7056 38.007 30.6775 38.3386 29.6494L38.7366 29.7156C38.7699 29.7156 38.7699 29.6825 38.8028 29.6825C38.9356 29.6162 39.0352 29.5168 39.2342 29.5168H39.3004C39.8311 29.5831 40.3948 29.7819 41.0251 30.0142H41.0582C41.1576 30.0473 41.257 30.1136 41.3566 30.1467C41.5556 30.2463 41.7215 30.3126 41.9536 30.3791C42.0199 30.3791 42.0862 30.4122 42.1526 30.4122C42.1858 30.4122 42.2189 30.4122 42.252 30.4453C42.3516 30.4785 42.4179 30.4785 42.5175 30.4785C43.0149 30.4785 43.446 30.1469 43.5787 29.7158C43.5787 29.3178 43.2139 28.7871 42.6169 28.6214M27.2615 26.9963L25.8022 27.6929L24.343 26.9963L23.9783 25.4377L24.9731 24.1775H26.5982L27.5932 25.4377L27.2615 26.9963ZM35.9177 23.5473C36.1749 24.644 36.2533 25.7751 36.1498 26.8967L31.0755 25.4377C30.6113 25.3052 30.346 24.8407 30.4454 24.3765C30.4785 24.2437 30.545 24.111 30.6444 24.0116L34.6574 20.3965C35.2211 21.3253 35.6522 22.3867 35.9177 23.5473ZM33.0655 18.4066L28.7209 21.4909C28.356 21.7231 27.8584 21.6566 27.5601 21.2919C27.4607 21.1923 27.4275 21.0596 27.3942 20.9271L27.0958 15.521C29.3545 15.7811 31.4586 16.7982 33.0655 18.4066ZM23.4476 15.6867C23.8125 15.6204 24.144 15.5542 24.5089 15.4879L24.2105 20.7941C24.1773 21.2584 23.8125 21.6564 23.3149 21.6564C23.1823 21.6564 23.0165 21.6233 22.9169 21.557L18.506 18.4066C19.8659 17.0467 21.5572 16.1178 23.4476 15.6867ZM16.9141 20.3963L20.8607 23.9118C21.2255 24.2104 21.2586 24.7741 20.9603 25.1389C20.8607 25.2714 20.7281 25.371 20.5623 25.4044L15.4217 26.8967C15.2227 24.6415 15.7201 22.3532 16.9141 20.3963ZM16.0185 29.3841L21.292 28.4885C21.7231 28.4554 22.1211 28.754 22.2205 29.1851C22.2536 29.3839 22.2536 29.55 22.1874 29.7158L20.1643 34.5909C18.307 33.3969 16.8145 31.5728 16.0185 29.3841ZM28.1241 35.9839C27.3613 36.1498 26.5984 36.2492 25.8024 36.2492C24.6418 36.2492 23.5141 36.0504 22.453 35.7186L25.0729 30.9761C25.3382 30.6775 25.7693 30.5449 26.1342 30.7439C26.2891 30.8386 26.4243 30.9625 26.5321 31.1086L29.0858 35.7186C28.7874 35.818 28.4558 35.8845 28.1241 35.9839ZM34.591 31.3741C33.7619 32.7006 32.6673 33.7618 31.4072 34.5909L29.3179 29.5829C29.2183 29.1851 29.3842 28.754 29.7821 28.5548C29.9147 28.4885 30.0805 28.4554 30.2464 28.4554L35.5528 29.351C35.3538 30.0805 35.0221 30.7439 34.591 31.3741Z" fill="white"/>
</g>
<defs>
<clipPath id="clip0_549_4573">
<rect width="51.4056" height="50" fill="white"/>
</clipPath>
</defs>
</svg>
