<svg width="37" height="50" viewBox="0 0 37 50" fill="none" xmlns="http://www.w3.org/2000/svg">
<g clip-path="url(#clip0_549_4578)">
<path d="M35.98 24.2906C35.98 34.2573 28.0778 42.3447 18.3246 42.3447C8.57137 42.3447 0.66925 34.2573 0.66925 24.2906C0.66925 14.3237 8.57152 6.23633 18.3246 6.23633C28.0779 6.23633 35.9802 14.3237 35.9802 24.2906" fill="#D33833"/>
<path d="M1.39533 28.7613C1.39533 28.7613 0.11392 9.93847 17.4703 9.39721L16.2601 7.37537L6.84857 10.5363L4.15761 13.626L1.80831 18.1253L0.469788 23.365L0.86856 26.8677" fill="#EF3D3A"/>
<path d="M6.23629 11.9744C3.1467 15.1495 1.22444 19.5208 1.22444 24.3617C1.22444 29.2027 3.1467 33.5738 6.23629 36.7489C9.34023 39.9241 13.5976 41.8747 18.3246 41.8747C23.0516 41.8747 27.3089 39.9241 30.4129 36.7491C33.5026 33.5738 35.4247 29.2027 35.4247 24.3617C35.4247 19.5207 33.5026 15.1495 30.4129 11.9744C27.3091 8.8135 23.0517 6.84876 18.3246 6.84876C13.6118 6.84876 9.34037 8.79929 6.23629 11.9744ZM5.45324 37.5036C2.16434 34.1434 0.128143 29.4875 0.128143 24.3617C0.128143 19.236 2.16434 14.58 5.45324 11.2056C8.74229 7.84534 13.2985 5.75232 18.3247 5.75232C23.3509 5.75232 27.907 7.84534 31.1961 11.2056C34.4851 14.5658 36.5212 19.2216 36.5212 24.3617C36.5212 29.4874 34.485 34.1434 31.1961 37.5036C27.907 40.878 23.3508 42.9568 18.3246 42.9568C13.2984 42.9568 8.74229 40.878 5.45324 37.5036Z" fill="#231F20"/>
<path d="M25.7571 24.3902L23.066 24.7888L19.4352 25.2018L17.0859 25.2587L14.7936 25.1876L13.0423 24.6466L11.4902 22.9663L10.28 19.5349L10.0095 18.7944L8.40063 18.2535L7.46074 16.7016L6.79163 14.4803L7.53206 12.5297L9.28341 11.9174L10.693 12.5867L11.3621 14.0676L12.1737 13.9393L12.4442 13.5976L12.1737 12.0456L12.1025 10.0949L12.5011 7.40395L12.4869 5.86626L13.7114 3.90138L15.8614 2.34934L19.6204 0.740479L23.7922 1.35263L27.4229 3.97256L29.1031 6.66352L30.185 8.61419L30.4557 13.4551L29.6441 17.627L28.1632 21.329L26.768 23.3081" fill="#F0D6B7"/>
<path d="M23.4789 36.0228L13.8681 36.4214V38.0303L14.6797 43.683L14.2809 44.1528L7.56047 41.8605L7.09067 41.0489L6.42141 33.4456L4.84096 28.8894L4.4993 27.8073L9.88136 24.1054L11.5615 23.4362L13.0423 25.2585L14.3237 26.3977L15.8045 26.8676L16.4737 27.067L17.2853 30.5696L17.8976 31.31L19.4495 30.7689L18.3674 32.8618L24.205 35.624L23.4789 36.0228Z" fill="#335061"/>
<path d="M7.53205 12.5581L9.28341 11.9459L10.693 12.615L11.3621 14.0959L12.1737 13.9678L12.3731 13.1562L11.9744 11.6041L12.373 7.90223L12.0313 5.88039L13.2416 4.47084L15.8614 2.39202L15.1209 1.3811L11.419 3.20349L9.86715 4.41387L8.99857 6.29322L7.66019 8.11575L7.26157 10.2657L7.53205 12.5581Z" fill="#6D6B6D"/>
<path d="M10.2943 6.23629C10.2943 6.23629 11.3051 3.74464 15.3346 2.53441C19.3639 1.32417 15.534 1.66583 15.534 1.66583L11.1626 3.34601L9.48272 5.02605L8.74229 6.36443L10.2943 6.23629ZM8.27249 12.0883C8.27249 12.0883 6.86279 7.37535 12.2449 6.70623L12.0455 5.89463L8.34366 6.7632L7.26157 10.2659L7.53205 12.5581L8.27249 12.0883Z" fill="#DCD9D8"/>
<path d="M10.4225 18.3389L11.3051 17.4845C11.3051 17.4845 11.7039 17.5273 11.7751 17.9971C11.8462 18.4669 12.0455 22.71 14.936 24.9881C15.2065 25.2017 12.786 24.6463 12.786 24.6463L10.6359 21.2861M22.7955 17.0573C22.7955 17.0573 22.952 15.0213 23.5074 15.178C24.0627 15.3345 24.0627 15.8897 24.0627 15.8897C24.0627 15.8897 22.7243 16.7441 22.7955 17.0573ZM28.3769 9.5966C28.3769 9.5966 27.2662 9.82432 27.1666 10.8068C27.0669 11.7892 28.3768 11.0061 28.5762 10.935M20.2469 9.66777C20.2469 9.66777 18.766 9.86708 18.766 10.8068C18.766 11.7466 20.4462 11.6753 20.916 11.2766M11.1058 14.0389C11.1058 14.0389 8.55733 12.4869 8.28684 13.9677C8.01636 15.4486 7.41827 16.5162 8.68547 18.0682L7.8169 17.7978L7.00543 15.719L6.7348 13.6971L8.28684 12.0882L10.0381 12.2164L11.049 13.028L11.1058 14.0389ZM12.3162 9.79591C12.3162 9.79591 13.4551 3.87273 19.2359 2.73367C23.9914 1.79392 26.4974 2.93313 27.4371 4.01508C27.4371 4.01508 23.1941 -1.02518 19.1646 0.51251C15.1353 2.06455 12.1737 4.88365 12.2449 6.69197C12.3588 9.79577 12.316 9.79577 12.316 9.79577M27.9069 4.68434C27.9069 4.68434 25.9564 4.61316 25.8851 6.36437C25.8851 6.36437 25.8851 6.63501 26.0133 6.90549C26.0133 6.90549 27.5652 5.15414 28.505 6.09389" fill="#F7E4CD"/>
<path d="M19.3783 7.09063C19.3783 7.09063 19.0366 4.41388 16.7585 5.96577C15.2776 6.97669 15.42 8.38625 15.6764 8.65688C15.9469 8.92736 15.8757 9.46834 16.075 9.09827C16.2743 8.72819 16.2174 7.51781 16.9578 7.17601C17.6839 6.83435 18.9085 6.46427 19.3783 7.09063Z" fill="#F7E4CD"/>
<path d="M13.0566 25.2587L6.73449 28.0776C6.73449 28.0776 9.35442 38.5001 8.0159 41.7322L7.0763 41.3905L7.00513 37.418L5.25377 29.9003L4.51334 27.8213L11.1056 23.379L13.0566 25.2587ZM13.6972 31.025L14.5941 32.1215V36.1508H13.5264C13.5264 36.1508 13.3983 33.3317 13.3983 32.99C13.3983 32.6484 13.5264 31.438 13.5264 31.438M13.7257 36.7631L10.6929 36.8912L11.5615 37.5035L13.7114 37.8453" fill="#49728B"/>
<path d="M24.077 36.094L26.5685 36.0228L27.1808 42.2021L24.6322 42.544L24.077 36.094Z" fill="#335061"/>
<path d="M24.7461 36.094L28.505 35.8945C28.505 35.8945 30.057 31.9933 30.057 31.794C30.057 31.5946 31.3954 26.1415 31.3954 26.1415L28.3626 22.9806L27.7503 22.4396L26.1415 24.0484V30.2991L24.7461 36.094Z" fill="#335061"/>
<path d="M26.4262 35.6241L24.0769 36.0941L24.4187 37.9735C25.2871 38.3722 26.768 37.3043 26.768 37.3043M26.4973 23.8492L31.2103 27.3518L31.3384 25.7428L27.7789 22.4539L26.4973 23.8492Z" fill="#49728B"/>
<path d="M16.0608 49.3356L14.6655 43.6831L13.9678 39.5112L13.8539 36.4215L20.1613 36.0798H24.0769L23.721 43.1419L24.3331 48.5952L24.262 49.6061L19.1504 50.0049L16.0608 49.3356Z" fill="white"/>
<path d="M23.2083 36.0228C23.2083 36.0228 22.8666 43.0139 23.8776 47.9972C23.8776 47.9972 21.8557 49.2786 18.9083 49.606L24.561 49.4067L25.2301 49.0081L24.4187 37.9877L24.205 35.624" fill="#DCD9D8"/>
<path d="M27.2805 41.6754L29.9003 40.935L34.8695 40.6645L35.61 38.3721L34.2715 34.3996L32.7196 34.2003L30.5696 34.8696L28.5192 35.8805L27.4229 35.681L26.5685 36.0228" fill="white"/>
<path d="M27.2378 40.3228C27.2378 40.3228 28.9891 39.5112 29.2596 39.5824L28.5192 35.8805L29.3877 35.5387C29.3877 35.5387 30 39.0414 30 39.44C30 39.44 33.7589 39.6394 34.1006 39.6394C34.1006 39.6394 34.9122 38.0873 34.7128 36.4784L35.4533 38.6284L35.5244 39.8387L34.4424 41.4475L33.2321 41.7182L31.2103 41.647L30.541 40.7784L28.1917 41.1201L27.4513 41.3907" fill="#DCD9D8"/>
<path d="M24.5894 35.5528L23.1086 31.794L21.5567 29.5727C21.5567 29.5727 21.8985 28.6331 22.3683 28.6331H23.9203L25.4012 29.174L25.2729 31.6658L24.5894 35.5528Z" fill="white"/>
<path d="M24.8885 34.2715C24.8885 34.2715 23.009 30.6408 23.009 30.0996C23.009 30.0996 23.3508 29.288 23.8206 29.4875C24.2905 29.6868 25.3015 30.2279 25.3015 30.2279V28.9464L23.009 28.4766L21.4571 28.6759L24.0769 34.8838L24.6179 34.9549" fill="#DCD9D8"/>
<path d="M16.6588 25.4011L14.7936 25.2016L13.0423 24.6606V25.2729L13.8965 26.2127L16.5876 27.4229" fill="white"/>
<path d="M13.6545 25.6003C13.6545 25.6003 15.7332 26.4689 16.4168 26.2696L16.4878 27.0812L14.6085 26.6824L13.4694 25.8708L13.6545 25.6003Z" fill="#DCD9D8"/>
<path d="M27.2805 28.861C26.1415 28.8324 25.102 28.6901 24.205 28.4338C24.262 28.0636 24.148 27.7077 24.2478 27.4371C24.5041 27.252 24.9169 27.252 25.3013 27.2094C24.9739 27.0527 24.5041 26.9815 24.1338 27.0812C24.1195 26.8249 24.0057 26.6682 23.9344 26.4689C24.5752 26.241 26.0845 24.7461 26.9387 25.2301C27.3517 25.4722 27.5226 26.8106 27.551 27.4798C27.5794 28.0208 27.4941 28.5619 27.2805 28.861Z" fill="#D33833"/>
<path d="M27.2805 28.861C26.1415 28.8324 25.102 28.6901 24.205 28.4338C24.262 28.0636 24.148 27.7077 24.2478 27.4371C24.5041 27.252 24.9169 27.252 25.3013 27.2094C24.9739 27.0527 24.5041 26.9815 24.1338 27.0812C24.1195 26.8249 24.0057 26.6682 23.9344 26.4689C24.5752 26.241 26.0845 24.7461 26.9387 25.2301C27.3517 25.4722 27.5226 26.8106 27.551 27.4798C27.5794 28.0208 27.4941 28.5619 27.2805 28.861Z" fill="black" stroke="#D33833" stroke-width="2"/>
<path d="M21.8273 26.9957C21.8273 27.0812 21.8273 27.1665 21.8129 27.252C21.4571 27.4799 20.8874 27.4799 20.4888 27.6792C21.0584 27.7076 21.514 27.85 21.9127 28.0351C21.8983 28.2487 21.8983 28.4766 21.8843 28.6901C21.2292 29.1315 20.6313 29.8008 19.8624 30.2278C19.4922 30.4273 18.225 30.9398 17.8406 30.8401C17.6269 30.7831 17.5985 30.5126 17.5131 30.2564C17.328 29.7154 16.9008 28.8325 16.8581 28.0066C16.8153 26.9673 16.7015 25.216 17.8262 25.4295C18.7374 25.6004 19.7911 26.0134 20.4888 26.3978C20.9302 26.6541 21.1722 26.9388 21.8273 26.9957Z" fill="#D33833"/>
<path d="M21.8273 26.9957C21.8273 27.0812 21.8273 27.1665 21.8129 27.252C21.4571 27.4799 20.8874 27.4799 20.4888 27.6792C21.0584 27.7076 21.514 27.85 21.9127 28.0351C21.8983 28.2487 21.8983 28.4766 21.8843 28.6901C21.2292 29.1315 20.6313 29.8008 19.8624 30.2278C19.4922 30.4273 18.225 30.9398 17.8406 30.8401C17.6269 30.7831 17.5985 30.5126 17.5131 30.2564C17.328 29.7154 16.9008 28.8325 16.8581 28.0066C16.8153 26.9673 16.7015 25.216 17.8262 25.4295C18.7374 25.6004 19.7911 26.0134 20.4888 26.3978C20.9302 26.6541 21.1722 26.9388 21.8273 26.9957Z" fill="black" stroke="#D33833" stroke-width="2"/>
<path d="M22.468 28.2345C22.3683 27.6648 22.2544 27.5084 22.2971 27.0099C23.8206 25.999 24.0912 28.747 22.468 28.2345Z" fill="#D33833"/>
<path d="M22.468 28.2345C22.3683 27.6648 22.2544 27.5084 22.2971 27.0099C23.8206 25.999 24.0912 28.747 22.468 28.2345Z" fill="black" stroke="#D33833" stroke-width="2"/>
<path d="M24.6606 28.69C24.6606 28.69 24.1908 28.0208 24.5325 27.8215C24.8741 27.6222 25.2017 27.8215 25.401 27.4798C25.6005 27.138 25.401 26.9388 25.4722 26.5401C25.5434 26.1414 25.8708 26.0703 26.2126 25.9991C26.5543 25.9278 27.494 25.7996 27.6222 26.1272L27.2236 24.9169L26.4119 24.6464L23.8633 26.1272L23.7352 26.8677V28.3484M17.5985 30.9112C17.5131 29.8575 17.4277 28.8182 17.3422 27.7645C17.1999 26.1984 17.7124 26.4687 19.0792 26.4687C19.2929 26.4687 20.3606 26.711 20.4319 26.8677C20.8022 27.6222 19.8196 27.4513 20.859 28.0208C21.7276 28.4907 23.2796 27.7361 22.9236 26.6682C22.7241 26.4261 21.8985 26.597 21.5994 26.4403L20.019 25.6289C19.3498 25.2871 17.812 24.7745 17.1001 25.2587C15.2918 26.4831 17.2141 29.5586 17.8548 30.84" fill="#EF3D3A"/>
<path d="M19.3783 7.09064C17.5415 6.66346 16.6303 7.85949 16.075 9.09814C15.5767 8.98435 15.776 8.30088 15.9042 7.95922C16.2316 7.06223 17.5559 5.85185 18.6378 6.02275C19.0934 6.07972 19.7199 6.50691 19.3783 7.09064ZM28.3057 9.16931H28.391C28.804 10.0237 29.1599 10.935 29.6868 11.7039C29.3309 12.5297 27.0385 13.2416 27.0669 11.7892C27.5652 11.5757 28.4196 11.7465 28.861 11.4618C28.6047 10.7641 28.2487 10.1659 28.3057 9.16931ZM20.3038 9.19801C20.7024 9.92409 20.8304 10.6787 21.3858 11.2199C21.6422 11.4618 22.1262 11.7608 21.8843 12.4442C21.8273 12.6008 21.4143 12.9569 21.1722 13.028C20.3038 13.2843 18.2676 13.085 18.9511 11.9886C19.6772 12.0171 20.6455 12.4585 21.1866 11.9316C20.7736 11.2767 20.0332 9.96671 20.3038 9.19801ZM27.9782 16.5163C26.6682 17.3564 25.2016 18.282 23.0375 18.0683C22.5819 17.6697 22.3968 16.7725 22.8524 16.1889C23.0801 16.5876 22.9378 17.328 23.5929 17.4418C24.8173 17.6555 26.241 16.6872 27.1238 16.3598C27.6648 15.4343 27.0812 15.1068 26.5829 14.5088C25.5719 13.2985 24.2336 11.7892 24.2762 9.98106C24.6891 9.68202 24.7176 10.4367 24.7745 10.5648C25.3013 11.7892 26.6256 13.3697 27.5794 14.4234C27.8215 14.6797 28.2059 14.9359 28.2487 15.1068C28.3768 15.5909 27.9212 16.1887 27.9782 16.5163ZM10.6358 15.6336C10.223 15.3915 10.1234 14.3664 9.63926 14.3379C8.94159 14.2952 9.06973 15.6764 9.06973 16.4878C8.59993 16.0608 8.5144 14.7223 8.85621 14.039C8.45758 13.8395 8.28653 14.2525 8.05881 14.3948C8.35785 12.3304 11.0914 13.4409 10.6358 15.6336ZM28.804 17.3848C28.1917 18.5524 27.3231 19.8339 25.5292 19.8766C25.4864 19.5064 25.458 18.9227 25.5292 18.6948C26.9103 18.5524 27.7645 17.8548 28.804 17.3848ZM20.2041 18.1395C21.3431 18.7376 23.4504 18.8087 25.0166 18.766C25.102 19.1078 25.102 19.5348 25.102 19.9478C23.0945 20.0332 20.7308 19.5348 20.2041 18.1395ZM19.9906 19.2501C20.7878 21.2434 23.5073 21.0157 25.7997 20.9587C25.7001 21.215 25.4864 21.5282 25.2017 21.6278C24.4613 21.9269 22.4394 22.1547 21.4143 21.6136C20.7736 21.272 20.3464 20.4888 19.9906 20.0332C19.8339 19.8196 18.9796 19.2643 19.9906 19.2501Z" fill="#231F20"/>
<path d="M27.8785 30.2277C26.9529 31.8224 26.0561 33.4598 24.9598 34.8551C25.4152 33.5026 25.6145 31.2244 25.6859 29.4874C26.654 29.0317 27.4798 29.5869 27.8785 30.2277Z" fill="#81B0C4"/>
<path d="M32.8761 35.9517C31.8368 36.1652 31.1105 37.1761 30.0854 37.1049C30.6549 36.3217 31.6231 35.9801 32.8761 35.9517ZM33.3317 37.5747C32.4775 37.6603 31.4808 37.8026 30.6265 37.7314C31.0394 37.1049 32.6056 37.3327 33.3317 37.5747ZM33.6307 38.9844C32.6768 38.9986 31.495 38.9844 30.5838 38.9131C31.1248 38.3294 33.0185 38.6996 33.6307 38.9844Z" fill="#231F20"/>
<path d="M26.0845 42.8286C26.2268 44.0247 26.6968 45.235 26.6398 46.5449C26.1129 46.7156 25.814 46.8723 25.102 46.8723C25.0594 45.7617 24.9027 44.0532 24.9454 42.9853C25.2871 43.0137 25.7997 42.7432 26.0845 42.8286Z" fill="#DCD9D8"/>
<path d="M24.5468 25.1734C24.0627 25.4865 23.664 25.8709 23.1941 26.2127C22.169 26.2697 21.6136 26.1415 20.8734 25.5578C20.8876 25.515 20.9587 25.5292 20.9587 25.4723C22.055 25.9564 23.4504 25.2731 24.5468 25.1734Z" fill="#F0D6B7"/>
<path d="M18.8229 32.6198C19.122 31.324 20.3038 30.6407 21.3716 29.9288C22.4679 31.3242 23.1371 33.1181 23.8775 34.8552C22.1262 34.3284 20.3464 33.4884 18.8229 32.6198Z" fill="#81B0C4"/>
<path d="M24.9454 42.9995C24.9027 44.0674 25.045 45.7618 25.102 46.8865C25.814 46.8865 26.1129 46.7299 26.6398 46.559C26.6968 45.2491 26.2269 44.0388 26.0845 42.8428C25.7997 42.7432 25.2871 43.0137 24.9454 42.9995ZM13.9534 36.9625C14.4234 41.2481 15.0925 44.8361 16.3312 48.6378C19.0792 49.4779 22.3825 49.549 24.8173 48.7944C24.3759 46.6588 24.561 44.0532 24.3047 41.7607C24.1053 40.0379 24.205 38.3151 23.9345 36.5638C20.9871 35.9516 16.8297 36.4214 13.9534 36.9625ZM24.6322 36.5923C24.6036 38.429 24.7176 40.2514 24.8601 42.0882C25.5718 41.9886 26.0417 41.9174 26.6968 41.7607C26.4831 39.9951 26.5117 37.9877 26.0703 36.4214C25.5719 36.4358 25.1304 36.4216 24.6322 36.5923ZM28.2059 36.2931C27.8643 36.222 27.4798 36.2931 27.1666 36.2931C27.3232 37.7882 27.6792 39.4398 27.8073 41.0203C28.3057 41.0345 28.5761 40.7924 28.9891 40.7212C29.0175 39.3401 28.8752 37.4322 28.2059 36.2931ZM33.6308 41.248C34.6844 40.9917 35.3394 39.7103 35.0403 38.3861C34.841 37.5034 34.4993 35.8233 34.1148 35.2536C33.8443 34.8408 33.0896 34.2855 32.4775 34.6699C31.495 35.2964 29.7722 35.4815 29.0603 36.2362C29.4162 37.4322 29.5301 39.0554 29.6724 40.5645C30.897 40.6359 32.392 40.223 33.4172 40.6643C32.7052 40.8921 31.794 40.8921 31.1817 41.2338C31.6943 41.4759 32.8619 41.4333 33.6308 41.2481M23.8633 34.8552C23.1229 33.1182 22.4538 31.3242 21.3574 29.9288C20.2895 30.6406 19.122 31.3242 18.8087 32.6198C20.3464 33.4884 22.1263 34.3284 23.8633 34.8552ZM25.6857 29.4874C25.6146 31.2245 25.4152 33.5026 24.9596 34.8552C26.0559 33.4456 26.9531 31.8224 27.8785 30.2277C27.4798 29.587 26.654 29.0317 25.6859 29.4873M23.6214 28.7612C23.2084 28.7183 22.8526 29.2452 22.3114 29.0174C22.1833 29.1597 22.0694 29.3022 21.9412 29.4445C23.1373 30.8967 23.6926 32.9473 24.6181 34.6415C25.1165 33.0042 25.0595 31.2243 25.1735 29.4445C24.49 29.473 24.1056 28.8038 23.6214 28.7611M22.2972 27.0096C22.2545 27.5079 22.3684 27.6646 22.468 28.2342C24.0912 28.7467 23.8207 25.9987 22.2972 27.0096ZM20.4889 26.4116C19.7912 26.0271 18.7377 25.6142 17.8264 25.4435C16.7017 25.2298 16.8154 26.9812 16.8582 28.0206C16.901 28.8463 17.3282 29.7149 17.5133 30.2702C17.5986 30.5265 17.6271 30.797 17.8407 30.854C18.2251 30.9395 19.5066 30.4411 19.8626 30.2417C20.6314 29.8288 21.2294 29.1597 21.8844 28.704C21.8986 28.4904 21.8986 28.2626 21.9128 28.0491C21.5142 27.8496 21.0728 27.7216 20.4889 27.6932C20.8735 27.4937 21.4572 27.4937 21.8131 27.266C21.8131 27.1805 21.8131 27.0951 21.8274 27.0096C21.1724 26.9384 20.9303 26.6537 20.4889 26.4116ZM13.797 25.2014C13.2133 25.7993 15.4343 26.5967 16.1321 26.6395C16.1321 26.2693 16.3456 25.9134 16.3029 25.6428C15.4629 25.5004 14.3666 25.6 13.797 25.2014ZM20.9732 25.4719C20.9732 25.5289 20.9019 25.5146 20.8877 25.5574C21.6423 26.1411 22.1975 26.2691 23.2084 26.2123C23.6642 25.8849 24.077 25.4862 24.5612 25.1728C23.4505 25.2726 22.0552 25.956 20.9731 25.4719M27.551 27.4656C27.5226 26.8106 27.3516 25.458 26.9387 25.2159C26.0845 24.7175 24.5752 26.2268 23.9345 26.4547C24.0057 26.654 24.1196 26.8106 24.1338 27.0668C24.5184 26.9672 24.9739 27.0384 25.3013 27.195C24.9169 27.2377 24.504 27.2377 24.2478 27.4228C24.1622 27.6933 24.2762 28.0493 24.205 28.4196C25.102 28.6758 26.1415 28.804 27.2805 28.8466C27.4941 28.5619 27.5794 28.0208 27.551 27.4656ZM12.8144 25.7712C12.6293 25.6431 11.3906 24.0341 11.2197 24.1052C8.98436 24.9882 6.89134 26.5117 5.02605 27.9638C6.80582 31.794 7.53204 36.4784 7.66019 40.9919C9.69638 41.9458 11.4902 43.327 14.2667 43.4693C13.9392 41.2055 13.6545 39.1693 13.4694 37.0336C12.7718 36.7347 11.775 37.0479 11.1201 36.9482C11.1201 36.1651 12.1167 36.6065 12.2021 36.0798C12.2592 35.681 11.6468 35.6526 11.8462 35.0261C12.3588 35.2112 12.6293 35.624 13.1704 35.7807C13.6687 34.6986 13.1704 32.7765 13.2416 31.8652C13.2559 31.6944 13.3269 30.9254 13.7114 31.0536C14.0532 31.1675 13.6972 33.1182 13.7257 33.9724C13.7541 34.7698 13.626 35.5244 13.9534 36.0228C16.6303 35.6526 19.3499 35.4247 22.2543 35.3393C21.6136 35.0688 20.859 34.8125 20.0332 34.3426C19.5776 34.0863 18.168 33.5595 18.0399 33.1324C17.8262 32.4489 18.5809 32.093 18.709 31.5091C17.3564 32.2496 17.1001 30.7974 16.7727 29.7864C16.4879 28.8608 16.3171 28.1633 16.2459 27.6364C15.0641 27.0384 13.8111 26.4831 12.8144 25.7712ZM26.3692 24.2903C28.2345 23.3935 28.5761 27.6649 27.8357 29.0461C27.9496 29.4589 28.3341 29.6156 28.4908 29.9857C27.4513 31.851 26.2982 33.588 25.2301 35.4247C26.0133 34.9263 27.1524 35.3393 28.0778 34.9691C28.4196 34.841 28.6617 34.0579 28.918 33.4314C29.6297 31.7228 30.3701 29.5585 30.6977 27.9356C30.7689 27.5653 30.9824 26.7536 30.9254 26.4261C30.8401 25.8282 30.0427 25.3868 29.6297 25.0308C28.8752 24.3473 28.4052 23.7637 27.6078 23.1229C27.3089 23.5928 26.6255 23.9059 26.3692 24.2905M8.55717 7.75988C7.67439 8.74239 7.8595 10.5649 7.95923 11.8747C9.56809 10.864 11.6897 11.9603 11.6753 13.6689C12.4442 13.6545 11.9602 12.7149 11.8178 12.1026C11.3621 10.1235 12.5867 7.98775 11.8746 6.17957C10.4936 6.29337 9.36878 6.84855 8.55717 7.75988ZM14.9074 2.07906C12.8999 2.6486 10.3227 4.11511 9.49692 5.92329C10.1376 5.82371 10.579 5.51046 11.2055 5.4677C11.4476 5.45349 11.7608 5.56743 12.0313 5.49625C12.5723 5.35391 13.0422 4.12932 13.4551 3.67372C13.8539 3.23233 14.3379 3.03302 14.6655 2.63439C14.879 2.53466 15.1921 2.53466 15.2064 2.22141C15.1211 2.12168 15.0213 2.05065 14.9074 2.07906ZM25.3725 2.62004C23.2796 1.43836 19.7485 0.555579 17.5273 1.66609C15.7332 2.56307 13.3129 4.0438 12.4869 5.90923C13.2558 7.71727 12.2592 9.36889 12.1879 11.2056C12.1595 12.1881 12.6436 13.0283 12.6862 14.0962C12.4158 14.5376 11.6184 14.5802 11.0632 14.5518C10.8781 13.6119 10.5506 12.5584 9.5823 12.4444C8.21551 12.2879 7.20459 13.4269 7.14762 14.6088C7.07645 16.0041 8.21551 18.3106 9.83858 18.1541C10.4651 18.0971 10.6218 17.4706 11.3051 17.4706C11.6753 18.211 10.7357 18.4388 10.636 18.9655C10.6074 19.108 10.7072 19.6348 10.7783 19.8911C11.0774 21.1013 11.7323 22.6818 12.373 23.6073C13.1988 24.789 14.8078 24.9599 16.5448 25.0738C16.8581 24.4046 17.9971 24.4615 18.7374 24.6324C17.8406 24.2766 17.0148 23.4222 16.3313 22.6676C15.5481 21.799 14.7508 20.8736 14.7081 19.7345C16.2032 21.799 17.4276 23.6073 20.1329 24.5187C22.1832 25.202 24.5752 24.2053 26.1557 23.0948C26.8106 22.639 27.195 21.8987 27.665 21.2437C29.402 18.7378 30.2136 15.1781 30.0427 11.7183C29.9715 10.2946 29.9715 8.87068 29.4873 7.91672C28.9891 6.92001 27.2947 6.00882 26.298 6.92001C26.1129 5.93764 27.1238 5.33956 28.3055 5.69557C27.4656 4.59927 26.5829 3.30351 25.3725 2.62004ZM29.2738 34.8128C30.9112 34.0012 33.9582 32.6343 34.9691 34.8128C35.3537 35.6243 35.7949 36.977 35.9801 37.817C36.2505 38.9847 35.681 41.4621 34.4708 41.8464C33.4029 42.1882 32.1642 42.174 30.8828 41.9177C30.7261 41.7896 30.5696 41.5759 30.4414 41.348C29.5302 41.3196 28.6617 41.3909 27.9496 41.7753C28.0208 42.4587 27.5652 42.5584 27.1238 42.7009C26.8106 43.9679 27.7645 45.6196 27.5368 46.7586C27.3801 47.5844 26.3692 47.7126 25.6289 47.8549C25.6004 48.3107 25.6573 48.6951 25.7143 49.0795C25.5435 49.706 24.7887 50.0619 24.0627 50.1474C21.6849 50.4321 18.0827 50.5602 15.8045 49.7344C15.1637 48.1683 14.6655 46.2746 14.1386 44.4949C11.9174 44.7368 10.1092 43.5408 8.41483 42.7435C7.83109 42.473 7.01948 42.3163 6.79161 41.8465C6.57809 41.3909 6.66347 40.5223 6.6065 39.7107C6.47836 37.6177 6.35022 35.5959 5.80925 33.4601C5.56717 32.4919 5.12578 31.6519 4.82674 30.7265C4.54204 29.8722 4.05789 28.8043 3.92975 27.9499C3.74464 26.6828 4.94067 26.6115 5.69531 26.0562C6.87713 25.202 7.80253 24.732 9.08394 23.9632C9.46851 23.7355 10.6074 23.1659 10.7356 22.8953C10.992 22.3687 10.2943 21.6282 10.1092 21.2153C9.81017 20.5603 9.65347 20.005 9.61086 19.3642C8.54297 19.1934 7.71715 18.5527 7.23314 17.8408C6.42139 16.6448 5.85186 14.4378 6.56388 12.772C6.62085 12.6439 6.89134 12.3732 6.9341 12.1739C7.01948 11.7753 6.77741 11.2484 6.7632 10.8213C6.69203 8.64281 7.13342 6.76331 8.59993 6.1084C9.19788 3.73069 11.3335 2.94764 13.3413 1.76582C14.0959 1.32442 14.9217 1.03973 15.776 0.726338C18.8371 -0.398375 23.5501 -0.184854 26.0987 1.73726C27.1808 2.54887 28.9036 4.27167 29.5159 5.52466C31.1532 8.81371 31.0252 14.3239 29.8861 18.3392C29.7294 18.8802 29.5159 19.6632 29.2026 20.3183C28.9891 20.7739 28.3199 21.6709 28.391 22.0695C28.4766 22.4825 29.9289 23.5788 30.2421 23.8778C30.7974 24.4188 31.8652 25.1308 31.9506 25.8143C32.0503 26.5404 31.6375 27.5371 31.424 28.2347C30.7403 30.5698 30.057 32.7198 29.2738 34.8128Z" fill="#231F20"/>
<path d="M18.3817 18.6378C18.4671 18.5238 18.9511 18.3389 19.6346 18.6663C19.6346 18.6663 18.8229 18.7945 18.8941 20.1472L18.5525 20.0759C18.5668 20.0902 18.2108 18.8657 18.3817 18.6378Z" fill="#F7E4CD"/>
<path d="M24.2762 30.1993C24.2762 30.3986 24.1054 30.5695 23.906 30.5695C23.7066 30.5695 23.5357 30.3986 23.5357 30.1993C23.5357 30 23.7066 29.8291 23.906 29.8291C24.1196 29.8291 24.2762 29.9999 24.2762 30.1993ZM24.6464 31.9221C24.6464 32.1216 24.4756 32.2923 24.2762 32.2923C24.0769 32.2923 23.906 32.1216 23.906 31.9221C23.906 31.7227 24.0769 31.5519 24.2762 31.5519C24.4898 31.5519 24.6464 31.7086 24.6464 31.9221Z" fill="#1D1919"/>
</g>
<defs>
<clipPath id="clip0_549_4578">
<rect width="36.7347" height="50" fill="white"/>
</clipPath>
</defs>
</svg>
