<svg width="130" height="134" viewBox="0 0 130 134" fill="none" xmlns="http://www.w3.org/2000/svg">
<g id="Star 1" filter="url(#filter0_b_379_2886)">
<path d="M56.9572 4.30921C61.3561 -0.23539 68.6439 -0.23539 73.0428 4.30921C76.125 7.49349 80.7956 8.55953 84.9542 7.02791C90.8893 4.84197 97.4554 8.00404 99.4468 14.0072C100.842 18.2134 104.588 21.2004 108.999 21.6248C115.295 22.2305 119.839 27.9283 119.028 34.2011C118.46 38.5962 120.539 42.9125 124.329 45.2088C129.739 48.4862 131.361 55.5913 127.909 60.8912C125.49 64.6046 125.49 69.3954 127.909 73.1088C131.361 78.4087 129.739 85.5138 124.329 88.7912C120.539 91.0875 118.46 95.4038 119.028 99.7989C119.839 106.072 115.295 111.77 108.999 112.375C104.588 112.8 100.842 115.787 99.4468 119.993C97.4554 125.996 90.8893 129.158 84.9542 126.972C80.7956 125.44 76.125 126.507 73.0428 129.691C68.6439 134.235 61.3561 134.235 56.9572 129.691C53.875 126.507 49.2044 125.44 45.0458 126.972C39.1107 129.158 32.5446 125.996 30.5532 119.993C29.1578 115.787 25.4123 112.8 21.001 112.375C14.7052 111.77 10.1613 106.072 10.9718 99.7989C11.5396 95.4038 9.46099 91.0875 5.6707 88.7912C0.261189 85.5138 -1.3605 78.4087 2.09131 73.1088C4.5099 69.3954 4.5099 64.6046 2.09131 60.8912C-1.3605 55.5913 0.261189 48.4862 5.6707 45.2088C9.46099 42.9125 11.5396 38.5962 10.9718 34.2011C10.1613 27.9283 14.7052 22.2305 21.001 21.6248C25.4123 21.2004 29.1578 18.2134 30.5532 14.0072C32.5446 8.00404 39.1107 4.84197 45.0458 7.02791C49.2044 8.55953 53.875 7.49349 56.9572 4.30921Z" fill="#D0A8ED"/>
<path d="M57.6757 5.00471C61.6816 0.866112 68.3184 0.866112 72.3243 5.00471C75.6818 8.47346 80.7697 9.63474 85.2998 7.96629C90.7047 5.97564 96.6842 8.85521 98.4977 14.3221C100.018 18.9041 104.098 22.1579 108.903 22.6202C114.637 23.1718 118.775 28.3606 118.036 34.0729C117.418 38.8607 119.682 43.5626 123.811 46.0641C128.737 49.0486 130.214 55.519 127.071 60.3454C124.436 64.3906 124.436 69.6094 127.071 73.6546C130.214 78.481 128.737 84.9514 123.811 87.9359C119.682 90.4374 117.418 95.1393 118.036 99.9271C118.775 105.639 114.637 110.828 108.903 111.38C104.098 111.842 100.018 115.096 98.4977 119.678C96.6842 125.145 90.7047 128.024 85.2998 126.034C80.7697 124.365 75.6818 125.527 72.3243 128.995C68.3184 133.134 61.6816 133.134 57.6757 128.995C54.3182 125.527 49.2303 124.365 44.7002 126.034C39.2953 128.024 33.3158 125.145 31.5023 119.678C29.9823 115.096 25.9021 111.842 21.0967 111.38C15.3634 110.828 11.2255 105.639 11.9635 99.9271C12.5821 95.1393 10.3178 90.4374 6.18887 87.9359C1.26263 84.9514 -0.21418 78.481 2.92925 73.6546C5.56392 69.6094 5.56392 64.3906 2.92925 60.3454C-0.21418 55.519 1.26263 49.0486 6.18886 46.0641C10.3178 43.5626 12.5821 38.8607 11.9635 34.0729C11.2255 28.3606 15.3634 23.1718 21.0967 22.6202C25.9021 22.1579 29.9823 18.9041 31.5023 14.3221C33.3158 8.85521 39.2953 5.97564 44.7002 7.96629C49.2303 9.63474 54.3182 8.47347 57.6757 5.00471Z" stroke="#FDFDFD" stroke-width="2"/>
</g>
<defs>
<filter id="filter0_b_379_2886" x="-19.7242" y="-19.0992" width="169.448" height="172.198" filterUnits="userSpaceOnUse" color-interpolation-filters="sRGB">
<feFlood flood-opacity="0" result="BackgroundImageFix"/>
<feGaussianBlur in="BackgroundImageFix" stdDeviation="10"/>
<feComposite in2="SourceAlpha" operator="in" result="effect1_backgroundBlur_379_2886"/>
<feBlend mode="normal" in="SourceGraphic" in2="effect1_backgroundBlur_379_2886" result="shape"/>
</filter>
</defs>
</svg>
