<svg width="1441" height="960" viewBox="0 0 1441 960" fill="none" xmlns="http://www.w3.org/2000/svg">
<path d="M1276.86 25.6357C1297.53 31.6685 1317.75 36.3957 1336.96 39.6912C1356.22 42.9915 1374.2 44.8844 1390.4 45.3212C1405.19 45.7094 1418.9 44.5446 1427.09 42.1907C1429.27 41.5598 1431.31 40.8026 1432.96 39.9921C1434.7 39.1476 1436.17 38.1964 1437.34 37.1674C1438.01 36.5705 1438.6 35.9347 1439.09 35.2697V937.587C1438.6 936.922 1438.01 936.286 1437.34 935.689C1436.17 934.656 1434.69 933.709 1432.96 932.865C1431.31 932.059 1429.27 931.297 1427.09 930.671C1418.9 928.322 1405.18 927.147 1390.4 927.54C1374.2 927.977 1356.22 929.87 1336.96 933.17C1317.75 936.466 1297.53 941.193 1276.86 947.226C1263.21 951.211 1248.92 955.404 1233.8 959.985H1238.99C1252.44 955.933 1265.24 952.176 1277.53 948.595C1298.11 942.586 1318.25 937.878 1337.38 934.597C1356.52 931.316 1374.38 929.433 1390.47 929.001C1405 928.613 1418.46 929.754 1426.43 932.04C1428.5 932.632 1430.41 933.345 1431.96 934.102C1433.54 934.869 1434.87 935.728 1435.92 936.655C1436.97 937.582 1437.77 938.606 1438.3 939.698C1438.56 940.247 1438.77 940.829 1438.9 941.426C1438.98 941.761 1439.02 942.076 1439.06 942.348C1439.08 942.523 1439.09 942.683 1439.09 942.824L1439.1 943.314H1440.99V29.5573H1439.1L1439.09 30.0426C1439.08 30.1834 1439.07 30.3435 1439.06 30.5183C1439.02 30.79 1438.98 31.1055 1438.9 31.4404C1438.77 32.0374 1438.56 32.6198 1438.3 33.1682C1437.78 34.2602 1436.97 35.2843 1435.92 36.2113C1434.87 37.1383 1433.54 37.9974 1431.96 38.7642C1430.41 39.5213 1428.5 40.2299 1426.43 40.8269C1418.46 43.1129 1405.02 44.2486 1390.47 43.8651C1374.38 43.4332 1356.52 41.5501 1337.38 38.2692C1318.25 34.9882 1298.11 30.2804 1277.53 24.2719C1254.36 17.5111 1229.41 10.1679 1201.55 1.30071C1200.18 0.863907 1198.86 0.431954 1197.5 0H1192.6C1195.33 0.883321 1198.03 1.76179 1200.82 2.64996C1228.71 11.5269 1253.68 18.8701 1276.86 25.6357Z" fill="white" fill-opacity="0.05"/>
<path d="M1.89216 0H0V959.985H1.89216V0Z" fill="white" fill-opacity="0.05"/>
<path d="M1087.09 959.985C1090.81 958.631 1094.52 957.272 1098.28 955.938C1130.71 944.435 1163.51 934.01 1201.51 923.124C1229.27 915.174 1253.29 908.806 1277.5 902.448C1298.1 897.042 1318.26 892.8 1337.44 889.844C1356.58 886.893 1374.42 885.204 1390.47 884.816C1405.25 884.452 1418.37 885.456 1426.47 887.553C1430.49 888.592 1433.94 890.106 1435.96 891.708C1437.01 892.538 1437.8 893.45 1438.32 894.421C1438.58 894.906 1438.77 895.425 1438.91 895.95C1438.98 896.246 1439.03 896.527 1439.06 896.77C1439.08 896.92 1439.09 897.066 1439.1 897.192L1439.11 897.629L1441 897.619C1441 897.619 1441 897.333 1440.98 897.124C1440.98 896.978 1440.96 896.809 1440.94 896.629C1440.91 896.348 1440.85 896.022 1440.76 895.673C1440.61 895.047 1440.37 894.44 1440.06 893.858C1439.45 892.717 1438.53 891.649 1437.32 890.689C1435.1 888.927 1431.36 887.281 1427.07 886.17C1418.76 884.025 1405.39 883.001 1390.41 883.355C1374.26 883.748 1356.31 885.447 1337.07 888.412C1317.82 891.383 1297.57 895.639 1276.9 901.065C1252.68 907.428 1228.63 913.8 1200.86 921.755C1162.82 932.651 1129.97 943.091 1097.5 954.608C1092.51 956.379 1087.57 958.175 1082.65 959.981H1087.1L1087.09 959.985Z" fill="white" fill-opacity="0.05"/>
<path d="M949.118 959.985C955.282 957.248 961.462 954.545 967.667 951.9C1009.47 934.097 1052.15 918.392 1098.16 903.88C1130.62 893.639 1163.45 884.364 1201.46 874.692C1229.23 867.625 1253.26 861.966 1277.46 856.312C1298.08 851.502 1318.27 847.726 1337.48 845.1C1356.62 842.484 1374.44 840.98 1390.45 840.635C1405.23 840.32 1418.37 841.213 1426.49 843.072C1430.51 843.999 1433.97 845.343 1435.98 846.765C1437.02 847.493 1437.8 848.294 1438.32 849.148C1438.57 849.57 1438.77 850.022 1438.9 850.478C1438.97 850.735 1439.02 850.983 1439.04 851.191C1439.07 851.322 1439.08 851.449 1439.08 851.555L1439.09 851.939L1440.98 851.929C1440.98 851.929 1440.98 851.672 1440.97 851.487C1440.96 851.356 1440.95 851.201 1440.93 851.041C1440.9 850.784 1440.84 850.488 1440.75 850.172C1440.59 849.604 1440.35 849.056 1440.04 848.532C1439.42 847.508 1438.48 846.547 1437.27 845.688C1435.05 844.125 1431.32 842.659 1427.03 841.669C1418.73 839.766 1405.38 838.859 1390.4 839.174C1374.3 839.524 1356.39 841.033 1337.16 843.664C1317.87 846.304 1297.6 850.09 1276.92 854.919C1252.7 860.578 1228.65 866.237 1200.86 873.313C1162.81 882.996 1129.95 892.285 1097.44 902.536C1051.37 917.067 1008.62 932.801 966.75 950.628C959.585 953.681 952.457 956.806 945.344 959.99H949.118V959.985Z" fill="white" fill-opacity="0.05"/>
<path d="M817.862 959.985C865.522 935.374 915.84 913.121 967.51 893.858C1009.32 878.273 1052.02 864.524 1098.05 851.813C1130.5 842.858 1163.35 834.733 1201.41 826.255C1229.27 820.052 1253.27 815.106 1277.44 810.17C1298.05 805.962 1318.26 802.657 1337.54 800.352C1356.69 798.061 1374.5 796.751 1390.46 796.45C1405.47 796.168 1418.28 796.93 1426.52 798.585C1430.55 799.396 1434.02 800.575 1436.04 801.822C1437.06 802.458 1437.84 803.152 1438.34 803.885C1438.59 804.244 1438.78 804.628 1438.9 805.016C1438.97 805.234 1439.02 805.438 1439.04 805.618C1439.06 805.729 1439.07 805.836 1439.08 805.928L1439.09 806.254L1440.98 806.244C1440.98 806.244 1440.98 806.016 1440.97 805.846C1440.96 805.729 1440.95 805.589 1440.92 805.443C1440.88 805.215 1440.83 804.948 1440.74 804.662C1440.57 804.152 1440.33 803.662 1440.01 803.196C1439.39 802.288 1438.45 801.444 1437.22 800.682C1435 799.313 1431.27 798.037 1426.99 797.173C1418.59 795.489 1405.6 794.722 1390.4 794.989C1374.36 795.29 1356.47 796.61 1337.24 798.91C1317.9 801.226 1297.62 804.54 1276.94 808.763C1252.76 813.704 1228.75 818.649 1200.88 824.857C1162.77 833.345 1129.89 841.475 1097.4 850.444C1051.3 863.17 1008.55 876.939 966.677 892.547C914.074 912.16 862.855 934.85 814.419 959.99H817.852L817.862 959.985Z" fill="white" fill-opacity="0.05"/>
<path d="M685.301 959.985C726.803 935.849 770.176 913.65 814.754 893.78C863.29 872.158 914.635 852.647 967.358 835.796C1009.2 822.43 1051.91 810.631 1097.94 799.74C1130.44 792.048 1163.31 785.083 1201.38 777.817C1229.24 772.498 1253.24 768.261 1277.41 764.029C1298.03 760.418 1318.28 757.584 1337.59 755.603C1356.74 753.643 1374.52 752.517 1390.46 752.259C1405.48 752.017 1418.3 752.672 1426.56 754.094C1430.6 754.793 1434.08 755.807 1436.1 756.875C1437.37 757.545 1438.04 758.195 1438.38 758.617C1438.62 758.913 1438.8 759.229 1438.92 759.544C1438.99 759.724 1439.03 759.894 1439.06 760.035C1439.1 760.253 1439.1 760.554 1439.1 760.564L1440.99 760.539C1440.99 760.539 1440.98 760.132 1440.93 759.836C1440.9 759.632 1440.84 759.399 1440.74 759.142C1440.58 758.69 1440.32 758.253 1439.99 757.846C1439.37 757.069 1438.39 756.312 1437.17 755.671C1434.96 754.502 1431.25 753.405 1426.98 752.667C1418.58 751.221 1405.59 750.561 1390.43 750.799C1374.42 751.056 1356.57 752.187 1337.35 754.152C1317.97 756.137 1297.67 758.981 1277 762.602C1252.82 766.834 1228.81 771.076 1200.93 776.395C1162.82 783.671 1129.92 790.645 1097.39 798.343C1051.31 809.248 1008.53 821.057 966.64 834.447C913.843 851.322 862.425 870.862 813.816 892.518C768.462 912.733 724.36 935.364 682.198 959.985H685.306H685.301Z" fill="white" fill-opacity="0.05"/>
<path d="M545.093 959.985C627.121 907.326 718.998 861.563 814.691 826.022C863.195 808.015 914.509 791.766 967.206 777.725C1009.06 766.577 1051.79 756.744 1097.83 747.663C1130.32 741.257 1163.2 735.447 1201.33 729.38C1229.09 724.964 1253.14 721.426 1277.37 717.888C1298 714.874 1318.28 712.515 1337.62 710.865C1356.77 709.234 1374.54 708.297 1390.46 708.084C1405.71 707.88 1418.21 708.409 1426.6 709.612C1430.65 710.195 1434.14 711.044 1436.17 711.937C1437.43 712.491 1438.09 713.024 1438.43 713.369C1438.65 713.607 1438.82 713.854 1438.94 714.102C1439 714.238 1439.04 714.364 1439.07 714.476C1439.1 714.641 1439.11 714.874 1439.11 714.883L1441 714.854C1441 714.854 1440.99 714.495 1440.93 714.238C1440.9 714.058 1440.83 713.849 1440.73 713.621C1440.55 713.233 1440.29 712.855 1439.95 712.495C1439.31 711.835 1438.33 711.204 1437.11 710.666C1434.9 709.695 1431.19 708.783 1426.94 708.176C1418.43 706.953 1405.8 706.419 1390.43 706.623C1374.45 706.836 1356.62 707.778 1337.42 709.414C1318.03 711.069 1297.7 713.437 1277.03 716.456C1252.79 719.994 1228.73 723.537 1200.95 727.954C1162.8 734.02 1129.88 739.835 1097.37 746.251C1051.27 755.341 1008.49 765.189 966.588 776.347C913.822 790.407 862.441 806.681 813.868 824.711C717.358 860.558 624.716 906.777 542.126 959.99H545.093V959.985Z" fill="white" fill-opacity="0.05"/>
<path d="M390.104 959.985C419.283 938.946 449.694 919.028 481.111 900.512C579.262 842.712 691.47 794.848 814.618 758.258C863.106 743.858 914.399 730.861 967.06 719.635C1008.91 710.714 1051.65 702.842 1097.73 695.572C1130.25 690.442 1163.16 685.792 1201.28 680.939C1229.1 677.4 1253.13 674.571 1277.34 671.746C1297.99 669.334 1318.28 667.441 1337.65 666.121C1356.82 664.815 1374.58 664.068 1390.45 663.898C1405.71 663.743 1418.22 664.16 1426.62 665.121C1430.7 665.592 1434.2 666.272 1436.24 666.99C1437.56 667.456 1438.22 667.902 1438.48 668.13C1438.75 668.354 1438.89 668.543 1438.96 668.664C1439.01 668.756 1439.04 668.844 1439.06 668.917C1439.09 669.033 1439.09 669.188 1439.09 669.198L1440.98 669.164C1440.98 669.164 1440.97 668.849 1440.91 668.621C1440.87 668.465 1440.8 668.281 1440.69 668.087C1440.5 667.757 1440.23 667.436 1439.87 667.135C1439.22 666.602 1438.24 666.092 1437.02 665.66C1434.79 664.874 1431.2 664.17 1426.9 663.675C1418.4 662.699 1405.78 662.267 1390.42 662.432C1374.51 662.602 1356.7 663.355 1337.48 664.66C1318.07 665.985 1297.74 667.878 1277.05 670.295C1252.84 673.12 1228.81 675.949 1200.98 679.492C1162.83 684.346 1129.9 689 1097.36 694.135C1051.24 701.415 1008.46 709.292 966.561 718.222C913.838 729.463 862.493 742.475 813.942 756.89C690.626 793.533 578.261 841.465 479.968 899.347C447.964 918.207 416.998 938.504 387.321 959.981H390.109L390.104 959.985Z" fill="white" fill-opacity="0.05"/>
<path d="M214.684 959.985C350.756 844.566 574.167 744.081 814.539 690.495C863.001 679.701 914.273 669.955 966.928 661.535C1008.79 654.842 1051.55 648.935 1097.64 643.48C1130.2 639.626 1163.12 636.137 1201.24 632.502C1230.99 629.662 1257.76 627.318 1277.3 625.605C1297.97 623.794 1318.28 622.377 1337.67 621.387C1356.84 620.407 1374.6 619.849 1390.44 619.718C1405.75 619.596 1418.26 619.917 1426.65 620.64C1430.81 620.999 1434.24 621.499 1436.32 622.047C1437.3 622.309 1438.13 622.62 1438.58 622.906C1438.84 623.066 1438.96 623.198 1439 623.261C1439.04 623.314 1439.09 623.46 1439.1 623.552L1440.98 623.45C1440.98 623.363 1440.92 622.906 1440.64 622.533C1440.44 622.261 1440.15 622.008 1439.77 621.771C1439.13 621.373 1438.15 620.989 1436.93 620.669C1434.69 620.077 1431.21 619.562 1426.86 619.189C1418.39 618.461 1405.78 618.135 1390.42 618.262C1374.54 618.388 1356.74 618.951 1337.53 619.931C1318.11 620.921 1297.78 622.343 1277.08 624.154C1257.53 625.867 1230.76 628.211 1201 631.055C1162.86 634.695 1129.92 638.185 1097.35 642.043C1051.22 647.503 1008.44 653.415 966.541 660.113C913.838 668.543 862.519 678.293 814.01 689.102C698.09 714.946 582.863 752.497 480.786 797.702C372.487 845.659 282.172 900.25 212.121 960H214.684V959.985Z" fill="white" fill-opacity="0.05"/>
<path d="M34.9236 959.985C39.6724 952.327 44.9033 944.673 50.6008 937.126C85.1732 891.373 141.309 844.702 208.656 805.715C281.549 763.548 375.617 724.886 480.691 693.917C578.911 664.985 691.208 641.034 814.455 622.722C862.928 615.524 914.194 609.03 966.813 603.415C1008.7 598.95 1051.47 595.014 1097.56 591.374C1130.11 588.806 1163.05 586.477 1201.19 584.05C1229.13 582.274 1253.12 580.861 1277.26 579.454C1297.98 578.245 1318.3 577.299 1337.67 576.639C1356.82 575.983 1374.57 575.61 1390.44 575.527C1405.74 575.445 1418.27 575.658 1426.69 576.144C1430.92 576.386 1434.28 576.716 1436.41 577.09C1437.41 577.27 1438.26 577.478 1438.72 577.677C1438.99 577.789 1439.09 577.871 1439.1 577.891L1440.98 577.726C1440.96 577.619 1440.88 577.241 1440.53 576.925C1440.31 576.731 1440.01 576.551 1439.62 576.391C1438.99 576.129 1438.03 575.882 1436.83 575.668C1434.61 575.275 1431.15 574.935 1426.83 574.688C1418.24 574.197 1405.99 573.994 1390.42 574.071C1374.53 574.159 1356.75 574.532 1337.59 575.188C1318.2 575.848 1297.86 576.794 1277.12 578.003C1252.97 579.41 1228.97 580.822 1201.04 582.604C1162.87 585.03 1129.93 587.36 1097.36 589.927C1051.25 593.567 1008.46 597.508 966.551 601.974C913.896 607.589 862.598 614.088 814.094 621.29C690.736 639.617 578.334 663.597 480.01 692.558C374.773 723.576 280.548 762.301 207.519 804.55C139.972 843.654 83.6585 890.48 48.9602 936.393C43.0793 944.178 37.6859 952.084 32.8113 959.985H34.9236Z" fill="white" fill-opacity="0.05"/>
<path d="M1.89216 775.541H0L0.0104829 774.551C0.0157243 774.265 0.0314486 773.925 0.0471729 773.561C0.07338 772.988 0.120553 772.309 0.193933 771.586C0.319727 770.299 0.524143 768.931 0.780973 767.63C1.28939 765.043 2.09133 762.296 3.09769 759.685C4.11976 757.04 5.40916 754.356 6.92917 751.701C8.45443 749.042 10.2522 746.338 12.2702 743.674C20.4206 732.914 33.173 721.63 49.1594 711.044C66.3093 699.697 87.8516 688.524 113.189 677.847C140.255 666.441 172.076 655.424 207.76 645.096C244.466 634.477 285.925 624.387 330.996 615.107C376.529 605.735 426.705 596.994 480.131 589.122C578.449 574.639 690.847 562.651 814.188 553.488C862.608 549.892 913.885 546.645 966.588 543.83C1008.53 541.597 1051.32 539.627 1097.39 537.807C1129.86 536.525 1162.81 535.36 1201.08 534.142C1230 533.225 1255.4 532.477 1277.16 531.842C1297.88 531.24 1318.22 530.764 1337.63 530.434C1356.81 530.109 1374.58 529.92 1390.43 529.876C1405.97 529.842 1418.19 529.939 1426.8 530.187C1431.17 530.313 1434.51 530.478 1436.73 530.672C1437.9 530.774 1438.81 530.89 1439.42 531.021C1440.33 531.211 1440.74 531.614 1440.81 531.691L1439.27 532.531C1439.3 532.57 1439.2 532.482 1438.93 532.429C1438.57 532.356 1437.86 532.24 1436.52 532.123C1434.34 531.929 1431.05 531.769 1426.72 531.648C1418.14 531.4 1405.93 531.298 1390.43 531.337C1374.59 531.381 1356.83 531.57 1337.67 531.89C1318.27 532.22 1297.94 532.696 1277.22 533.298C1255.47 533.934 1230.07 534.676 1201.15 535.598C1162.88 536.816 1129.94 537.981 1097.48 539.263C1051.42 541.078 1008.64 543.048 966.714 545.286C914.027 548.096 862.766 551.343 814.361 554.939C691.077 564.097 578.738 576.081 480.477 590.553C427.098 598.421 376.964 607.152 331.473 616.519C286.465 625.784 245.058 635.86 208.415 646.46C172.815 656.764 141.078 667.752 114.09 679.123C88.8632 689.757 67.431 700.867 50.3859 712.151C34.5567 722.629 21.9406 733.787 13.895 744.407C11.9138 747.027 10.1474 749.682 8.6536 752.289C7.16503 754.89 5.90185 757.516 4.90074 760.102C3.91535 762.646 3.13438 765.325 2.64168 767.849C2.39533 769.11 2.19616 770.445 2.07036 771.697C2.00223 772.401 1.95505 773.056 1.92885 773.619C1.90788 773.974 1.90264 774.299 1.89216 774.58L1.88167 775.541H1.89216Z" fill="white" fill-opacity="0.05"/>
<path d="M1440.04 485.7H0.943457V487.161H1440.04V485.7Z" fill="white" fill-opacity="0.05"/>
<path d="M1396.88 442.985C1394.8 442.985 1392.65 442.985 1390.43 442.976C1374.57 442.932 1356.81 442.743 1337.63 442.418C1318.22 442.088 1297.88 441.612 1277.16 441.01C1255.4 440.374 1230.01 439.632 1201.08 438.71C1162.83 437.491 1129.89 436.327 1097.39 435.045C1051.27 433.225 1008.48 431.255 966.588 429.022C913.885 426.212 862.608 422.96 814.188 419.364C690.841 410.201 578.449 398.213 480.131 383.73C426.705 375.858 376.529 367.117 330.996 357.745C285.925 348.465 244.466 338.375 207.76 327.756C172.076 317.428 140.261 306.41 113.189 295.005C87.8464 284.327 66.3041 273.155 49.1594 261.808C33.173 251.222 20.4206 239.938 12.2702 229.178C10.2522 226.509 8.45443 223.81 6.92917 221.151C5.40916 218.496 4.11976 215.807 3.09769 213.167C2.09133 210.556 1.28939 207.809 0.780973 205.222C0.524143 203.921 0.324969 202.552 0.193933 201.266C0.120553 200.543 0.07338 199.863 0.0471729 199.291C0.0262072 198.932 0.0157243 198.592 0.0104829 198.306L0 197.32H1.89216L1.90264 198.276C1.90788 198.558 1.91836 198.883 1.93933 199.233C1.96554 199.796 2.01271 200.451 2.08085 201.155C2.20664 202.407 2.40057 203.741 2.65216 205.003C3.1501 207.522 3.93107 210.206 4.91122 212.749C5.91233 215.331 7.17552 217.962 8.66408 220.558C10.1579 223.17 11.9243 225.82 13.9055 228.445C21.9511 239.069 34.5672 250.223 50.3964 260.701C67.4415 271.985 88.8789 283.095 114.101 293.728C141.089 305.1 172.826 316.088 208.425 326.392C245.068 336.997 286.476 347.067 331.484 356.333C376.974 365.695 427.103 374.431 480.487 382.298C578.748 396.771 691.082 408.754 814.371 417.913C862.776 421.509 914.032 424.756 966.724 427.566C1008.6 429.799 1051.38 431.769 1097.49 433.589C1129.98 434.871 1162.92 436.035 1201.16 437.249C1230.08 438.166 1255.48 438.913 1277.23 439.549C1297.94 440.156 1318.28 440.627 1337.68 440.957C1356.84 441.282 1374.6 441.471 1390.44 441.515C1405.91 441.554 1418.13 441.452 1426.73 441.209C1431.07 441.083 1434.36 440.923 1436.53 440.729C1437.87 440.612 1438.58 440.496 1438.94 440.423C1439.21 440.369 1439.31 440.287 1439.31 440.282L1440.82 441.161C1440.75 441.238 1440.34 441.641 1439.43 441.83C1438.82 441.957 1437.91 442.078 1436.74 442.18C1434.53 442.374 1431.19 442.539 1426.81 442.665C1419.42 442.874 1409.37 442.981 1396.89 442.981L1396.88 442.985Z" fill="white" fill-opacity="0.05"/>
<path d="M1438.73 395.184C1438.26 395.378 1437.42 395.592 1436.42 395.771C1434.29 396.145 1430.93 396.475 1426.69 396.718C1418.27 397.203 1405.74 397.412 1390.44 397.334C1374.58 397.247 1356.82 396.873 1337.68 396.223C1318.31 395.563 1297.98 394.616 1277.27 393.408C1253.12 392 1229.13 390.588 1201.2 388.812C1163.05 386.385 1130.12 384.055 1097.56 381.488C1051.47 377.853 1008.71 373.912 966.818 369.447C914.163 363.831 862.902 357.337 814.46 350.14C691.214 331.828 578.916 307.876 480.697 278.945C375.622 247.975 281.559 209.313 208.667 167.147C141.309 128.154 85.1732 81.4839 50.6008 35.7357C42.4818 24.9854 35.2591 14.0167 29.1214 3.13045C28.5343 2.09182 27.9997 1.04348 27.4336 0H25.3842C26.0551 1.23762 26.6946 2.48009 27.3865 3.71286C33.5504 14.6525 40.8098 25.6745 48.9654 36.4734C83.6637 82.3867 139.972 129.212 207.524 168.316C280.558 210.565 374.783 249.291 480.015 280.309C578.339 309.269 690.742 333.25 814.099 351.576C862.577 358.779 913.869 365.277 966.556 370.893C1008.47 375.358 1051.25 379.299 1097.37 382.939C1129.94 385.511 1162.88 387.836 1201.04 390.263C1228.98 392.039 1252.97 393.456 1277.12 394.864C1297.86 396.072 1318.2 397.019 1337.59 397.679C1356.76 398.334 1374.54 398.708 1390.43 398.795C1392.63 398.805 1394.77 398.81 1396.84 398.81C1409.39 398.81 1419.46 398.596 1426.83 398.174C1431.16 397.926 1434.62 397.587 1436.84 397.193C1438.03 396.985 1439 396.732 1439.62 396.47C1440 396.31 1440.31 396.131 1440.54 395.927C1440.88 395.616 1440.96 395.238 1440.98 395.131L1439.11 394.971C1439.11 394.971 1438.99 395.073 1438.73 395.179L1438.73 395.184Z" fill="white" fill-opacity="0.05"/>
<path d="M1439.01 349.606C1438.96 349.669 1438.84 349.8 1438.59 349.96C1438.13 350.246 1437.31 350.557 1436.32 350.819C1434.24 351.372 1430.81 351.872 1426.66 352.227C1418.26 352.95 1405.74 353.265 1390.45 353.149C1374.6 353.023 1356.84 352.46 1337.67 351.479C1318.28 350.489 1297.97 349.067 1277.31 347.262C1257.76 345.548 1231 343.204 1201.25 340.365C1163.13 336.725 1130.2 333.235 1097.64 329.387C1051.55 323.931 1008.8 318.025 966.934 311.332C914.284 302.911 863.012 293.165 814.544 282.371C570.708 228.013 344.262 125.402 208.798 7.8965C205.789 5.28537 202.854 2.64026 199.903 0H197.397C200.705 2.96543 204.012 5.93572 207.388 8.86233C278.079 70.1852 370.066 126.14 480.791 175.169C582.873 220.374 698.101 257.925 814.015 283.769C862.53 294.578 913.849 304.328 966.546 312.754C1008.44 319.452 1051.23 325.363 1097.35 330.823C1129.93 334.677 1162.87 338.171 1201.01 341.811C1230.77 344.651 1257.53 347 1277.08 348.713C1297.78 350.523 1318.12 351.945 1337.54 352.935C1356.75 353.916 1374.54 354.479 1390.43 354.605C1392.55 354.619 1394.63 354.629 1396.65 354.629C1409.21 354.629 1419.57 354.304 1426.87 353.673C1431.21 353.299 1434.69 352.785 1436.94 352.193C1438.16 351.868 1439.14 351.489 1439.77 351.091C1440.15 350.858 1440.44 350.601 1440.65 350.329C1440.93 349.955 1440.98 349.499 1440.99 349.412L1439.1 349.31C1439.09 349.402 1439.06 349.548 1439.01 349.601V349.606Z" fill="white" fill-opacity="0.05"/>
<path d="M1439.07 303.94C1439.05 304.013 1439.01 304.1 1438.96 304.192C1438.89 304.319 1438.76 304.508 1438.49 304.731C1438.22 304.954 1437.57 305.406 1436.24 305.872C1434.2 306.59 1430.7 307.27 1426.63 307.74C1418.22 308.701 1405.71 309.124 1390.45 308.963C1374.59 308.794 1356.82 308.046 1337.65 306.741C1318.29 305.42 1297.99 303.528 1277.34 301.115C1253.14 298.291 1229.1 295.461 1201.29 291.923C1163.16 287.07 1130.26 282.42 1097.73 277.29C1051.66 270.02 1008.91 262.147 967.065 253.227C914.399 242.001 863.111 229.003 814.623 214.603C691.481 178.013 579.278 130.149 481.116 72.3498C443.357 50.0969 407.049 25.8347 372.603 0H369.877C404.796 26.2715 441.638 50.922 479.968 73.5098C578.266 131.396 690.632 179.329 813.942 215.967C862.488 230.387 913.838 243.394 966.561 254.634C1008.46 263.56 1051.24 271.442 1097.36 278.717C1129.9 283.852 1162.83 288.506 1200.98 293.36C1228.81 296.903 1252.84 299.732 1277.05 302.557C1297.74 304.974 1318.08 306.867 1337.48 308.192C1356.7 309.502 1374.51 310.25 1390.42 310.419C1392.55 310.444 1394.64 310.453 1396.66 310.453C1409.21 310.453 1419.58 310.017 1426.9 309.177C1431.2 308.682 1434.79 307.978 1437.02 307.192C1438.24 306.76 1439.22 306.25 1439.87 305.716C1440.23 305.416 1440.51 305.1 1440.69 304.765C1440.8 304.571 1440.87 304.391 1440.91 304.231C1440.97 304.003 1440.98 303.688 1440.98 303.688L1439.09 303.654C1439.09 303.654 1439.09 303.819 1439.06 303.935L1439.07 303.94Z" fill="white" fill-opacity="0.05"/>
<path d="M1439.06 258.386C1439.03 258.498 1438.99 258.624 1438.93 258.76C1438.82 259.012 1438.65 259.26 1438.42 259.492C1438.08 259.842 1437.41 260.376 1436.16 260.929C1434.13 261.822 1430.64 262.671 1426.59 263.254C1418.2 264.458 1405.7 264.991 1390.45 264.783C1374.53 264.569 1356.76 263.632 1337.61 262.002C1318.27 260.352 1297.99 257.988 1277.36 254.979C1253.13 251.441 1229.08 247.903 1201.32 243.486C1163.2 237.419 1130.31 231.615 1097.82 225.203C1051.78 216.122 1009.05 206.289 967.196 195.141C914.498 181.1 863.185 164.851 814.681 146.845C711.278 108.43 612.314 58.0953 525.438 0H522.539C609.945 58.6438 709.653 109.444 813.868 148.155C862.435 166.186 913.817 182.459 966.588 196.519C1008.49 207.682 1051.27 217.525 1097.37 226.615C1129.88 233.027 1162.8 238.841 1200.95 244.913C1228.73 249.329 1252.79 252.872 1277.03 256.411C1297.7 259.429 1318.03 261.798 1337.42 263.453C1356.62 265.089 1374.45 266.03 1390.43 266.244C1392.56 266.273 1394.63 266.287 1396.66 266.287C1409.23 266.287 1419.61 265.744 1426.94 264.69C1431.19 264.079 1434.9 263.171 1437.11 262.196C1438.32 261.657 1439.31 261.026 1439.95 260.366C1440.29 260.012 1440.55 259.633 1440.73 259.24C1440.83 259.017 1440.89 258.808 1440.93 258.629C1440.98 258.371 1440.99 258.012 1440.99 258.012L1439.1 257.983C1439.1 257.983 1439.1 258.221 1439.06 258.391L1439.06 258.386Z" fill="white" fill-opacity="0.05"/>
<path d="M1439.06 212.817C1439.03 212.963 1438.99 213.133 1438.92 213.307C1438.8 213.633 1438.62 213.943 1438.38 214.239C1438.04 214.666 1437.37 215.312 1436.09 215.982C1434.08 217.049 1430.6 218.064 1426.56 218.763C1418.3 220.185 1405.48 220.825 1390.46 220.597C1374.52 220.34 1356.73 219.214 1337.59 217.253C1318.27 215.273 1298.02 212.439 1277.41 208.833C1253.24 204.6 1229.24 200.359 1201.38 195.044C1163.3 187.779 1130.44 180.809 1097.94 173.121C1051.91 162.23 1009.2 150.436 967.358 137.065C914.635 120.214 863.295 100.703 814.754 79.0815C762.361 55.7317 711.639 29.1593 663.665 0H660.635C709.228 29.6495 760.657 56.6587 813.811 80.3434C862.42 101.999 913.833 121.534 966.635 138.414C1008.53 151.8 1051.3 163.613 1097.39 174.519C1129.92 182.217 1162.82 189.191 1200.92 196.466C1228.8 201.79 1252.81 206.027 1276.99 210.26C1297.66 213.88 1317.97 216.719 1337.34 218.709C1356.56 220.675 1374.42 221.806 1390.42 222.063C1392.47 222.097 1394.48 222.112 1396.44 222.112C1409.01 222.112 1419.71 221.447 1426.97 220.194C1431.24 219.457 1434.96 218.365 1437.17 217.19C1438.38 216.545 1439.36 215.792 1439.99 215.016C1440.32 214.608 1440.57 214.171 1440.74 213.715C1440.83 213.463 1440.89 213.23 1440.93 213.026C1440.98 212.73 1440.99 212.322 1440.99 212.322L1439.1 212.298C1439.1 212.298 1439.09 212.609 1439.06 212.822V212.817Z" fill="white" fill-opacity="0.05"/>
<path d="M1439.09 166.938C1439.08 167.025 1439.07 167.132 1439.05 167.249C1439.02 167.428 1438.98 167.632 1438.91 167.85C1438.78 168.244 1438.59 168.627 1438.35 168.986C1437.84 169.719 1437.07 170.408 1436.04 171.044C1434.02 172.291 1430.55 173.471 1426.53 174.281C1418.29 175.936 1405.49 176.703 1390.46 176.417C1374.5 176.116 1356.7 174.805 1337.54 172.515C1318.27 170.209 1298.05 166.904 1277.44 162.696C1253.27 157.76 1229.27 152.815 1201.42 146.612C1163.35 138.133 1130.5 130.008 1098.05 121.054C1052.02 108.348 1009.33 94.593 967.516 79.0087C914.75 59.333 863.368 36.5608 814.812 11.323C807.689 7.61986 800.602 3.8439 793.542 0.00485341H790.277C798.065 4.2613 805.886 8.44494 813.753 12.5364C862.383 37.8129 913.838 60.6191 966.687 80.324C1008.56 95.9325 1051.32 109.702 1097.41 122.427C1129.9 131.396 1162.78 139.526 1200.89 148.014C1228.76 154.222 1252.77 159.168 1276.95 164.108C1297.63 168.331 1317.91 171.646 1337.25 173.961C1356.48 176.261 1374.37 177.581 1390.41 177.882C1392.45 177.921 1394.46 177.941 1396.42 177.941C1409.02 177.941 1419.73 177.164 1427.01 175.698C1431.28 174.839 1435.01 173.558 1437.23 172.189C1438.46 171.432 1439.4 170.583 1440.02 169.675C1440.34 169.214 1440.59 168.719 1440.75 168.205C1440.84 167.923 1440.9 167.656 1440.93 167.428C1440.96 167.283 1440.97 167.147 1440.98 167.025C1440.99 166.855 1440.99 166.627 1440.99 166.627L1439.1 166.618L1439.09 166.943L1439.09 166.938Z" fill="white" fill-opacity="0.05"/>
<path d="M1439.09 121.311C1439.08 121.418 1439.07 121.544 1439.05 121.675C1439.02 121.884 1438.98 122.126 1438.9 122.384C1438.77 122.845 1438.58 123.296 1438.32 123.718C1437.81 124.573 1437.02 125.373 1435.99 126.101C1433.98 127.523 1430.52 128.868 1426.49 129.795C1418.38 131.658 1405.26 132.556 1390.46 132.231C1374.45 131.887 1356.62 130.382 1337.49 127.766C1318.27 125.136 1298.08 121.364 1277.47 116.555C1253.26 110.9 1229.23 105.241 1201.46 98.1748C1163.45 88.502 1130.63 79.2271 1098.16 68.9864C1052.16 54.4747 1009.47 38.7691 967.673 20.9667C952.017 14.2982 936.502 7.28012 921.129 0.00485341H917.523C933.776 7.73634 950.187 15.1863 966.755 22.2432C1008.62 40.0746 1051.37 55.8045 1097.45 70.3356C1129.95 80.586 1162.82 89.8755 1200.87 99.558C1228.66 106.629 1252.7 112.293 1276.92 117.952C1297.6 122.782 1317.87 126.567 1337.16 129.208C1356.39 131.838 1374.31 133.347 1390.41 133.697C1392.38 133.741 1394.3 133.76 1396.2 133.76C1408.8 133.76 1419.82 132.857 1427.03 131.202C1431.32 130.212 1435.05 128.751 1437.27 127.184C1438.48 126.325 1439.42 125.368 1440.04 124.34C1440.35 123.82 1440.59 123.272 1440.75 122.699C1440.84 122.384 1440.89 122.088 1440.93 121.835C1440.95 121.67 1440.96 121.52 1440.97 121.389C1440.98 121.204 1440.98 120.942 1440.98 120.942L1439.09 120.932L1439.08 121.316L1439.09 121.311Z" fill="white" fill-opacity="0.05"/>
<path d="M1439.09 75.6744C1439.08 75.8006 1439.07 75.9413 1439.05 76.0966C1439.02 76.3344 1438.98 76.616 1438.9 76.912C1438.77 77.441 1438.57 77.9555 1438.31 78.4408C1437.79 79.4115 1436.99 80.324 1435.95 81.1539C1433.94 82.7507 1430.48 84.2649 1426.47 85.3084C1418.36 87.4002 1405.24 88.3952 1390.47 88.0457C1374.42 87.6575 1356.58 85.9636 1337.43 83.0176C1318.26 80.0619 1298.09 75.82 1277.5 70.4133C1253.29 64.0553 1229.26 57.6877 1201.5 49.7378C1163.51 38.8564 1130.71 28.4313 1098.27 16.9238C1082.85 11.4541 1067.83 5.81439 1053.07 0H1048.88C1064.73 6.28517 1080.89 12.3568 1097.49 18.2488C1129.96 29.7708 1162.81 40.2105 1200.85 51.1016C1228.63 59.0563 1252.67 65.4288 1276.89 71.7917C1297.56 77.2178 1317.81 81.4791 1337.06 84.4445C1356.3 87.4099 1374.25 89.1086 1390.4 89.5018C1392.38 89.5503 1394.31 89.5697 1396.22 89.5697C1408.81 89.5697 1419.85 88.5505 1427.06 86.6868C1431.36 85.5753 1435.09 83.93 1437.3 82.1683C1438.52 81.2073 1439.44 80.1395 1440.05 78.9941C1440.36 78.4166 1440.6 77.8099 1440.75 77.1789C1440.84 76.8295 1440.9 76.5043 1440.93 76.2228C1440.95 76.0433 1440.97 75.8734 1440.97 75.7278C1440.98 75.5191 1440.99 75.2327 1440.99 75.2327L1439.1 75.223L1439.09 75.6598V75.6744Z" fill="white" fill-opacity="0.05"/>
<path d="M1412.96 44.0496H1411.07V928.812H1412.96V44.0496Z" fill="white" fill-opacity="0.05"/>
<path d="M1384.3 44.3117H1382.41V928.555H1384.3V44.3117Z" fill="white" fill-opacity="0.05"/>
<path d="M1355.17 41.5404H1353.27V931.326H1355.17V41.5404Z" fill="white" fill-opacity="0.05"/>
<path d="M1325.73 36.6578H1323.83V936.209H1325.73V36.6578Z" fill="white" fill-opacity="0.05"/>
<path d="M1296.24 29.9456H1294.34V942.911H1296.24V29.9456Z" fill="white" fill-opacity="0.05"/>
<path d="M1266.43 21.52H1264.54V951.342H1266.43V21.52Z" fill="white" fill-opacity="0.05"/>
<path d="M1231.91 11.1628H1230.02V959.986H1231.91V11.1628Z" fill="white" fill-opacity="0.05"/>
<path d="M1190.75 0H1188.86V959.985H1190.75V0Z" fill="white" fill-opacity="0.05"/>
<path d="M1141.66 0H1139.77V959.985H1141.66V0Z" fill="white" fill-opacity="0.05"/>
<path d="M1083.18 0H1081.29V959.985H1083.18V0Z" fill="white" fill-opacity="0.05"/>
<path d="M1013.65 0H1011.76V959.985H1013.65V0Z" fill="white" fill-opacity="0.05"/>
<path d="M931.35 0H929.457V959.985H931.35V0Z" fill="white" fill-opacity="0.05"/>
<path d="M834.603 0H832.711V959.985H834.603V0Z" fill="white" fill-opacity="0.05"/>
<path d="M722.127 0H720.235V959.985H722.127V0Z" fill="white" fill-opacity="0.05"/>
<path d="M593.56 0H591.668V959.985H593.56V0Z" fill="white" fill-opacity="0.05"/>
<path d="M450.333 0H448.441V959.985H450.333V0Z" fill="white" fill-opacity="0.05"/>
<path d="M296.937 0H295.045V959.985H296.937V0Z" fill="white" fill-opacity="0.05"/>
<path d="M142.509 0H140.617V959.985H142.509V0Z" fill="white" fill-opacity="0.05"/>
</svg>
