<svg width="40" height="40" viewBox="0 0 40 40" fill="none" xmlns="http://www.w3.org/2000/svg">
<g clip-path="url(#clip0_0_4)">
<path fill-rule="evenodd" clip-rule="evenodd" d="M20.5715 36.104C20.8511 35.5452 21.1595 35.0018 21.4691 34.4953L21.4692 34.4953C22.8394 32.2539 24.6311 30.3049 26.6772 28.6781C27.4638 28.0506 28.339 27.4158 29.1853 26.9352C30.0113 26.4661 30.8918 26.0952 31.6667 26.0952L31.6667 27.2381C31.2049 27.2381 30.5438 27.478 29.7497 27.929C28.9761 28.3683 28.1531 28.9626 27.3897 29.5717L27.389 29.5723C25.4353 31.1254 23.7372 32.9763 22.4442 35.0914C21.9548 35.8921 21.4823 36.7665 21.1335 37.6264C20.7822 38.4927 20.5715 39.3078 20.5715 40L19.4286 40C19.4286 39.3078 19.2179 38.4922 18.8665 37.6258C18.5178 36.7657 18.0453 35.8913 17.556 35.0916C16.2612 32.9763 14.5629 31.1253 12.6124 29.572L12.6122 29.5718C11.8481 28.9629 11.0238 28.3684 10.2495 27.9291C9.45449 27.4779 8.79343 27.2381 8.33337 27.2381L8.33337 26.0952C9.10665 26.0952 9.98726 26.4662 10.8135 26.9351C11.6605 27.4157 12.537 28.0504 13.3245 28.6781C15.3672 30.3048 17.1589 32.2537 18.5307 34.495L18.5308 34.4951C18.8405 35.0012 19.1489 35.5444 19.4286 36.1032L19.4286 7.63579e-06L20.5715 7.7357e-06L20.5715 36.104Z" fill="black"/>
</g>
<defs>
<clipPath id="clip0_0_4">
<rect width="39.4366" height="39.4366" fill="white" transform="translate(40 40) scale(1.01429) rotate(-180)"/>
</clipPath>
</defs>
</svg>
