<svg width="73" height="75" viewBox="0 0 73 75" fill="none" xmlns="http://www.w3.org/2000/svg">
<g filter="url(#filter0_b_0_3)">
<path d="M31.9644 1.92213C34.4451 -0.640714 38.5549 -0.640714 41.0356 1.92213C42.7737 3.71784 45.4076 4.31901 47.7528 3.45528C51.0998 2.22257 54.8026 4.00576 55.9256 7.39113C56.7125 9.76316 58.8247 11.4476 61.3124 11.6869C64.8628 12.0285 67.4252 15.2417 66.9682 18.7791C66.648 21.2576 67.8202 23.6917 69.9576 24.9867C73.0082 26.8349 73.9227 30.8417 71.9762 33.8304C70.6122 35.9246 70.6122 38.6262 71.9762 40.7204C73.9227 43.7091 73.0082 47.7159 69.9576 49.5641C67.8202 50.8591 66.648 53.2932 66.9682 55.7717C67.4252 59.3091 64.8628 62.5223 61.3124 62.8639C58.8247 63.1032 56.7125 64.7877 55.9256 67.1597C54.8026 70.5451 51.0998 72.3282 47.7528 71.0955C45.4076 70.2318 42.7737 70.833 41.0356 72.6287C38.5549 75.1915 34.4451 75.1915 31.9644 72.6287C30.2263 70.833 27.5924 70.2318 25.2472 71.0955C21.9002 72.3282 18.1974 70.5451 17.0744 67.1597C16.2875 64.7877 14.1752 63.1032 11.6876 62.8639C8.1372 62.5223 5.57476 59.3091 6.0318 55.7717C6.35203 53.2932 5.17983 50.8591 3.04237 49.5641C-0.00822322 47.7159 -0.922747 43.7091 1.02384 40.7204C2.38775 38.6262 2.38776 35.9246 1.02384 33.8304C-0.922746 30.8417 -0.00822298 26.8349 3.04237 24.9867C5.17983 23.6917 6.35203 21.2576 6.0318 18.7791C5.57476 15.2417 8.1372 12.0285 11.6876 11.6869C14.1752 11.4476 16.2875 9.76316 17.0744 7.39112C18.1974 4.00576 21.9002 2.22257 25.2472 3.45528C27.5924 4.31901 30.2263 3.71784 31.9644 1.92213Z" fill="#D0A8ED"/>
<path d="M32.3696 2.31434C34.6287 -0.0195434 38.3713 -0.0195429 40.6304 2.31434C42.5238 4.27048 45.393 4.92536 47.9477 3.98446C50.9957 2.86188 54.3677 4.48576 55.3904 7.56868C56.2476 10.1526 58.5485 11.9876 61.2584 12.2483C64.4916 12.5593 66.8251 15.4855 66.4089 18.7068C66.0601 21.4068 67.337 24.0583 69.6654 25.469C72.4435 27.1521 73.2763 30.8009 71.5036 33.5227C70.0178 35.8039 70.0178 38.7469 71.5036 41.0281C73.2763 43.7499 72.4435 47.3987 69.6654 49.0818C67.337 50.4925 66.0601 53.144 66.4089 55.844C66.8251 59.0654 64.4916 61.9915 61.2584 62.3025C58.5485 62.5632 56.2476 64.3982 55.3904 66.9821C54.3677 70.0651 50.9957 71.6889 47.9477 70.5663C45.393 69.6255 42.5238 70.2803 40.6304 72.2365C38.3713 74.5704 34.6287 74.5704 32.3696 72.2365C30.4762 70.2803 27.607 69.6255 25.0523 70.5663C22.0043 71.6889 18.6323 70.0651 17.6096 66.9821C16.7524 64.3982 14.4515 62.5632 11.7416 62.3025C8.50839 61.9915 6.17488 59.0654 6.59108 55.844C6.93992 53.144 5.663 50.4925 3.33458 49.0818C0.556523 47.3987 -0.276299 43.7499 1.49638 41.0281C2.98215 38.7469 2.98215 35.8039 1.49638 33.5227C-0.276298 30.8009 0.556523 27.1521 3.33458 25.469C5.663 24.0583 6.93992 21.4068 6.59108 18.7068C6.17488 15.4855 8.50839 12.5593 11.7416 12.2483C14.4515 11.9876 16.7524 10.1526 17.6096 7.56868C18.6323 4.48576 22.0043 2.86188 25.0523 3.98446C27.607 4.92536 30.4762 4.27048 32.3696 2.31434Z" stroke="#FDFDFD" stroke-width="1.12676"/>
</g>
<defs>
<filter id="filter0_b_0_3" x="-11.2786" y="-11.2786" width="95.5572" height="97.1081" filterUnits="userSpaceOnUse" color-interpolation-filters="sRGB">
<feFlood flood-opacity="0" result="BackgroundImageFix"/>
<feGaussianBlur in="BackgroundImageFix" stdDeviation="5.6338"/>
<feComposite in2="SourceAlpha" operator="in" result="effect1_backgroundBlur_0_3"/>
<feBlend mode="normal" in="SourceGraphic" in2="effect1_backgroundBlur_0_3" result="shape"/>
</filter>
</defs>
</svg>
